SplineFontDB: 3.2
FontName: Atari-825-Condensed-Elongated
FullName: Atari 825 Condensed Elongated Regular
FamilyName: Atari 825 Condensed Elongated
Weight: Book
Copyright: Copyright jeffpiep 2020\n"Atari 825 Condensed, which is based on "Atari 825 Regular
Version: 1.0
ItalicAngle: 0
UnderlinePosition: 74.707
UnderlineWidth: 49.8047
Ascent: 800
Descent: 200
InvalidEm: 0
sfntRevision: 0x00010000
LayerCount: 2
Layer: 0 1 "Back" 1
Layer: 1 1 "Fore" 0
XUID: [1021 991 -801047843 25383]
StyleMap: 0x0040
FSType: 4
OS2Version: 2
OS2_WeightWidthSlopeOnly: 0
OS2_UseTypoMetrics: 0
CreationTime: 1592073448
ModificationTime: 1592076670
PfmFamily: 81
TTFWeight: 400
TTFWidth: 5
LineGap: 0
VLineGap: 0
Panose: 0 0 4 0 0 0 0 0 0 0
OS2TypoAscent: 889
OS2TypoAOffset: 0
OS2TypoDescent: -111
OS2TypoDOffset: 0
OS2TypoLinegap: 0
OS2WinAscent: 889
OS2WinAOffset: 0
OS2WinDescent: 111
OS2WinDOffset: 0
HheadAscent: 889
HheadAOffset: 0
HheadDescent: -111
HheadDOffset: 0
OS2SubXSize: 500
OS2SubYSize: 500
OS2SubXOff: 0
OS2SubYOff: -55
OS2SupXSize: 500
OS2SupYSize: 500
OS2SupXOff: 0
OS2SupYOff: 500
OS2StrikeYSize: 50
OS2StrikeYPos: 200
OS2CapHeight: 789
OS2XHeight: 566
OS2Vendor: 'FSTR'
OS2CodePages: 00000001.00000000
OS2UnicodeRanges: 80000001.00000000.00000000.00000000
MarkAttachClasses: 1
DEI: 91125
ShortTable: maxp 16
  1
  0
  102
  636
  20
  0
  0
  2
  0
  0
  0
  0
  0
  0
  0
  0
EndShort

StartChar: exclam
Encoding: 33 33 1
Width: 720
VWidth: 750
Flags: W
LayerCount: 2
Fore
SplineSet
280 0 m 1,0,1
 264 0 264 0 251 14 c 0,2,3
 239.923076923 26.9230769231 239.923076923 26.9230769231 239.923076923 43.2544378698 c 0,4,5
 239.923076923 64.9090909091 239.923076923 64.9090909091 251 78 c 256,6,7
 263 92 263 92 280 92 c 256,8,9
 296 92 296 92 308 78 c 256,10,11
 320 64 320 64 320 46 c 128,-1,12
 320 28 320 28 308 14 c 128,-1,13
 296 0 296 0 280 0 c 1,14,-1
 280 0 l 1,0,1
360 0 m 1,15,16
 344 0 344 0 332 14 c 128,-1,17
 320 28 320 28 320 46 c 0,18,19
 320 65 320 65 332 78 c 256,20,21
 344 92 344 92 360 92 c 128,-1,22
 376 92 376 92 388 78 c 256,23,24
 400 64 400 64 400 46 c 128,-1,25
 400 28 400 28 388 14 c 128,-1,26
 376 0 376 0 360 0 c 1,27,-1
 360 0 l 1,15,16
280 250 m 1,28,29
 264 250 264 250 251 263 c 256,30,31
 239.923076923 276.846153846 239.923076923 276.846153846 239.923076923 293.24852071 c 0,32,33
 239.923076923 315.916083916 239.923076923 315.916083916 251 328 c 0,34,35
 256 334 256 334 263 338 c 1,36,-1
 263 338 l 1,37,38
 257 340 257 340 251 346 c 0,39,40
 239.923076923 358.923076923 239.923076923 358.923076923 239.923076923 376.106508876 c 0,41,42
 239.923076923 397.909090909 239.923076923 397.909090909 251 411 c 0,43,44
 256 417 256 417 263 421 c 1,45,-1
 263 421 l 1,46,47
 257 424 257 424 251 430 c 0,48,49
 239.923076923 442.923076923 239.923076923 442.923076923 239.923076923 459.25443787 c 0,50,51
 239.923076923 480.902097902 239.923076923 480.902097902 251 495 c 0,52,53
 256 501 256 501 263 504 c 1,54,-1
 263 504 l 1,55,56
 257 507 257 507 251 513 c 0,57,58
 239.923076923 525.923076923 239.923076923 525.923076923 239.923076923 543.106508876 c 0,59,60
 239.923076923 564.909090909 239.923076923 564.909090909 251 578 c 0,61,62
 263 592 263 592 280 592 c 256,63,64
 296 592 296 592 308 578 c 128,-1,65
 320 564 320 564 320 546 c 256,66,67
 320 527 320 527 308 513 c 0,68,69
 303 507 303 507 297 504 c 1,70,-1
 297 504 l 1,71,72
 303 501 303 501 308 495 c 0,73,74
 320 481 320 481 320 462 c 128,-1,75
 320 443 320 443 308 430 c 0,76,77
 303 424 303 424 297 421 c 1,78,-1
 297 421 l 1,79,80
 303 418 303 418 308 411 c 0,81,82
 320 397 320 397 320 379 c 256,83,84
 320 360 320 360 308 346 c 0,85,86
 303 340 303 340 297 338 c 1,87,-1
 297 338 l 1,88,89
 303 334 303 334 308 328 c 0,90,91
 320 314 320 314 320 296 c 0,92,93
 320 277 320 277 308 263 c 256,94,95
 296.8 249.933333333 296.8 249.933333333 282.115555556 249.933333333 c 0,96,97
 281.066666667 249.933333333 281.066666667 249.933333333 280 250 c 1,98,-1
 280 250 l 1,28,29
360 250 m 1,99,100
 344 250 344 250 332 263 c 256,101,102
 320 278 320 278 320 296 c 0,103,104
 320 316 320 316 332 328 c 0,105,106
 337 334 337 334 343 338 c 1,107,-1
 343 338 l 1,108,109
 338 340 338 340 332 346 c 0,110,111
 320 360 320 360 320 379 c 256,112,113
 320 398 320 398 332 411 c 0,114,115
 337 417 337 417 343 421 c 1,116,-1
 343 421 l 1,117,118
 338 424 338 424 332 430 c 0,119,120
 320 444 320 444 320 462 c 0,121,122
 320 481 320 481 332 495 c 0,123,124
 337 501 337 501 343 504 c 1,125,-1
 343 504 l 1,126,127
 338 507 338 507 332 513 c 0,128,129
 320 527 320 527 320 546 c 256,130,131
 320 565 320 565 332 578 c 0,132,133
 344 592 344 592 360 592 c 128,-1,134
 376 592 376 592 388 578 c 128,-1,135
 400 564 400 564 400 546 c 256,136,137
 400 527 400 527 388 513 c 0,138,139
 382 507 382 507 376 504 c 1,140,-1
 376 504 l 1,141,142
 382 501 382 501 388 495 c 0,143,144
 400 481 400 481 400 462 c 128,-1,145
 400 443 400 443 388 430 c 0,146,147
 382 424 382 424 376 421 c 1,148,-1
 376 421 l 1,149,150
 382 418 382 418 388 411 c 0,151,152
 400 397 400 397 400 379 c 256,153,154
 400 360 400 360 388 346 c 0,155,156
 382 340 382 340 376 338 c 1,157,-1
 376 338 l 1,158,159
 382 334 382 334 388 328 c 0,160,161
 400 314 400 314 400 296 c 0,162,163
 400 277 400 277 388 263 c 256,164,165
 376.8 249.933333333 376.8 249.933333333 362.115555556 249.933333333 c 0,166,167
 361.066666667 249.933333333 361.066666667 249.933333333 360 250 c 1,168,-1
 360 250 l 1,99,100
EndSplineSet
EndChar

StartChar: quotedbl
Encoding: 34 34 2
Width: 720
VWidth: 750
Flags: W
LayerCount: 2
Fore
SplineSet
200 333 m 1,0,1
 198.933333333 332.933333333 198.933333333 332.933333333 197.884444444 332.933333333 c 0,2,3
 183.2 332.933333333 183.2 332.933333333 172 346 c 0,4,5
 160 360 160 360 160 379 c 256,6,7
 160 398 160 398 172 411 c 0,8,9
 177 417 177 417 183 421 c 1,10,-1
 183 421 l 1,11,12
 177 424 177 424 172 430 c 0,13,14
 160 444 160 444 160 462 c 0,15,16
 160 481 160 481 172 495 c 0,17,18
 177 501 177 501 183 504 c 1,19,-1
 183 504 l 1,20,21
 177 507 177 507 172 513 c 0,22,23
 160 527 160 527 160 546 c 256,24,25
 160 565 160 565 172 578 c 0,26,27
 184 592 184 592 200 592 c 128,-1,28
 216 592 216 592 228 578 c 128,-1,29
 240 564 240 564 240 546 c 256,30,31
 240 527 240 527 228 513 c 0,32,33
 223 507 223 507 217 504 c 1,34,-1
 217 504 l 1,35,36
 223 501 223 501 228 495 c 0,37,38
 240 481 240 481 240 462 c 128,-1,39
 240 443 240 443 228 430 c 0,40,41
 223 424 223 424 217 421 c 1,42,-1
 217 421 l 1,43,44
 223 418 223 418 228 411 c 0,45,46
 240 397 240 397 240 379 c 256,47,48
 240 360 240 360 228 346 c 0,49,50
 216.8 332.933333333 216.8 332.933333333 202.115555556 332.933333333 c 0,51,52
 201.066666667 332.933333333 201.066666667 332.933333333 200 333 c 1,53,-1
 200 333 l 1,0,1
280 333 m 1,54,55
 278.933333333 332.933333333 278.933333333 332.933333333 277.88 332.933333333 c 0,56,57
 263.133333333 332.933333333 263.133333333 332.933333333 251 346 c 0,58,59
 239.923076923 358.923076923 239.923076923 358.923076923 239.923076923 376.106508876 c 0,60,61
 239.923076923 397.909090909 239.923076923 397.909090909 251 411 c 0,62,63
 256 417 256 417 263 421 c 1,64,-1
 263 421 l 1,65,66
 257 424 257 424 251 430 c 0,67,68
 239.923076923 442.923076923 239.923076923 442.923076923 239.923076923 459.25443787 c 0,69,70
 239.923076923 480.902097902 239.923076923 480.902097902 251 495 c 0,71,72
 256 501 256 501 263 504 c 1,73,-1
 263 504 l 1,74,75
 257 507 257 507 251 513 c 0,76,77
 239.923076923 525.923076923 239.923076923 525.923076923 239.923076923 543.106508876 c 0,78,79
 239.923076923 564.909090909 239.923076923 564.909090909 251 578 c 0,80,81
 263 592 263 592 280 592 c 256,82,83
 296 592 296 592 308 578 c 128,-1,84
 320 564 320 564 320 546 c 256,85,86
 320 527 320 527 308 513 c 0,87,88
 303 507 303 507 297 504 c 1,89,-1
 297 504 l 1,90,91
 303 501 303 501 308 495 c 0,92,93
 320 481 320 481 320 462 c 128,-1,94
 320 443 320 443 308 430 c 0,95,96
 303 424 303 424 297 421 c 1,97,-1
 297 421 l 1,98,99
 303 418 303 418 308 411 c 0,100,101
 320 397 320 397 320 379 c 256,102,103
 320 360 320 360 308 346 c 0,104,105
 296.8 332.933333333 296.8 332.933333333 282.115555556 332.933333333 c 0,106,107
 281.066666667 332.933333333 281.066666667 332.933333333 280 333 c 1,108,-1
 280 333 l 1,54,55
520 333 m 1,109,110
 518.933333333 332.933333333 518.933333333 332.933333333 517.88 332.933333333 c 0,111,112
 503.133333333 332.933333333 503.133333333 332.933333333 491 346 c 0,113,114
 479.923076923 358.923076923 479.923076923 358.923076923 479.923076923 376.106508876 c 0,115,116
 479.923076923 397.909090909 479.923076923 397.909090909 491 411 c 0,117,118
 496 417 496 417 502 421 c 1,119,-1
 502 421 l 1,120,121
 496 424 496 424 491 430 c 0,122,123
 479.923076923 442.923076923 479.923076923 442.923076923 479.923076923 459.25443787 c 0,124,125
 479.923076923 480.902097902 479.923076923 480.902097902 491 495 c 0,126,127
 496 501 496 501 502 504 c 1,128,-1
 502 504 l 1,129,130
 496 507 496 507 491 513 c 0,131,132
 479.923076923 525.923076923 479.923076923 525.923076923 479.923076923 543.106508876 c 0,133,134
 479.923076923 564.909090909 479.923076923 564.909090909 491 578 c 0,135,136
 503 592 503 592 520 592 c 0,137,138
 536 592 536 592 548 578 c 128,-1,139
 560 564 560 564 560 546 c 256,140,141
 560 527 560 527 548 513 c 0,142,143
 543 507 543 507 537 504 c 1,144,-1
 537 504 l 1,145,146
 543 501 543 501 548 495 c 0,147,148
 560 481 560 481 560 462 c 128,-1,149
 560 443 560 443 548 430 c 0,150,151
 543 424 543 424 537 421 c 1,152,-1
 537 421 l 1,153,154
 543 418 543 418 548 411 c 0,155,156
 560 397 560 397 560 379 c 256,157,158
 560 360 560 360 548 346 c 0,159,160
 536.8 332.933333333 536.8 332.933333333 522.115555556 332.933333333 c 0,161,162
 521.066666667 332.933333333 521.066666667 332.933333333 520 333 c 1,163,-1
 520 333 l 1,109,110
600 333 m 1,164,165
 598.933333333 332.933333333 598.933333333 332.933333333 597.884444444 332.933333333 c 0,166,167
 583.2 332.933333333 583.2 332.933333333 572 346 c 0,168,169
 560 360 560 360 560 379 c 256,170,171
 560 398 560 398 572 411 c 0,172,173
 577 417 577 417 583 421 c 1,174,-1
 583 421 l 1,175,176
 578 424 578 424 572 430 c 0,177,178
 560 444 560 444 560 462 c 0,179,180
 560 481 560 481 572 495 c 0,181,182
 577 501 577 501 583 504 c 1,183,-1
 583 504 l 1,184,185
 578 507 578 507 572 513 c 0,186,187
 560 527 560 527 560 546 c 256,188,189
 560 565 560 565 572 578 c 0,190,191
 584 592 584 592 600 592 c 256,192,193
 616 592 616 592 628 578 c 128,-1,194
 640 564 640 564 640 546 c 256,195,196
 640 527 640 527 628 513 c 0,197,198
 622 507 622 507 616 504 c 1,199,-1
 616 504 l 1,200,201
 622 501 622 501 628 495 c 0,202,203
 640 481 640 481 640 462 c 128,-1,204
 640 443 640 443 628 430 c 0,205,206
 622 424 622 424 616 421 c 1,207,-1
 616 421 l 1,208,209
 622 418 622 418 628 411 c 0,210,211
 640 397 640 397 640 379 c 256,212,213
 640 360 640 360 628 346 c 0,214,215
 616.8 332.933333333 616.8 332.933333333 602.115555556 332.933333333 c 0,216,217
 601.066666667 332.933333333 601.066666667 332.933333333 600 333 c 1,218,-1
 600 333 l 1,164,165
EndSplineSet
EndChar

StartChar: numbersign
Encoding: 35 35 3
Width: 720
VWidth: 750
Flags: W
LayerCount: 2
Fore
SplineSet
40 166 m 1,0,1
 24 166 24 166 11 180 c 0,2,3
 0 194 0 194 0 212 c 256,4,5
 0 230 0 230 11 244 c 0,6,7
 23 258 23 258 40 258 c 256,8,9
 56 258 56 258 68 244 c 128,-1,10
 80 230 80 230 80 212 c 256,11,12
 80 193 80 193 68 180 c 0,13,14
 56 166 56 166 40 166 c 1,15,-1
 40 166 l 1,0,1
120 166 m 1,16,17
 104 166 104 166 92 180 c 128,-1,18
 80 194 80 194 80 212 c 256,19,20
 80 230 80 230 92 244 c 128,-1,21
 104 258 104 258 120 258 c 256,22,23
 136 258 136 258 148 244 c 0,24,25
 159 230 159 230 160 212 c 256,26,27
 160 193 160 193 148 180 c 0,28,29
 136 166 136 166 120 166 c 1,30,-1
 120 166 l 1,16,17
520 166 m 1,31,32
 504 166 504 166 491 180 c 0,33,34
 479.923076923 192.923076923 479.923076923 192.923076923 479.923076923 209.25443787 c 0,35,36
 479.923076923 229.902097902 479.923076923 229.902097902 491 244 c 0,37,38
 503 258 503 258 520 258 c 0,39,40
 536 258 536 258 548 244 c 128,-1,41
 560 230 560 230 560 212 c 256,42,43
 560 193 560 193 548 180 c 0,44,45
 536 166 536 166 520 166 c 1,46,-1
 520 166 l 1,31,32
600 166 m 1,47,48
 584 166 584 166 572 180 c 128,-1,49
 560 194 560 194 560 212 c 256,50,51
 560 230 560 230 572 244 c 128,-1,52
 584 258 584 258 600 258 c 256,53,54
 616 258 616 258 628 244 c 128,-1,55
 640 230 640 230 640 212 c 256,56,57
 640 193 640 193 628 180 c 0,58,59
 616 166 616 166 600 166 c 1,60,-1
 600 166 l 1,47,48
40 333 m 1,61,62
 38.9333333333 332.933333333 38.9333333333 332.933333333 37.88 332.933333333 c 0,63,64
 23.1333333333 332.933333333 23.1333333333 332.933333333 11 346 c 0,65,66
 0 360 0 360 0 379 c 256,67,68
 0 398 0 398 11 411 c 0,69,70
 23 424 23 424 40 424 c 256,71,72
 56 424 56 424 68 411 c 0,73,74
 80 397 80 397 80 379 c 256,75,76
 80 360 80 360 68 346 c 0,77,78
 56.8 332.933333333 56.8 332.933333333 42.1155555556 332.933333333 c 0,79,80
 41.0666666667 332.933333333 41.0666666667 332.933333333 40 333 c 1,81,-1
 40 333 l 1,61,62
120 333 m 1,82,83
 118.933333333 332.933333333 118.933333333 332.933333333 117.884444444 332.933333333 c 0,84,85
 103.2 332.933333333 103.2 332.933333333 92 346 c 0,86,87
 80 360 80 360 80 379 c 256,88,89
 80 398 80 398 92 411 c 128,-1,90
 104 424 104 424 120 424 c 256,91,92
 136 424 136 424 148 411 c 0,93,94
 159 397 159 397 160 379 c 256,95,96
 160 360 160 360 148 346 c 0,97,98
 136.8 332.933333333 136.8 332.933333333 122.115555556 332.933333333 c 0,99,100
 121.066666667 332.933333333 121.066666667 332.933333333 120 333 c 1,101,-1
 120 333 l 1,82,83
520 333 m 1,102,103
 518.933333333 332.933333333 518.933333333 332.933333333 517.88 332.933333333 c 0,104,105
 503.133333333 332.933333333 503.133333333 332.933333333 491 346 c 0,106,107
 479.923076923 358.923076923 479.923076923 358.923076923 479.923076923 376.106508876 c 0,108,109
 479.923076923 397.909090909 479.923076923 397.909090909 491 411 c 0,110,111
 503 424 503 424 520 424 c 0,112,113
 536 424 536 424 548 411 c 0,114,115
 560 397 560 397 560 379 c 256,116,117
 560 360 560 360 548 346 c 0,118,119
 536.8 332.933333333 536.8 332.933333333 522.115555556 332.933333333 c 0,120,121
 521.066666667 332.933333333 521.066666667 332.933333333 520 333 c 1,122,-1
 520 333 l 1,102,103
600 333 m 1,123,124
 598.933333333 332.933333333 598.933333333 332.933333333 597.884444444 332.933333333 c 0,125,126
 583.2 332.933333333 583.2 332.933333333 572 346 c 0,127,128
 560 360 560 360 560 379 c 256,129,130
 560 398 560 398 572 411 c 128,-1,131
 584 424 584 424 600 424 c 256,132,133
 616 424 616 424 628 411 c 0,134,135
 640 397 640 397 640 379 c 256,136,137
 640 360 640 360 628 346 c 0,138,139
 616.8 332.933333333 616.8 332.933333333 602.115555556 332.933333333 c 0,140,141
 601.066666667 332.933333333 601.066666667 332.933333333 600 333 c 1,142,-1
 600 333 l 1,123,124
200 0 m 1,143,144
 184 0 184 0 172 14 c 128,-1,145
 160 28 160 28 160 46 c 0,146,147
 160 65 160 65 172 78 c 0,148,149
 177 84 177 84 183 87 c 1,150,-1
 183 87 l 1,151,152
 177 90 177 90 172 97 c 0,153,154
 160 111 160 111 160 129 c 256,155,156
 160 148 160 148 172 161 c 0,157,158
 177 167 177 167 183 171 c 1,159,-1
 183 171 l 1,160,161
 177 174 177 174 172 180 c 0,162,163
 160 194 160 194 160 212 c 256,164,165
 160 230 160 230 172 244 c 0,166,167
 177 250 177 250 183 254 c 1,168,-1
 183 254 l 1,169,170
 177 257 177 257 172 263 c 0,171,172
 160 278 160 278 160 296 c 0,173,174
 160 316 160 316 172 328 c 0,175,176
 177 334 177 334 183 338 c 1,177,-1
 183 338 l 1,178,179
 177 340 177 340 172 346 c 0,180,181
 160 360 160 360 160 379 c 256,182,183
 160 398 160 398 172 411 c 0,184,185
 177 417 177 417 183 421 c 1,186,-1
 183 421 l 1,187,188
 177 424 177 424 172 430 c 0,189,190
 160 444 160 444 160 462 c 0,191,192
 160 481 160 481 172 495 c 0,193,194
 177 501 177 501 183 504 c 1,195,-1
 183 504 l 1,196,197
 177 507 177 507 172 513 c 0,198,199
 160 527 160 527 160 546 c 256,200,201
 160 565 160 565 172 578 c 0,202,203
 184 592 184 592 200 592 c 128,-1,204
 216 592 216 592 228 578 c 128,-1,205
 240 564 240 564 240 546 c 256,206,207
 240 527 240 527 228 513 c 0,208,209
 223 507 223 507 217 504 c 1,210,-1
 217 504 l 1,211,212
 223 501 223 501 228 495 c 0,213,214
 240 481 240 481 240 462 c 128,-1,215
 240 443 240 443 228 430 c 0,216,217
 223 424 223 424 217 421 c 1,218,-1
 217 421 l 1,219,220
 223 418 223 418 228 411 c 0,221,222
 240 397 240 397 240 379 c 256,223,224
 240 360 240 360 228 346 c 0,225,226
 223 340 223 340 217 338 c 1,227,-1
 217 338 l 1,228,229
 223 334 223 334 228 328 c 0,230,231
 240 314 240 314 240 296 c 0,232,233
 240 277 240 277 228 263 c 0,234,235
 223 257 223 257 217 254 c 1,236,-1
 217 254 l 1,237,238
 223 250 223 250 228 244 c 0,239,240
 240 230 240 230 240 212 c 256,241,242
 240 193 240 193 228 180 c 0,243,244
 223 174 223 174 217 171 c 1,245,-1
 217 171 l 1,246,247
 223 168 223 168 228 161 c 0,248,249
 240 147 240 147 240 129 c 256,250,251
 240 110 240 110 228 97 c 0,252,253
 223 91 223 91 217 87 c 1,254,-1
 217 87 l 1,255,256
 223 84 223 84 228 78 c 0,257,258
 240 64 240 64 240 46 c 128,-1,259
 240 28 240 28 228 14 c 128,-1,260
 216 0 216 0 200 0 c 1,261,-1
 200 0 l 1,143,144
280 0 m 1,262,263
 264 0 264 0 251 14 c 0,264,265
 239.923076923 26.9230769231 239.923076923 26.9230769231 239.923076923 43.2544378698 c 0,266,267
 239.923076923 64.9090909091 239.923076923 64.9090909091 251 78 c 0,268,269
 256 84 256 84 263 87 c 1,270,-1
 263 87 l 1,271,272
 257 90 257 90 251 97 c 0,273,274
 239.923076923 109.923076923 239.923076923 109.923076923 239.923076923 126.25443787 c 0,275,276
 239.923076923 147.909090909 239.923076923 147.909090909 251 161 c 0,277,278
 256 167 256 167 263 171 c 1,279,-1
 263 171 l 1,280,281
 257 174 257 174 251 180 c 0,282,283
 239.923076923 192.923076923 239.923076923 192.923076923 239.923076923 209.25443787 c 0,284,285
 239.923076923 229.902097902 239.923076923 229.902097902 251 244 c 0,286,287
 256 250 256 250 263 254 c 1,288,-1
 263 254 l 1,289,290
 257 257 257 257 251 263 c 0,291,292
 239.923076923 276.846153846 239.923076923 276.846153846 239.923076923 293.24852071 c 0,293,294
 239.923076923 315.916083916 239.923076923 315.916083916 251 328 c 0,295,296
 256 334 256 334 263 338 c 1,297,-1
 263 338 l 1,298,299
 257 340 257 340 251 346 c 0,300,301
 239.923076923 358.923076923 239.923076923 358.923076923 239.923076923 376.106508876 c 0,302,303
 239.923076923 397.909090909 239.923076923 397.909090909 251 411 c 0,304,305
 256 417 256 417 263 421 c 1,306,-1
 263 421 l 1,307,308
 257 424 257 424 251 430 c 0,309,310
 239.923076923 442.923076923 239.923076923 442.923076923 239.923076923 459.25443787 c 0,311,312
 239.923076923 480.902097902 239.923076923 480.902097902 251 495 c 0,313,314
 256 501 256 501 263 504 c 1,315,-1
 263 504 l 1,316,317
 257 507 257 507 251 513 c 0,318,319
 239.923076923 525.923076923 239.923076923 525.923076923 239.923076923 543.106508876 c 0,320,321
 239.923076923 564.909090909 239.923076923 564.909090909 251 578 c 0,322,323
 263 592 263 592 280 592 c 256,324,325
 296 592 296 592 308 578 c 128,-1,326
 320 564 320 564 320 546 c 256,327,328
 320 527 320 527 308 513 c 0,329,330
 303 507 303 507 297 504 c 1,331,-1
 297 504 l 1,332,333
 303 501 303 501 308 495 c 0,334,335
 320 481 320 481 320 462 c 128,-1,336
 320 443 320 443 308 430 c 0,337,338
 303 424 303 424 297 421 c 1,339,-1
 297 421 l 1,340,341
 303 418 303 418 308 411 c 0,342,343
 320 397 320 397 320 379 c 256,344,345
 320 360 320 360 308 346 c 0,346,347
 303 340 303 340 297 338 c 1,348,-1
 297 338 l 1,349,350
 303 334 303 334 308 328 c 0,351,352
 320 314 320 314 320 296 c 0,353,354
 320 277 320 277 308 263 c 0,355,356
 303 257 303 257 297 254 c 1,357,-1
 297 254 l 1,358,359
 303 250 303 250 308 244 c 0,360,361
 320 230 320 230 320 212 c 256,362,363
 320 193 320 193 308 180 c 0,364,365
 303 174 303 174 297 171 c 1,366,-1
 297 171 l 1,367,368
 303 168 303 168 308 161 c 0,369,370
 320 147 320 147 320 129 c 256,371,372
 320 110 320 110 308 97 c 0,373,374
 303 91 303 91 297 87 c 1,375,-1
 297 87 l 1,376,377
 303 84 303 84 308 78 c 0,378,379
 320 64 320 64 320 46 c 128,-1,380
 320 28 320 28 308 14 c 128,-1,381
 296 0 296 0 280 0 c 1,382,-1
 280 0 l 1,262,263
360 0 m 1,383,384
 344 0 344 0 332 14 c 128,-1,385
 320 28 320 28 320 46 c 0,386,387
 320 65 320 65 332 78 c 0,388,389
 337 84 337 84 343 87 c 1,390,-1
 343 87 l 1,391,392
 338 90 338 90 332 97 c 0,393,394
 320 111 320 111 320 129 c 256,395,396
 320 148 320 148 332 161 c 0,397,398
 337 167 337 167 343 171 c 1,399,-1
 343 171 l 1,400,401
 338 174 338 174 332 180 c 0,402,403
 320 194 320 194 320 212 c 256,404,405
 320 230 320 230 332 244 c 0,406,407
 337 250 337 250 343 254 c 1,408,-1
 343 254 l 1,409,410
 338 257 338 257 332 263 c 0,411,412
 320 278 320 278 320 296 c 0,413,414
 320 316 320 316 332 328 c 0,415,416
 337 334 337 334 343 338 c 1,417,-1
 343 338 l 1,418,419
 338 340 338 340 332 346 c 0,420,421
 320 360 320 360 320 379 c 256,422,423
 320 398 320 398 332 411 c 0,424,425
 337 417 337 417 343 421 c 1,426,-1
 343 421 l 1,427,428
 338 424 338 424 332 430 c 0,429,430
 320 444 320 444 320 462 c 0,431,432
 320 481 320 481 332 495 c 0,433,434
 337 501 337 501 343 504 c 1,435,-1
 343 504 l 1,436,437
 338 507 338 507 332 513 c 0,438,439
 320 527 320 527 320 546 c 256,440,441
 320 565 320 565 332 578 c 0,442,443
 344 592 344 592 360 592 c 128,-1,444
 376 592 376 592 388 578 c 128,-1,445
 400 564 400 564 400 546 c 256,446,447
 400 527 400 527 388 513 c 0,448,449
 382 507 382 507 376 504 c 1,450,-1
 376 504 l 1,451,452
 382 501 382 501 388 495 c 0,453,454
 400 481 400 481 400 462 c 128,-1,455
 400 443 400 443 388 430 c 0,456,457
 382 424 382 424 376 421 c 1,458,-1
 376 421 l 1,459,460
 382 418 382 418 388 411 c 0,461,462
 400 397 400 397 400 379 c 256,463,464
 400 360 400 360 388 346 c 0,465,466
 382 340 382 340 376 338 c 1,467,-1
 376 338 l 1,468,469
 382 334 382 334 388 328 c 0,470,471
 400 314 400 314 400 296 c 0,472,473
 400 277 400 277 388 263 c 0,474,475
 382 257 382 257 376 254 c 1,476,-1
 376 254 l 1,477,478
 382 250 382 250 388 244 c 0,479,480
 400 230 400 230 400 212 c 256,481,482
 400 193 400 193 388 180 c 0,483,484
 382 174 382 174 376 171 c 1,485,-1
 376 171 l 1,486,487
 382 168 382 168 388 161 c 0,488,489
 400 147 400 147 400 129 c 256,490,491
 400 110 400 110 388 97 c 0,492,493
 382 91 382 91 376 87 c 1,494,-1
 376 87 l 1,495,496
 382 84 382 84 388 78 c 0,497,498
 400 64 400 64 400 46 c 128,-1,499
 400 28 400 28 388 14 c 128,-1,500
 376 0 376 0 360 0 c 1,501,-1
 360 0 l 1,383,384
440 0 m 1,502,503
 424 0 424 0 412 14 c 128,-1,504
 400 28 400 28 400 46 c 0,505,506
 400 65 400 65 412 78 c 0,507,508
 417 84 417 84 423 87 c 1,509,-1
 423 87 l 1,510,511
 417 90 417 90 412 97 c 0,512,513
 400 111 400 111 400 129 c 256,514,515
 400 148 400 148 412 161 c 0,516,517
 417 167 417 167 423 171 c 1,518,-1
 423 171 l 1,519,520
 417 174 417 174 412 180 c 0,521,522
 400 194 400 194 400 212 c 256,523,524
 400 230 400 230 412 244 c 0,525,526
 417 250 417 250 423 254 c 1,527,-1
 423 254 l 1,528,529
 417 257 417 257 412 263 c 0,530,531
 400 278 400 278 400 296 c 0,532,533
 400 316 400 316 412 328 c 0,534,535
 417 334 417 334 423 338 c 1,536,-1
 423 338 l 1,537,538
 417 340 417 340 412 346 c 0,539,540
 400 360 400 360 400 379 c 256,541,542
 400 398 400 398 412 411 c 0,543,544
 417 417 417 417 423 421 c 1,545,-1
 423 421 l 1,546,547
 417 424 417 424 412 430 c 0,548,549
 400 444 400 444 400 462 c 0,550,551
 400 481 400 481 412 495 c 0,552,553
 417 501 417 501 423 504 c 1,554,-1
 423 504 l 1,555,556
 417 507 417 507 412 513 c 0,557,558
 400 527 400 527 400 546 c 256,559,560
 400 565 400 565 412 578 c 0,561,562
 424 592 424 592 440 592 c 256,563,564
 456 592 456 592 468 578 c 128,-1,565
 480 564 480 564 480 546 c 256,566,567
 480 527 480 527 468 513 c 0,568,569
 463 507 463 507 457 504 c 1,570,-1
 457 504 l 1,571,572
 463 501 463 501 468 495 c 0,573,574
 480 481 480 481 480 462 c 128,-1,575
 480 443 480 443 468 430 c 0,576,577
 463 424 463 424 457 421 c 1,578,-1
 457 421 l 1,579,580
 463 418 463 418 468 411 c 0,581,582
 480 397 480 397 480 379 c 256,583,584
 480 360 480 360 468 346 c 0,585,586
 463 340 463 340 457 338 c 1,587,-1
 457 338 l 1,588,589
 463 334 463 334 468 328 c 0,590,591
 480 314 480 314 480 296 c 0,592,593
 480 277 480 277 468 263 c 0,594,595
 463 257 463 257 457 254 c 1,596,-1
 457 254 l 1,597,598
 463 250 463 250 468 244 c 0,599,600
 480 230 480 230 480 212 c 256,601,602
 480 193 480 193 468 180 c 0,603,604
 463 174 463 174 457 171 c 1,605,-1
 457 171 l 1,606,607
 463 168 463 168 468 161 c 0,608,609
 480 147 480 147 480 129 c 256,610,611
 480 110 480 110 468 97 c 0,612,613
 463 91 463 91 457 87 c 1,614,-1
 457 87 l 1,615,616
 463 84 463 84 468 78 c 0,617,618
 480 64 480 64 480 46 c 128,-1,619
 480 28 480 28 468 14 c 128,-1,620
 456 0 456 0 440 0 c 1,621,-1
 440 0 l 1,502,503
EndSplineSet
EndChar

StartChar: dollar
Encoding: 36 36 4
Width: 720
VWidth: 750
Flags: W
LayerCount: 2
Fore
SplineSet
120 83 m 1,0,1
 104 83 104 83 92 97 c 128,-1,2
 80 111 80 111 80 129 c 256,3,4
 80 148 80 148 92 161 c 0,5,6
 104 175 104 175 120 175 c 256,7,8
 136 175 136 175 148 161 c 0,9,10
 159 147 159 147 160 129 c 256,11,12
 160 110 160 110 148 97 c 0,13,14
 136 83 136 83 120 83 c 1,15,-1
 120 83 l 1,0,1
200 83 m 1,16,17
 184 83 184 83 172 97 c 128,-1,18
 160 111 160 111 160 129 c 256,19,20
 160 148 160 148 172 161 c 0,21,22
 184 175 184 175 200 175 c 128,-1,23
 216 175 216 175 228 161 c 128,-1,24
 240 147 240 147 240 129 c 256,25,26
 240 110 240 110 228 97 c 0,27,28
 216 83 216 83 200 83 c 1,29,-1
 200 83 l 1,16,17
440 83 m 1,30,31
 424 83 424 83 412 97 c 128,-1,32
 400 111 400 111 400 129 c 256,33,34
 400 148 400 148 412 161 c 0,35,36
 424 175 424 175 440 175 c 256,37,38
 456 175 456 175 468 161 c 128,-1,39
 480 147 480 147 480 129 c 256,40,41
 480 110 480 110 468 97 c 0,42,43
 456 83 456 83 440 83 c 1,44,-1
 440 83 l 1,30,31
600 166 m 1,45,46
 584 166 584 166 572 180 c 128,-1,47
 560 194 560 194 560 212 c 256,48,49
 560 230 560 230 572 244 c 128,-1,50
 584 258 584 258 600 258 c 256,51,52
 616 258 616 258 628 244 c 128,-1,53
 640 230 640 230 640 212 c 256,54,55
 640 193 640 193 628 180 c 0,56,57
 616 166 616 166 600 166 c 1,58,-1
 600 166 l 1,45,46
200 250 m 1,59,60
 184 250 184 250 172 263 c 256,61,62
 160 278 160 278 160 296 c 0,63,64
 160 316 160 316 172 328 c 0,65,66
 183.2 341.066666667 183.2 341.066666667 197.884444444 341.066666667 c 0,67,68
 198.933333333 341.066666667 198.933333333 341.066666667 200 341 c 128,-1,69
 201.066666667 341.066666667 201.066666667 341.066666667 202.115555556 341.066666667 c 0,70,71
 216.8 341.066666667 216.8 341.066666667 228 328 c 0,72,73
 240 314 240 314 240 296 c 0,74,75
 240 277 240 277 228 263 c 256,76,77
 216.8 249.933333333 216.8 249.933333333 202.115555556 249.933333333 c 0,78,79
 201.066666667 249.933333333 201.066666667 249.933333333 200 250 c 1,80,-1
 200 250 l 1,59,60
440 250 m 1,81,82
 424 250 424 250 412 263 c 256,83,84
 400 278 400 278 400 296 c 0,85,86
 400 316 400 316 412 328 c 0,87,88
 423.2 341.066666667 423.2 341.066666667 437.884444444 341.066666667 c 0,89,90
 438.933333333 341.066666667 438.933333333 341.066666667 440 341 c 256,91,92
 441.066666667 341.066666667 441.066666667 341.066666667 442.115555556 341.066666667 c 0,93,94
 456.8 341.066666667 456.8 341.066666667 468 328 c 0,95,96
 480 314 480 314 480 296 c 0,97,98
 480 277 480 277 468 263 c 256,99,100
 456.8 249.933333333 456.8 249.933333333 442.115555556 249.933333333 c 0,101,102
 441.066666667 249.933333333 441.066666667 249.933333333 440 250 c 1,103,-1
 440 250 l 1,81,82
520 83 m 1,104,105
 504 83 504 83 491 97 c 0,106,107
 479.923076923 109.923076923 479.923076923 109.923076923 479.923076923 126.25443787 c 0,108,109
 479.923076923 147.909090909 479.923076923 147.909090909 491 161 c 0,110,111
 496 167 496 167 502 171 c 1,112,-1
 502 171 l 1,113,114
 496 174 496 174 491 180 c 0,115,116
 479.923076923 192.923076923 479.923076923 192.923076923 479.923076923 209.25443787 c 0,117,118
 479.923076923 229.902097902 479.923076923 229.902097902 491 244 c 0,119,120
 496 250 496 250 502 254 c 1,121,-1
 502 254 l 1,122,123
 496 257 496 257 491 263 c 0,124,125
 479.923076923 276.846153846 479.923076923 276.846153846 479.923076923 293.24852071 c 0,126,127
 479.923076923 315.916083916 479.923076923 315.916083916 491 328 c 0,128,129
 502.2 341.066666667 502.2 341.066666667 517.755555556 341.066666667 c 0,130,131
 518.866666667 341.066666667 518.866666667 341.066666667 520 341 c 128,-1,132
 521.066666667 341.066666667 521.066666667 341.066666667 522.115555556 341.066666667 c 0,133,134
 536.8 341.066666667 536.8 341.066666667 548 328 c 0,135,136
 560 314 560 314 560 296 c 0,137,138
 560 277 560 277 548 263 c 0,139,140
 543 257 543 257 537 254 c 1,141,-1
 537 254 l 1,142,143
 543 250 543 250 548 244 c 0,144,145
 560 230 560 230 560 212 c 256,146,147
 560 193 560 193 548 180 c 0,148,149
 543 174 543 174 537 171 c 1,150,-1
 537 171 l 1,151,152
 543 168 543 168 548 161 c 0,153,154
 560 147 560 147 560 129 c 256,155,156
 560 110 560 110 548 97 c 0,157,158
 536 83 536 83 520 83 c 1,159,-1
 520 83 l 1,104,105
40 333 m 1,160,161
 38.9333333333 332.933333333 38.9333333333 332.933333333 37.88 332.933333333 c 0,162,163
 23.1333333333 332.933333333 23.1333333333 332.933333333 11 346 c 0,164,165
 0 360 0 360 0 379 c 256,166,167
 0 398 0 398 11 411 c 0,168,169
 23 424 23 424 40 424 c 256,170,171
 56 424 56 424 68 411 c 0,172,173
 80 397 80 397 80 379 c 256,174,175
 80 360 80 360 68 346 c 0,176,177
 56.8 332.933333333 56.8 332.933333333 42.1155555556 332.933333333 c 0,178,179
 41.0666666667 332.933333333 41.0666666667 332.933333333 40 333 c 1,180,-1
 40 333 l 1,160,161
120 250 m 1,181,182
 104 250 104 250 92 263 c 256,183,184
 80 278 80 278 80 296 c 0,185,186
 80 316 80 316 92 328 c 0,187,188
 97 334 97 334 103 338 c 1,189,-1
 103 338 l 1,190,191
 98 340 98 340 92 346 c 0,192,193
 80 360 80 360 80 379 c 256,194,195
 80 398 80 398 92 411 c 0,196,197
 97 417 97 417 103 421 c 1,198,-1
 103 421 l 1,199,200
 98 424 98 424 92 430 c 0,201,202
 80 444 80 444 80 462 c 0,203,204
 80 481 80 481 92 495 c 256,205,206
 104 508 104 508 120 508 c 256,207,208
 136 508 136 508 148 495 c 0,209,210
 159 481 159 481 160 462 c 0,211,212
 160 443 160 443 148 430 c 0,213,214
 143 424 143 424 137 421 c 1,215,-1
 137 421 l 1,216,217
 142 418 142 418 148 411 c 0,218,219
 159 397 159 397 160 379 c 256,220,221
 160 360 160 360 148 346 c 0,222,223
 143 340 143 340 137 338 c 1,224,-1
 137 338 l 1,225,226
 142 334 142 334 148 328 c 0,227,228
 159 314 159 314 160 296 c 0,229,230
 160 277 160 277 148 263 c 0,231,232
 136.8 249.933333333 136.8 249.933333333 122.115555556 249.933333333 c 0,233,234
 121.066666667 249.933333333 121.066666667 249.933333333 120 250 c 1,235,-1
 120 250 l 1,181,182
200 416 m 1,236,237
 184 416 184 416 172 430 c 256,238,239
 160 444 160 444 160 462 c 0,240,241
 160 481 160 481 172 495 c 256,242,243
 184 508 184 508 200 508 c 128,-1,244
 216 508 216 508 228 495 c 256,245,246
 240 481 240 481 240 462 c 128,-1,247
 240 443 240 443 228 430 c 256,248,249
 216 416 216 416 200 416 c 1,250,-1
 200 416 l 1,236,237
440 416 m 1,251,252
 424 416 424 416 412 430 c 256,253,254
 400 444 400 444 400 462 c 0,255,256
 400 481 400 481 412 495 c 256,257,258
 424 508 424 508 440 508 c 256,259,260
 456 508 456 508 468 495 c 256,261,262
 480 481 480 481 480 462 c 128,-1,263
 480 443 480 443 468 430 c 256,264,265
 456 416 456 416 440 416 c 1,266,-1
 440 416 l 1,251,252
520 416 m 1,267,268
 504 416 504 416 491 430 c 256,269,270
 479.923076923 442.923076923 479.923076923 442.923076923 479.923076923 459.25443787 c 0,271,272
 479.923076923 480.902097902 479.923076923 480.902097902 491 495 c 256,273,274
 503 508 503 508 520 508 c 0,275,276
 536 508 536 508 548 495 c 256,277,278
 560 481 560 481 560 462 c 128,-1,279
 560 443 560 443 548 430 c 256,280,281
 536 416 536 416 520 416 c 1,282,-1
 520 416 l 1,267,268
280 0 m 1,283,284
 264 0 264 0 251 14 c 0,285,286
 239.923076923 26.9230769231 239.923076923 26.9230769231 239.923076923 43.2544378698 c 0,287,288
 239.923076923 64.9090909091 239.923076923 64.9090909091 251 78 c 0,289,290
 256 84 256 84 263 87 c 1,291,-1
 263 87 l 1,292,293
 257 90 257 90 251 97 c 0,294,295
 239.923076923 109.923076923 239.923076923 109.923076923 239.923076923 126.25443787 c 0,296,297
 239.923076923 147.909090909 239.923076923 147.909090909 251 161 c 0,298,299
 256 167 256 167 263 171 c 1,300,-1
 263 171 l 1,301,302
 257 174 257 174 251 180 c 0,303,304
 239.923076923 192.923076923 239.923076923 192.923076923 239.923076923 209.25443787 c 0,305,306
 239.923076923 229.902097902 239.923076923 229.902097902 251 244 c 0,307,308
 256 250 256 250 263 254 c 1,309,-1
 263 254 l 1,310,311
 257 257 257 257 251 263 c 0,312,313
 239.923076923 276.846153846 239.923076923 276.846153846 239.923076923 293.24852071 c 0,314,315
 239.923076923 315.916083916 239.923076923 315.916083916 251 328 c 0,316,317
 256 334 256 334 263 338 c 1,318,-1
 263 338 l 1,319,320
 257 340 257 340 251 346 c 0,321,322
 239.923076923 358.923076923 239.923076923 358.923076923 239.923076923 376.106508876 c 0,323,324
 239.923076923 397.909090909 239.923076923 397.909090909 251 411 c 0,325,326
 256 417 256 417 263 421 c 1,327,-1
 263 421 l 1,328,329
 257 424 257 424 251 430 c 0,330,331
 239.923076923 442.923076923 239.923076923 442.923076923 239.923076923 459.25443787 c 0,332,333
 239.923076923 480.902097902 239.923076923 480.902097902 251 495 c 0,334,335
 256 501 256 501 263 504 c 1,336,-1
 263 504 l 1,337,338
 257 507 257 507 251 513 c 0,339,340
 239.923076923 525.923076923 239.923076923 525.923076923 239.923076923 543.106508876 c 0,341,342
 239.923076923 564.909090909 239.923076923 564.909090909 251 578 c 0,343,344
 263 592 263 592 280 592 c 256,345,346
 296 592 296 592 308 578 c 128,-1,347
 320 564 320 564 320 546 c 256,348,349
 320 527 320 527 308 513 c 0,350,351
 303 507 303 507 297 504 c 1,352,-1
 297 504 l 1,353,354
 303 501 303 501 308 495 c 0,355,356
 320 481 320 481 320 462 c 128,-1,357
 320 443 320 443 308 430 c 0,358,359
 303 424 303 424 297 421 c 1,360,-1
 297 421 l 1,361,362
 303 418 303 418 308 411 c 0,363,364
 320 397 320 397 320 379 c 256,365,366
 320 360 320 360 308 346 c 0,367,368
 303 340 303 340 297 338 c 1,369,-1
 297 338 l 1,370,371
 303 334 303 334 308 328 c 0,372,373
 320 314 320 314 320 296 c 0,374,375
 320 277 320 277 308 263 c 0,376,377
 303 257 303 257 297 254 c 1,378,-1
 297 254 l 1,379,380
 303 250 303 250 308 244 c 0,381,382
 320 230 320 230 320 212 c 256,383,384
 320 193 320 193 308 180 c 0,385,386
 303 174 303 174 297 171 c 1,387,-1
 297 171 l 1,388,389
 303 168 303 168 308 161 c 0,390,391
 320 147 320 147 320 129 c 256,392,393
 320 110 320 110 308 97 c 0,394,395
 303 91 303 91 297 87 c 1,396,-1
 297 87 l 1,397,398
 303 84 303 84 308 78 c 0,399,400
 320 64 320 64 320 46 c 128,-1,401
 320 28 320 28 308 14 c 128,-1,402
 296 0 296 0 280 0 c 1,403,-1
 280 0 l 1,283,284
360 0 m 1,404,405
 344 0 344 0 332 14 c 128,-1,406
 320 28 320 28 320 46 c 0,407,408
 320 65 320 65 332 78 c 0,409,410
 337 84 337 84 343 87 c 1,411,-1
 343 87 l 1,412,413
 338 90 338 90 332 97 c 0,414,415
 320 111 320 111 320 129 c 256,416,417
 320 148 320 148 332 161 c 0,418,419
 337 167 337 167 343 171 c 1,420,-1
 343 171 l 1,421,422
 338 174 338 174 332 180 c 0,423,424
 320 194 320 194 320 212 c 256,425,426
 320 230 320 230 332 244 c 0,427,428
 337 250 337 250 343 254 c 1,429,-1
 343 254 l 1,430,431
 338 257 338 257 332 263 c 0,432,433
 320 278 320 278 320 296 c 0,434,435
 320 316 320 316 332 328 c 0,436,437
 337 334 337 334 343 338 c 1,438,-1
 343 338 l 1,439,440
 338 340 338 340 332 346 c 0,441,442
 320 360 320 360 320 379 c 256,443,444
 320 398 320 398 332 411 c 0,445,446
 337 417 337 417 343 421 c 1,447,-1
 343 421 l 1,448,449
 338 424 338 424 332 430 c 0,450,451
 320 444 320 444 320 462 c 0,452,453
 320 481 320 481 332 495 c 0,454,455
 337 501 337 501 343 504 c 1,456,-1
 343 504 l 1,457,458
 338 507 338 507 332 513 c 0,459,460
 320 527 320 527 320 546 c 256,461,462
 320 565 320 565 332 578 c 0,463,464
 344 592 344 592 360 592 c 128,-1,465
 376 592 376 592 388 578 c 128,-1,466
 400 564 400 564 400 546 c 256,467,468
 400 527 400 527 388 513 c 0,469,470
 382 507 382 507 376 504 c 1,471,-1
 376 504 l 1,472,473
 382 501 382 501 388 495 c 0,474,475
 400 481 400 481 400 462 c 128,-1,476
 400 443 400 443 388 430 c 0,477,478
 382 424 382 424 376 421 c 1,479,-1
 376 421 l 1,480,481
 382 418 382 418 388 411 c 0,482,483
 400 397 400 397 400 379 c 256,484,485
 400 360 400 360 388 346 c 0,486,487
 382 340 382 340 376 338 c 1,488,-1
 376 338 l 1,489,490
 382 334 382 334 388 328 c 0,491,492
 400 314 400 314 400 296 c 0,493,494
 400 277 400 277 388 263 c 0,495,496
 382 257 382 257 376 254 c 1,497,-1
 376 254 l 1,498,499
 382 250 382 250 388 244 c 0,500,501
 400 230 400 230 400 212 c 256,502,503
 400 193 400 193 388 180 c 0,504,505
 382 174 382 174 376 171 c 1,506,-1
 376 171 l 1,507,508
 382 168 382 168 388 161 c 0,509,510
 400 147 400 147 400 129 c 256,511,512
 400 110 400 110 388 97 c 0,513,514
 382 91 382 91 376 87 c 1,515,-1
 376 87 l 1,516,517
 382 84 382 84 388 78 c 0,518,519
 400 64 400 64 400 46 c 128,-1,520
 400 28 400 28 388 14 c 128,-1,521
 376 0 376 0 360 0 c 1,522,-1
 360 0 l 1,404,405
EndSplineSet
EndChar

StartChar: percent
Encoding: 37 37 5
Width: 720
VWidth: 750
Flags: W
LayerCount: 2
Fore
SplineSet
40 0 m 1,0,1
 24 0 24 0 11 14 c 0,2,3
 0 28 0 28 0 46 c 0,4,5
 0 65 0 65 11 78 c 0,6,7
 23 92 23 92 40 92 c 256,8,9
 56 92 56 92 68 78 c 256,10,11
 80 64 80 64 80 46 c 128,-1,12
 80 28 80 28 68 14 c 128,-1,13
 56 0 56 0 40 0 c 1,14,-1
 40 0 l 1,0,1
120 0 m 1,15,16
 104 0 104 0 92 14 c 128,-1,17
 80 28 80 28 80 46 c 0,18,19
 80 65 80 65 92 78 c 0,20,21
 97 84 97 84 103 87 c 1,22,-1
 103 87 l 1,23,24
 98 90 98 90 92 97 c 0,25,26
 80 111 80 111 80 129 c 256,27,28
 80 148 80 148 92 161 c 0,29,30
 104 175 104 175 120 175 c 256,31,32
 136 175 136 175 148 161 c 0,33,34
 159 147 159 147 160 129 c 256,35,36
 160 110 160 110 148 97 c 0,37,38
 143 91 143 91 137 87 c 1,39,-1
 137 87 l 1,40,41
 142 84 142 84 148 78 c 0,42,43
 159 64 159 64 160 46 c 0,44,45
 160 28 160 28 148 14 c 128,-1,46
 136 0 136 0 120 0 c 1,47,-1
 120 0 l 1,15,16
360 0 m 1,48,49
 344 0 344 0 332 14 c 128,-1,50
 320 28 320 28 320 46 c 0,51,52
 320 65 320 65 332 78 c 0,53,54
 337 84 337 84 343 87 c 1,55,-1
 343 87 l 1,56,57
 338 90 338 90 332 97 c 0,58,59
 320 111 320 111 320 129 c 256,60,61
 320 148 320 148 332 161 c 0,62,63
 344 175 344 175 360 175 c 128,-1,64
 376 175 376 175 388 161 c 128,-1,65
 400 147 400 147 400 129 c 256,66,67
 400 110 400 110 388 97 c 0,68,69
 382 91 382 91 376 87 c 1,70,-1
 376 87 l 1,71,72
 382 84 382 84 388 78 c 0,73,74
 400 64 400 64 400 46 c 128,-1,75
 400 28 400 28 388 14 c 128,-1,76
 376 0 376 0 360 0 c 1,77,-1
 360 0 l 1,48,49
440 0 m 1,78,79
 424 0 424 0 412 14 c 128,-1,80
 400 28 400 28 400 46 c 0,81,82
 400 65 400 65 412 78 c 0,83,84
 417 84 417 84 423 87 c 1,85,-1
 423 87 l 1,86,87
 417 90 417 90 412 97 c 0,88,89
 400 111 400 111 400 129 c 256,90,91
 400 148 400 148 412 161 c 0,92,93
 424 175 424 175 440 175 c 256,94,95
 456 175 456 175 468 161 c 128,-1,96
 480 147 480 147 480 129 c 256,97,98
 480 110 480 110 468 97 c 0,99,100
 463 91 463 91 457 87 c 1,101,-1
 457 87 l 1,102,103
 463 84 463 84 468 78 c 0,104,105
 480 64 480 64 480 46 c 128,-1,106
 480 28 480 28 468 14 c 128,-1,107
 456 0 456 0 440 0 c 1,108,-1
 440 0 l 1,78,79
520 0 m 1,109,110
 504 0 504 0 491 14 c 0,111,112
 479.923076923 26.9230769231 479.923076923 26.9230769231 479.923076923 43.2544378698 c 0,113,114
 479.923076923 64.9090909091 479.923076923 64.9090909091 491 78 c 0,115,116
 496 84 496 84 502 87 c 1,117,-1
 502 87 l 1,118,119
 496 90 496 90 491 97 c 0,120,121
 479.923076923 109.923076923 479.923076923 109.923076923 479.923076923 126.25443787 c 0,122,123
 479.923076923 147.909090909 479.923076923 147.909090909 491 161 c 0,124,125
 503 175 503 175 520 175 c 0,126,127
 536 175 536 175 548 161 c 128,-1,128
 560 147 560 147 560 129 c 256,129,130
 560 110 560 110 548 97 c 0,131,132
 543 91 543 91 537 87 c 1,133,-1
 537 87 l 1,134,135
 543 84 543 84 548 78 c 0,136,137
 560 64 560 64 560 46 c 128,-1,138
 560 28 560 28 548 14 c 128,-1,139
 536 0 536 0 520 0 c 1,140,-1
 520 0 l 1,109,110
600 0 m 1,141,142
 584 0 584 0 572 14 c 128,-1,143
 560 28 560 28 560 46 c 0,144,145
 560 65 560 65 572 78 c 0,146,147
 577 84 577 84 583 87 c 1,148,-1
 583 87 l 1,149,150
 578 90 578 90 572 97 c 0,151,152
 560 111 560 111 560 129 c 256,153,154
 560 148 560 148 572 161 c 0,155,156
 584 175 584 175 600 175 c 256,157,158
 616 175 616 175 628 161 c 128,-1,159
 640 147 640 147 640 129 c 256,160,161
 640 110 640 110 628 97 c 0,162,163
 622 91 622 91 616 87 c 1,164,-1
 616 87 l 1,165,166
 622 84 622 84 628 78 c 0,167,168
 640 64 640 64 640 46 c 128,-1,169
 640 28 640 28 628 14 c 128,-1,170
 616 0 616 0 600 0 c 1,171,-1
 600 0 l 1,141,142
200 83 m 1,172,173
 184 83 184 83 172 97 c 128,-1,174
 160 111 160 111 160 129 c 256,175,176
 160 148 160 148 172 161 c 0,177,178
 177 167 177 167 183 171 c 1,179,-1
 183 171 l 1,180,181
 177 174 177 174 172 180 c 0,182,183
 160 194 160 194 160 212 c 256,184,185
 160 230 160 230 172 244 c 128,-1,186
 184 258 184 258 200 258 c 128,-1,187
 216 258 216 258 228 244 c 128,-1,188
 240 230 240 230 240 212 c 256,189,190
 240 193 240 193 228 180 c 0,191,192
 223 174 223 174 217 171 c 1,193,-1
 217 171 l 1,194,195
 223 168 223 168 228 161 c 0,196,197
 240 147 240 147 240 129 c 256,198,199
 240 110 240 110 228 97 c 0,200,201
 216 83 216 83 200 83 c 1,202,-1
 200 83 l 1,172,173
280 166 m 1,203,204
 264 166 264 166 251 180 c 0,205,206
 239.923076923 192.923076923 239.923076923 192.923076923 239.923076923 209.25443787 c 0,207,208
 239.923076923 229.902097902 239.923076923 229.902097902 251 244 c 0,209,210
 256 250 256 250 263 254 c 1,211,-1
 263 254 l 1,212,213
 257 257 257 257 251 263 c 0,214,215
 239.923076923 276.846153846 239.923076923 276.846153846 239.923076923 293.24852071 c 0,216,217
 239.923076923 315.916083916 239.923076923 315.916083916 251 328 c 0,218,219
 262.2 341.066666667 262.2 341.066666667 277.755555556 341.066666667 c 0,220,221
 278.866666667 341.066666667 278.866666667 341.066666667 280 341 c 256,222,223
 281.066666667 341.066666667 281.066666667 341.066666667 282.115555556 341.066666667 c 0,224,225
 296.8 341.066666667 296.8 341.066666667 308 328 c 0,226,227
 320 314 320 314 320 296 c 0,228,229
 320 277 320 277 308 263 c 0,230,231
 303 257 303 257 297 254 c 1,232,-1
 297 254 l 1,233,234
 303 250 303 250 308 244 c 0,235,236
 320 230 320 230 320 212 c 256,237,238
 320 193 320 193 308 180 c 0,239,240
 296 166 296 166 280 166 c 1,241,-1
 280 166 l 1,203,204
360 250 m 1,242,243
 344 250 344 250 332 263 c 256,244,245
 320 278 320 278 320 296 c 0,246,247
 320 316 320 316 332 328 c 0,248,249
 337 334 337 334 343 338 c 1,250,-1
 343 338 l 1,251,252
 338 340 338 340 332 346 c 0,253,254
 320 360 320 360 320 379 c 256,255,256
 320 398 320 398 332 411 c 128,-1,257
 344 424 344 424 360 424 c 128,-1,258
 376 424 376 424 388 411 c 0,259,260
 400 397 400 397 400 379 c 256,261,262
 400 360 400 360 388 346 c 0,263,264
 382 340 382 340 376 338 c 1,265,-1
 376 338 l 1,266,267
 382 334 382 334 388 328 c 0,268,269
 400 314 400 314 400 296 c 0,270,271
 400 277 400 277 388 263 c 256,272,273
 376.8 249.933333333 376.8 249.933333333 362.115555556 249.933333333 c 0,274,275
 361.066666667 249.933333333 361.066666667 249.933333333 360 250 c 1,276,-1
 360 250 l 1,242,243
440 333 m 1,277,278
 438.933333333 332.933333333 438.933333333 332.933333333 437.884444444 332.933333333 c 0,279,280
 423.2 332.933333333 423.2 332.933333333 412 346 c 0,281,282
 400 360 400 360 400 379 c 256,283,284
 400 398 400 398 412 411 c 0,285,286
 417 417 417 417 423 421 c 1,287,-1
 423 421 l 1,288,289
 417 424 417 424 412 430 c 0,290,291
 400 444 400 444 400 462 c 0,292,293
 400 481 400 481 412 495 c 256,294,295
 424 508 424 508 440 508 c 256,296,297
 456 508 456 508 468 495 c 256,298,299
 480 481 480 481 480 462 c 128,-1,300
 480 443 480 443 468 430 c 0,301,302
 463 424 463 424 457 421 c 1,303,-1
 457 421 l 1,304,305
 463 418 463 418 468 411 c 0,306,307
 480 397 480 397 480 379 c 256,308,309
 480 360 480 360 468 346 c 0,310,311
 456.8 332.933333333 456.8 332.933333333 442.115555556 332.933333333 c 0,312,313
 441.066666667 332.933333333 441.066666667 332.933333333 440 333 c 1,314,-1
 440 333 l 1,277,278
40 416 m 1,315,316
 24 416 24 416 11 430 c 0,317,318
 0 444 0 444 0 462 c 0,319,320
 0 481 0 481 11 495 c 0,321,322
 16 501 16 501 22 504 c 1,323,-1
 22 504 l 1,324,325
 16 507 16 507 11 513 c 0,326,327
 0 527 0 527 0 546 c 256,328,329
 0 565 0 565 11 578 c 0,330,331
 23 592 23 592 40 592 c 256,332,333
 56 592 56 592 68 578 c 128,-1,334
 80 564 80 564 80 546 c 256,335,336
 80 527 80 527 68 513 c 0,337,338
 63 507 63 507 57 504 c 1,339,-1
 57 504 l 1,340,341
 63 501 63 501 68 495 c 0,342,343
 80 481 80 481 80 462 c 128,-1,344
 80 443 80 443 68 430 c 256,345,346
 56 416 56 416 40 416 c 1,347,-1
 40 416 l 1,315,316
120 416 m 1,348,349
 104 416 104 416 92 430 c 256,350,351
 80 444 80 444 80 462 c 0,352,353
 80 481 80 481 92 495 c 0,354,355
 97 501 97 501 103 504 c 1,356,-1
 103 504 l 1,357,358
 98 507 98 507 92 513 c 0,359,360
 80 527 80 527 80 546 c 256,361,362
 80 565 80 565 92 578 c 0,363,364
 104 592 104 592 120 592 c 256,365,366
 136 592 136 592 148 578 c 0,367,368
 159 564 159 564 160 546 c 256,369,370
 160 527 160 527 148 513 c 0,371,372
 143 507 143 507 137 504 c 1,373,-1
 137 504 l 1,374,375
 142 501 142 501 148 495 c 0,376,377
 159 481 159 481 160 462 c 0,378,379
 160 443 160 443 148 430 c 0,380,381
 136 416 136 416 120 416 c 1,382,-1
 120 416 l 1,348,349
200 416 m 1,383,384
 184 416 184 416 172 430 c 256,385,386
 160 444 160 444 160 462 c 0,387,388
 160 481 160 481 172 495 c 0,389,390
 177 501 177 501 183 504 c 1,391,-1
 183 504 l 1,392,393
 177 507 177 507 172 513 c 0,394,395
 160 527 160 527 160 546 c 256,396,397
 160 565 160 565 172 578 c 0,398,399
 184 592 184 592 200 592 c 128,-1,400
 216 592 216 592 228 578 c 128,-1,401
 240 564 240 564 240 546 c 256,402,403
 240 527 240 527 228 513 c 0,404,405
 223 507 223 507 217 504 c 1,406,-1
 217 504 l 1,407,408
 223 501 223 501 228 495 c 0,409,410
 240 481 240 481 240 462 c 128,-1,411
 240 443 240 443 228 430 c 256,412,413
 216 416 216 416 200 416 c 1,414,-1
 200 416 l 1,383,384
280 416 m 1,415,416
 264 416 264 416 251 430 c 256,417,418
 239.923076923 442.923076923 239.923076923 442.923076923 239.923076923 459.25443787 c 0,419,420
 239.923076923 480.902097902 239.923076923 480.902097902 251 495 c 0,421,422
 256 501 256 501 263 504 c 1,423,-1
 263 504 l 1,424,425
 257 507 257 507 251 513 c 0,426,427
 239.923076923 525.923076923 239.923076923 525.923076923 239.923076923 543.106508876 c 0,428,429
 239.923076923 564.909090909 239.923076923 564.909090909 251 578 c 0,430,431
 263 592 263 592 280 592 c 256,432,433
 296 592 296 592 308 578 c 128,-1,434
 320 564 320 564 320 546 c 256,435,436
 320 527 320 527 308 513 c 0,437,438
 303 507 303 507 297 504 c 1,439,-1
 297 504 l 1,440,441
 303 501 303 501 308 495 c 0,442,443
 320 481 320 481 320 462 c 128,-1,444
 320 443 320 443 308 430 c 256,445,446
 296 416 296 416 280 416 c 1,447,-1
 280 416 l 1,415,416
520 416 m 1,448,449
 504 416 504 416 491 430 c 256,450,451
 479.923076923 442.923076923 479.923076923 442.923076923 479.923076923 459.25443787 c 0,452,453
 479.923076923 480.902097902 479.923076923 480.902097902 491 495 c 0,454,455
 496 501 496 501 502 504 c 1,456,-1
 502 504 l 1,457,458
 496 507 496 507 491 513 c 0,459,460
 479.923076923 525.923076923 479.923076923 525.923076923 479.923076923 543.106508876 c 0,461,462
 479.923076923 564.909090909 479.923076923 564.909090909 491 578 c 0,463,464
 503 592 503 592 520 592 c 0,465,466
 536 592 536 592 548 578 c 128,-1,467
 560 564 560 564 560 546 c 256,468,469
 560 527 560 527 548 513 c 0,470,471
 543 507 543 507 537 504 c 1,472,-1
 537 504 l 1,473,474
 543 501 543 501 548 495 c 0,475,476
 560 481 560 481 560 462 c 128,-1,477
 560 443 560 443 548 430 c 256,478,479
 536 416 536 416 520 416 c 1,480,-1
 520 416 l 1,448,449
600 500 m 1,481,482
 584 500 584 500 572 513 c 0,483,484
 560 527 560 527 560 546 c 256,485,486
 560 565 560 565 572 578 c 0,487,488
 584 592 584 592 600 592 c 256,489,490
 616 592 616 592 628 578 c 128,-1,491
 640 564 640 564 640 546 c 256,492,493
 640 527 640 527 628 513 c 0,494,495
 616.8 499.933333333 616.8 499.933333333 602.115555556 499.933333333 c 0,496,497
 601.066666667 499.933333333 601.066666667 499.933333333 600 500 c 1,498,-1
 600 500 l 1,481,482
EndSplineSet
EndChar

StartChar: ampersand
Encoding: 38 38 6
Width: 720
VWidth: 750
Flags: W
LayerCount: 2
Fore
SplineSet
200 0 m 1,0,1
 184 0 184 0 172 14 c 128,-1,2
 160 28 160 28 160 46 c 0,3,4
 160 65 160 65 172 78 c 256,5,6
 184 92 184 92 200 92 c 128,-1,7
 216 92 216 92 228 78 c 256,8,9
 240 64 240 64 240 46 c 128,-1,10
 240 28 240 28 228 14 c 128,-1,11
 216 0 216 0 200 0 c 1,12,-1
 200 0 l 1,0,1
280 0 m 1,13,14
 264 0 264 0 251 14 c 0,15,16
 239.923076923 26.9230769231 239.923076923 26.9230769231 239.923076923 43.2544378698 c 0,17,18
 239.923076923 64.9090909091 239.923076923 64.9090909091 251 78 c 256,19,20
 263 92 263 92 280 92 c 256,21,22
 296 92 296 92 308 78 c 256,23,24
 320 64 320 64 320 46 c 128,-1,25
 320 28 320 28 308 14 c 128,-1,26
 296 0 296 0 280 0 c 1,27,-1
 280 0 l 1,13,14
360 0 m 1,28,29
 344 0 344 0 332 14 c 128,-1,30
 320 28 320 28 320 46 c 0,31,32
 320 65 320 65 332 78 c 256,33,34
 344 92 344 92 360 92 c 128,-1,35
 376 92 376 92 388 78 c 256,36,37
 400 64 400 64 400 46 c 128,-1,38
 400 28 400 28 388 14 c 128,-1,39
 376 0 376 0 360 0 c 1,40,-1
 360 0 l 1,28,29
600 0 m 1,41,42
 584 0 584 0 572 14 c 128,-1,43
 560 28 560 28 560 46 c 0,44,45
 560 65 560 65 572 78 c 256,46,47
 584 92 584 92 600 92 c 256,48,49
 616 92 616 92 628 78 c 256,50,51
 640 64 640 64 640 46 c 128,-1,52
 640 28 640 28 628 14 c 128,-1,53
 616 0 616 0 600 0 c 1,54,-1
 600 0 l 1,41,42
520 0 m 1,55,56
 504 0 504 0 491 14 c 0,57,58
 479.923076923 26.9230769231 479.923076923 26.9230769231 479.923076923 43.2544378698 c 0,59,60
 479.923076923 64.9090909091 479.923076923 64.9090909091 491 78 c 0,61,62
 496 84 496 84 502 87 c 1,63,-1
 502 87 l 1,64,65
 496 90 496 90 491 97 c 0,66,67
 479.923076923 109.923076923 479.923076923 109.923076923 479.923076923 126.25443787 c 0,68,69
 479.923076923 147.909090909 479.923076923 147.909090909 491 161 c 0,70,71
 503 175 503 175 520 175 c 0,72,73
 536 175 536 175 548 161 c 128,-1,74
 560 147 560 147 560 129 c 256,75,76
 560 110 560 110 548 97 c 0,77,78
 543 91 543 91 537 87 c 1,79,-1
 537 87 l 1,80,81
 543 84 543 84 548 78 c 0,82,83
 560 64 560 64 560 46 c 128,-1,84
 560 28 560 28 548 14 c 128,-1,85
 536 0 536 0 520 0 c 1,86,-1
 520 0 l 1,55,56
40 83 m 1,87,88
 24 83 24 83 11 97 c 0,89,90
 0 111 0 111 0 129 c 256,91,92
 0 148 0 148 11 161 c 0,93,94
 16 167 16 167 22 171 c 1,95,-1
 22 171 l 1,96,97
 16 174 16 174 11 180 c 0,98,99
 0 194 0 194 0 212 c 256,100,101
 0 230 0 230 11 244 c 0,102,103
 23 258 23 258 40 258 c 256,104,105
 56 258 56 258 68 244 c 128,-1,106
 80 230 80 230 80 212 c 256,107,108
 80 193 80 193 68 180 c 0,109,110
 63 174 63 174 57 171 c 1,111,-1
 57 171 l 1,112,113
 63 168 63 168 68 161 c 0,114,115
 80 147 80 147 80 129 c 256,116,117
 80 110 80 110 68 97 c 0,118,119
 56 83 56 83 40 83 c 1,120,-1
 40 83 l 1,87,88
440 83 m 1,121,122
 424 83 424 83 412 97 c 128,-1,123
 400 111 400 111 400 129 c 256,124,125
 400 148 400 148 412 161 c 0,126,127
 417 167 417 167 423 171 c 1,128,-1
 423 171 l 1,129,130
 417 174 417 174 412 180 c 0,131,132
 400 194 400 194 400 212 c 256,133,134
 400 230 400 230 412 244 c 128,-1,135
 424 258 424 258 440 258 c 256,136,137
 456 258 456 258 468 244 c 128,-1,138
 480 230 480 230 480 212 c 256,139,140
 480 193 480 193 468 180 c 0,141,142
 463 174 463 174 457 171 c 1,143,-1
 457 171 l 1,144,145
 463 168 463 168 468 161 c 0,146,147
 480 147 480 147 480 129 c 256,148,149
 480 110 480 110 468 97 c 0,150,151
 456 83 456 83 440 83 c 1,152,-1
 440 83 l 1,121,122
120 0 m 1,153,154
 104 0 104 0 92 14 c 128,-1,155
 80 28 80 28 80 46 c 0,156,157
 80 65 80 65 92 78 c 0,158,159
 97 84 97 84 103 87 c 1,160,-1
 103 87 l 1,161,162
 98 90 98 90 92 97 c 0,163,164
 80 111 80 111 80 129 c 256,165,166
 80 148 80 148 92 161 c 0,167,168
 97 167 97 167 103 171 c 1,169,-1
 103 171 l 1,170,171
 98 174 98 174 92 180 c 0,172,173
 80 194 80 194 80 212 c 256,174,175
 80 230 80 230 92 244 c 0,176,177
 97 250 97 250 103 254 c 1,178,-1
 103 254 l 1,179,180
 98 257 98 257 92 263 c 0,181,182
 80 278 80 278 80 296 c 0,183,184
 80 316 80 316 92 328 c 0,185,186
 103.2 341.066666667 103.2 341.066666667 117.884444444 341.066666667 c 0,187,188
 118.933333333 341.066666667 118.933333333 341.066666667 120 341 c 256,189,190
 121.066666667 341.066666667 121.066666667 341.066666667 122.115555556 341.066666667 c 0,191,192
 136.8 341.066666667 136.8 341.066666667 148 328 c 0,193,194
 159 314 159 314 160 296 c 0,195,196
 160 277 160 277 148 263 c 0,197,198
 143 257 143 257 137 254 c 1,199,-1
 137 254 l 1,200,201
 142 250 142 250 148 244 c 0,202,203
 159 230 159 230 160 212 c 256,204,205
 160 193 160 193 148 180 c 0,206,207
 143 174 143 174 137 171 c 1,208,-1
 137 171 l 1,209,210
 142 168 142 168 148 161 c 0,211,212
 159 147 159 147 160 129 c 256,213,214
 160 110 160 110 148 97 c 0,215,216
 143 91 143 91 137 87 c 1,217,-1
 137 87 l 1,218,219
 142 84 142 84 148 78 c 0,220,221
 159 64 159 64 160 46 c 0,222,223
 160 28 160 28 148 14 c 128,-1,224
 136 0 136 0 120 0 c 1,225,-1
 120 0 l 1,153,154
280 250 m 1,226,227
 264 250 264 250 251 263 c 256,228,229
 239.923076923 276.846153846 239.923076923 276.846153846 239.923076923 293.24852071 c 0,230,231
 239.923076923 315.916083916 239.923076923 315.916083916 251 328 c 0,232,233
 256 334 256 334 263 338 c 1,234,-1
 263 338 l 1,235,236
 257 340 257 340 251 346 c 0,237,238
 239.923076923 358.923076923 239.923076923 358.923076923 239.923076923 376.106508876 c 0,239,240
 239.923076923 397.909090909 239.923076923 397.909090909 251 411 c 0,241,242
 263 424 263 424 280 424 c 256,243,244
 296 424 296 424 308 411 c 0,245,246
 320 397 320 397 320 379 c 256,247,248
 320 360 320 360 308 346 c 0,249,250
 303 340 303 340 297 338 c 1,251,-1
 297 338 l 1,252,253
 303 334 303 334 308 328 c 0,254,255
 320 314 320 314 320 296 c 0,256,257
 320 277 320 277 308 263 c 256,258,259
 296.8 249.933333333 296.8 249.933333333 282.115555556 249.933333333 c 0,260,261
 281.066666667 249.933333333 281.066666667 249.933333333 280 250 c 1,262,-1
 280 250 l 1,226,227
360 166 m 1,263,264
 344 166 344 166 332 180 c 128,-1,265
 320 194 320 194 320 212 c 256,266,267
 320 230 320 230 332 244 c 0,268,269
 337 250 337 250 343 254 c 1,270,-1
 343 254 l 1,271,272
 338 257 338 257 332 263 c 0,273,274
 320 278 320 278 320 296 c 0,275,276
 320 316 320 316 332 328 c 0,277,278
 337 334 337 334 343 338 c 1,279,-1
 343 338 l 1,280,281
 338 340 338 340 332 346 c 0,282,283
 320 360 320 360 320 379 c 256,284,285
 320 398 320 398 332 411 c 128,-1,286
 344 424 344 424 360 424 c 128,-1,287
 376 424 376 424 388 411 c 0,288,289
 400 397 400 397 400 379 c 256,290,291
 400 360 400 360 388 346 c 0,292,293
 382 340 382 340 376 338 c 1,294,-1
 376 338 l 1,295,296
 382 334 382 334 388 328 c 0,297,298
 400 314 400 314 400 296 c 0,299,300
 400 277 400 277 388 263 c 0,301,302
 382 257 382 257 376 254 c 1,303,-1
 376 254 l 1,304,305
 382 250 382 250 388 244 c 0,306,307
 400 230 400 230 400 212 c 256,308,309
 400 193 400 193 388 180 c 0,310,311
 376 166 376 166 360 166 c 1,312,-1
 360 166 l 1,263,264
120 416 m 1,313,314
 104 416 104 416 92 430 c 256,315,316
 80 444 80 444 80 462 c 0,317,318
 80 481 80 481 92 495 c 256,319,320
 104 508 104 508 120 508 c 256,321,322
 136 508 136 508 148 495 c 0,323,324
 159 481 159 481 160 462 c 0,325,326
 160 443 160 443 148 430 c 0,327,328
 136 416 136 416 120 416 c 1,329,-1
 120 416 l 1,313,314
520 416 m 1,330,331
 504 416 504 416 491 430 c 256,332,333
 479.923076923 442.923076923 479.923076923 442.923076923 479.923076923 459.25443787 c 0,334,335
 479.923076923 480.902097902 479.923076923 480.902097902 491 495 c 256,336,337
 503 508 503 508 520 508 c 0,338,339
 536 508 536 508 548 495 c 256,340,341
 560 481 560 481 560 462 c 128,-1,342
 560 443 560 443 548 430 c 256,343,344
 536 416 536 416 520 416 c 1,345,-1
 520 416 l 1,330,331
200 250 m 1,346,347
 184 250 184 250 172 263 c 256,348,349
 160 278 160 278 160 296 c 0,350,351
 160 316 160 316 172 328 c 0,352,353
 177 334 177 334 183 338 c 1,354,-1
 183 338 l 1,355,356
 177 340 177 340 172 346 c 0,357,358
 160 360 160 360 160 379 c 256,359,360
 160 398 160 398 172 411 c 0,361,362
 177 417 177 417 183 421 c 1,363,-1
 183 421 l 1,364,365
 177 424 177 424 172 430 c 0,366,367
 160 444 160 444 160 462 c 0,368,369
 160 481 160 481 172 495 c 0,370,371
 177 501 177 501 183 504 c 1,372,-1
 183 504 l 1,373,374
 177 507 177 507 172 513 c 0,375,376
 160 527 160 527 160 546 c 256,377,378
 160 565 160 565 172 578 c 0,379,380
 184 592 184 592 200 592 c 128,-1,381
 216 592 216 592 228 578 c 128,-1,382
 240 564 240 564 240 546 c 256,383,384
 240 527 240 527 228 513 c 0,385,386
 223 507 223 507 217 504 c 1,387,-1
 217 504 l 1,388,389
 223 501 223 501 228 495 c 0,390,391
 240 481 240 481 240 462 c 128,-1,392
 240 443 240 443 228 430 c 0,393,394
 223 424 223 424 217 421 c 1,395,-1
 217 421 l 1,396,397
 223 418 223 418 228 411 c 0,398,399
 240 397 240 397 240 379 c 256,400,401
 240 360 240 360 228 346 c 0,402,403
 223 340 223 340 217 338 c 1,404,-1
 217 338 l 1,405,406
 223 334 223 334 228 328 c 0,407,408
 240 314 240 314 240 296 c 0,409,410
 240 277 240 277 228 263 c 256,411,412
 216.8 249.933333333 216.8 249.933333333 202.115555556 249.933333333 c 0,413,414
 201.066666667 249.933333333 201.066666667 249.933333333 200 250 c 1,415,-1
 200 250 l 1,346,347
280 500 m 1,416,417
 264 500 264 500 251 513 c 0,418,419
 239.923076923 525.923076923 239.923076923 525.923076923 239.923076923 543.106508876 c 0,420,421
 239.923076923 564.909090909 239.923076923 564.909090909 251 578 c 0,422,423
 263 592 263 592 280 592 c 256,424,425
 296 592 296 592 308 578 c 128,-1,426
 320 564 320 564 320 546 c 256,427,428
 320 527 320 527 308 513 c 0,429,430
 296.8 499.933333333 296.8 499.933333333 282.115555556 499.933333333 c 0,431,432
 281.066666667 499.933333333 281.066666667 499.933333333 280 500 c 1,433,-1
 280 500 l 1,416,417
360 500 m 1,434,435
 344 500 344 500 332 513 c 0,436,437
 320 527 320 527 320 546 c 256,438,439
 320 565 320 565 332 578 c 0,440,441
 344 592 344 592 360 592 c 128,-1,442
 376 592 376 592 388 578 c 128,-1,443
 400 564 400 564 400 546 c 256,444,445
 400 527 400 527 388 513 c 0,446,447
 376.8 499.933333333 376.8 499.933333333 362.115555556 499.933333333 c 0,448,449
 361.066666667 499.933333333 361.066666667 499.933333333 360 500 c 1,450,-1
 360 500 l 1,434,435
440 333 m 1,451,452
 438.933333333 332.933333333 438.933333333 332.933333333 437.884444444 332.933333333 c 0,453,454
 423.2 332.933333333 423.2 332.933333333 412 346 c 0,455,456
 400 360 400 360 400 379 c 256,457,458
 400 398 400 398 412 411 c 0,459,460
 417 417 417 417 423 421 c 1,461,-1
 423 421 l 1,462,463
 417 424 417 424 412 430 c 0,464,465
 400 444 400 444 400 462 c 0,466,467
 400 481 400 481 412 495 c 0,468,469
 417 501 417 501 423 504 c 1,470,-1
 423 504 l 1,471,472
 417 507 417 507 412 513 c 0,473,474
 400 527 400 527 400 546 c 256,475,476
 400 565 400 565 412 578 c 0,477,478
 424 592 424 592 440 592 c 256,479,480
 456 592 456 592 468 578 c 128,-1,481
 480 564 480 564 480 546 c 256,482,483
 480 527 480 527 468 513 c 0,484,485
 463 507 463 507 457 504 c 1,486,-1
 457 504 l 1,487,488
 463 501 463 501 468 495 c 0,489,490
 480 481 480 481 480 462 c 128,-1,491
 480 443 480 443 468 430 c 0,492,493
 463 424 463 424 457 421 c 1,494,-1
 457 421 l 1,495,496
 463 418 463 418 468 411 c 0,497,498
 480 397 480 397 480 379 c 256,499,500
 480 360 480 360 468 346 c 0,501,502
 456.8 332.933333333 456.8 332.933333333 442.115555556 332.933333333 c 0,503,504
 441.066666667 332.933333333 441.066666667 332.933333333 440 333 c 1,505,-1
 440 333 l 1,451,452
EndSplineSet
EndChar

StartChar: quotesingle
Encoding: 39 39 7
Width: 720
VWidth: 750
Flags: W
LayerCount: 2
Fore
SplineSet
200 333 m 1,0,1
 198.933333333 332.933333333 198.933333333 332.933333333 197.884444444 332.933333333 c 0,2,3
 183.2 332.933333333 183.2 332.933333333 172 346 c 0,4,5
 160 360 160 360 160 379 c 256,6,7
 160 398 160 398 172 411 c 128,-1,8
 184 424 184 424 200 424 c 128,-1,9
 216 424 216 424 228 411 c 0,10,11
 240 397 240 397 240 379 c 256,12,13
 240 360 240 360 228 346 c 0,14,15
 216.8 332.933333333 216.8 332.933333333 202.115555556 332.933333333 c 0,16,17
 201.066666667 332.933333333 201.066666667 332.933333333 200 333 c 1,18,-1
 200 333 l 1,0,1
280 333 m 1,19,20
 278.933333333 332.933333333 278.933333333 332.933333333 277.88 332.933333333 c 0,21,22
 263.133333333 332.933333333 263.133333333 332.933333333 251 346 c 0,23,24
 239.923076923 358.923076923 239.923076923 358.923076923 239.923076923 376.106508876 c 0,25,26
 239.923076923 397.909090909 239.923076923 397.909090909 251 411 c 0,27,28
 256 417 256 417 263 421 c 1,29,-1
 263 421 l 1,30,31
 257 424 257 424 251 430 c 0,32,33
 239.923076923 442.923076923 239.923076923 442.923076923 239.923076923 459.25443787 c 0,34,35
 239.923076923 480.902097902 239.923076923 480.902097902 251 495 c 256,36,37
 263 508 263 508 280 508 c 256,38,39
 296 508 296 508 308 495 c 256,40,41
 320 481 320 481 320 462 c 128,-1,42
 320 443 320 443 308 430 c 0,43,44
 303 424 303 424 297 421 c 1,45,-1
 297 421 l 1,46,47
 303 418 303 418 308 411 c 0,48,49
 320 397 320 397 320 379 c 256,50,51
 320 360 320 360 308 346 c 0,52,53
 296.8 332.933333333 296.8 332.933333333 282.115555556 332.933333333 c 0,54,55
 281.066666667 332.933333333 281.066666667 332.933333333 280 333 c 1,56,-1
 280 333 l 1,19,20
360 416 m 1,57,58
 344 416 344 416 332 430 c 256,59,60
 320 444 320 444 320 462 c 0,61,62
 320 481 320 481 332 495 c 0,63,64
 337 501 337 501 343 504 c 1,65,-1
 343 504 l 1,66,67
 338 507 338 507 332 513 c 0,68,69
 320 527 320 527 320 546 c 256,70,71
 320 565 320 565 332 578 c 0,72,73
 344 592 344 592 360 592 c 128,-1,74
 376 592 376 592 388 578 c 128,-1,75
 400 564 400 564 400 546 c 256,76,77
 400 527 400 527 388 513 c 0,78,79
 382 507 382 507 376 504 c 1,80,-1
 376 504 l 1,81,82
 382 501 382 501 388 495 c 0,83,84
 400 481 400 481 400 462 c 128,-1,85
 400 443 400 443 388 430 c 256,86,87
 376 416 376 416 360 416 c 1,88,-1
 360 416 l 1,57,58
440 500 m 1,89,90
 424 500 424 500 412 513 c 0,91,92
 400 527 400 527 400 546 c 256,93,94
 400 565 400 565 412 578 c 0,95,96
 424 592 424 592 440 592 c 256,97,98
 456 592 456 592 468 578 c 128,-1,99
 480 564 480 564 480 546 c 256,100,101
 480 527 480 527 468 513 c 0,102,103
 456.8 499.933333333 456.8 499.933333333 442.115555556 499.933333333 c 0,104,105
 441.066666667 499.933333333 441.066666667 499.933333333 440 500 c 1,106,-1
 440 500 l 1,89,90
EndSplineSet
EndChar

StartChar: parenleft
Encoding: 40 40 8
Width: 720
VWidth: 750
Flags: W
LayerCount: 2
Fore
SplineSet
440 0 m 1,0,1
 424 0 424 0 412 14 c 128,-1,2
 400 28 400 28 400 46 c 0,3,4
 400 65 400 65 412 78 c 256,5,6
 424 92 424 92 440 92 c 256,7,8
 456 92 456 92 468 78 c 256,9,10
 480 64 480 64 480 46 c 128,-1,11
 480 28 480 28 468 14 c 128,-1,12
 456 0 456 0 440 0 c 1,13,-1
 440 0 l 1,0,1
360 0 m 1,14,15
 344 0 344 0 332 14 c 128,-1,16
 320 28 320 28 320 46 c 0,17,18
 320 65 320 65 332 78 c 0,19,20
 337 84 337 84 343 87 c 1,21,-1
 343 87 l 1,22,23
 338 90 338 90 332 97 c 0,24,25
 320 111 320 111 320 129 c 256,26,27
 320 148 320 148 332 161 c 0,28,29
 344 175 344 175 360 175 c 128,-1,30
 376 175 376 175 388 161 c 128,-1,31
 400 147 400 147 400 129 c 256,32,33
 400 110 400 110 388 97 c 0,34,35
 382 91 382 91 376 87 c 1,36,-1
 376 87 l 1,37,38
 382 84 382 84 388 78 c 0,39,40
 400 64 400 64 400 46 c 128,-1,41
 400 28 400 28 388 14 c 128,-1,42
 376 0 376 0 360 0 c 1,43,-1
 360 0 l 1,14,15
200 166 m 1,44,45
 184 166 184 166 172 180 c 128,-1,46
 160 194 160 194 160 212 c 256,47,48
 160 230 160 230 172 244 c 0,49,50
 177 250 177 250 183 254 c 1,51,-1
 183 254 l 1,52,53
 177 257 177 257 172 263 c 0,54,55
 160 278 160 278 160 296 c 0,56,57
 160 316 160 316 172 328 c 0,58,59
 177 334 177 334 183 338 c 1,60,-1
 183 338 l 1,61,62
 177 340 177 340 172 346 c 0,63,64
 160 360 160 360 160 379 c 256,65,66
 160 398 160 398 172 411 c 128,-1,67
 184 424 184 424 200 424 c 128,-1,68
 216 424 216 424 228 411 c 0,69,70
 240 397 240 397 240 379 c 256,71,72
 240 360 240 360 228 346 c 0,73,74
 223 340 223 340 217 338 c 1,75,-1
 217 338 l 1,76,77
 223 334 223 334 228 328 c 0,78,79
 240 314 240 314 240 296 c 0,80,81
 240 277 240 277 228 263 c 0,82,83
 223 257 223 257 217 254 c 1,84,-1
 217 254 l 1,85,86
 223 250 223 250 228 244 c 0,87,88
 240 230 240 230 240 212 c 256,89,90
 240 193 240 193 228 180 c 0,91,92
 216 166 216 166 200 166 c 1,93,-1
 200 166 l 1,44,45
280 83 m 1,94,95
 264 83 264 83 251 97 c 0,96,97
 239.923076923 109.923076923 239.923076923 109.923076923 239.923076923 126.25443787 c 0,98,99
 239.923076923 147.909090909 239.923076923 147.909090909 251 161 c 0,100,101
 256 167 256 167 263 171 c 1,102,-1
 263 171 l 1,103,104
 257 174 257 174 251 180 c 0,105,106
 239.923076923 192.923076923 239.923076923 192.923076923 239.923076923 209.25443787 c 0,107,108
 239.923076923 229.902097902 239.923076923 229.902097902 251 244 c 0,109,110
 256 250 256 250 263 254 c 1,111,-1
 263 254 l 1,112,113
 257 257 257 257 251 263 c 0,114,115
 239.923076923 276.846153846 239.923076923 276.846153846 239.923076923 293.24852071 c 0,116,117
 239.923076923 315.916083916 239.923076923 315.916083916 251 328 c 0,118,119
 256 334 256 334 263 338 c 1,120,-1
 263 338 l 1,121,122
 257 340 257 340 251 346 c 0,123,124
 239.923076923 358.923076923 239.923076923 358.923076923 239.923076923 376.106508876 c 0,125,126
 239.923076923 397.909090909 239.923076923 397.909090909 251 411 c 0,127,128
 256 417 256 417 263 421 c 1,129,-1
 263 421 l 1,130,131
 257 424 257 424 251 430 c 0,132,133
 239.923076923 442.923076923 239.923076923 442.923076923 239.923076923 459.25443787 c 0,134,135
 239.923076923 480.902097902 239.923076923 480.902097902 251 495 c 256,136,137
 263 508 263 508 280 508 c 256,138,139
 296 508 296 508 308 495 c 256,140,141
 320 481 320 481 320 462 c 128,-1,142
 320 443 320 443 308 430 c 0,143,144
 303 424 303 424 297 421 c 1,145,-1
 297 421 l 1,146,147
 303 418 303 418 308 411 c 0,148,149
 320 397 320 397 320 379 c 256,150,151
 320 360 320 360 308 346 c 0,152,153
 303 340 303 340 297 338 c 1,154,-1
 297 338 l 1,155,156
 303 334 303 334 308 328 c 0,157,158
 320 314 320 314 320 296 c 0,159,160
 320 277 320 277 308 263 c 0,161,162
 303 257 303 257 297 254 c 1,163,-1
 297 254 l 1,164,165
 303 250 303 250 308 244 c 0,166,167
 320 230 320 230 320 212 c 256,168,169
 320 193 320 193 308 180 c 0,170,171
 303 174 303 174 297 171 c 1,172,-1
 297 171 l 1,173,174
 303 168 303 168 308 161 c 0,175,176
 320 147 320 147 320 129 c 256,177,178
 320 110 320 110 308 97 c 0,179,180
 296 83 296 83 280 83 c 1,181,-1
 280 83 l 1,94,95
360 416 m 1,182,183
 344 416 344 416 332 430 c 256,184,185
 320 444 320 444 320 462 c 0,186,187
 320 481 320 481 332 495 c 0,188,189
 337 501 337 501 343 504 c 1,190,-1
 343 504 l 1,191,192
 338 507 338 507 332 513 c 0,193,194
 320 527 320 527 320 546 c 256,195,196
 320 565 320 565 332 578 c 0,197,198
 344 592 344 592 360 592 c 128,-1,199
 376 592 376 592 388 578 c 128,-1,200
 400 564 400 564 400 546 c 256,201,202
 400 527 400 527 388 513 c 0,203,204
 382 507 382 507 376 504 c 1,205,-1
 376 504 l 1,206,207
 382 501 382 501 388 495 c 0,208,209
 400 481 400 481 400 462 c 128,-1,210
 400 443 400 443 388 430 c 256,211,212
 376 416 376 416 360 416 c 1,213,-1
 360 416 l 1,182,183
440 500 m 1,214,215
 424 500 424 500 412 513 c 0,216,217
 400 527 400 527 400 546 c 256,218,219
 400 565 400 565 412 578 c 0,220,221
 424 592 424 592 440 592 c 256,222,223
 456 592 456 592 468 578 c 128,-1,224
 480 564 480 564 480 546 c 256,225,226
 480 527 480 527 468 513 c 0,227,228
 456.8 499.933333333 456.8 499.933333333 442.115555556 499.933333333 c 0,229,230
 441.066666667 499.933333333 441.066666667 499.933333333 440 500 c 1,231,-1
 440 500 l 1,214,215
EndSplineSet
EndChar

StartChar: parenright
Encoding: 41 41 9
Width: 720
VWidth: 750
Flags: W
LayerCount: 2
Fore
SplineSet
200 0 m 1,0,1
 184 0 184 0 172 14 c 128,-1,2
 160 28 160 28 160 46 c 0,3,4
 160 65 160 65 172 78 c 256,5,6
 184 92 184 92 200 92 c 128,-1,7
 216 92 216 92 228 78 c 256,8,9
 240 64 240 64 240 46 c 128,-1,10
 240 28 240 28 228 14 c 128,-1,11
 216 0 216 0 200 0 c 1,12,-1
 200 0 l 1,0,1
280 0 m 1,13,14
 264 0 264 0 251 14 c 0,15,16
 239.923076923 26.9230769231 239.923076923 26.9230769231 239.923076923 43.2544378698 c 0,17,18
 239.923076923 64.9090909091 239.923076923 64.9090909091 251 78 c 0,19,20
 256 84 256 84 263 87 c 1,21,-1
 263 87 l 1,22,23
 257 90 257 90 251 97 c 0,24,25
 239.923076923 109.923076923 239.923076923 109.923076923 239.923076923 126.25443787 c 0,26,27
 239.923076923 147.909090909 239.923076923 147.909090909 251 161 c 0,28,29
 263 175 263 175 280 175 c 256,30,31
 296 175 296 175 308 161 c 128,-1,32
 320 147 320 147 320 129 c 256,33,34
 320 110 320 110 308 97 c 0,35,36
 303 91 303 91 297 87 c 1,37,-1
 297 87 l 1,38,39
 303 84 303 84 308 78 c 0,40,41
 320 64 320 64 320 46 c 128,-1,42
 320 28 320 28 308 14 c 128,-1,43
 296 0 296 0 280 0 c 1,44,-1
 280 0 l 1,13,14
440 166 m 1,45,46
 424 166 424 166 412 180 c 128,-1,47
 400 194 400 194 400 212 c 256,48,49
 400 230 400 230 412 244 c 0,50,51
 417 250 417 250 423 254 c 1,52,-1
 423 254 l 1,53,54
 417 257 417 257 412 263 c 0,55,56
 400 278 400 278 400 296 c 0,57,58
 400 316 400 316 412 328 c 0,59,60
 417 334 417 334 423 338 c 1,61,-1
 423 338 l 1,62,63
 417 340 417 340 412 346 c 0,64,65
 400 360 400 360 400 379 c 256,66,67
 400 398 400 398 412 411 c 128,-1,68
 424 424 424 424 440 424 c 256,69,70
 456 424 456 424 468 411 c 0,71,72
 480 397 480 397 480 379 c 256,73,74
 480 360 480 360 468 346 c 0,75,76
 463 340 463 340 457 338 c 1,77,-1
 457 338 l 1,78,79
 463 334 463 334 468 328 c 0,80,81
 480 314 480 314 480 296 c 0,82,83
 480 277 480 277 468 263 c 0,84,85
 463 257 463 257 457 254 c 1,86,-1
 457 254 l 1,87,88
 463 250 463 250 468 244 c 0,89,90
 480 230 480 230 480 212 c 256,91,92
 480 193 480 193 468 180 c 0,93,94
 456 166 456 166 440 166 c 1,95,-1
 440 166 l 1,45,46
360 83 m 1,96,97
 344 83 344 83 332 97 c 128,-1,98
 320 111 320 111 320 129 c 256,99,100
 320 148 320 148 332 161 c 0,101,102
 337 167 337 167 343 171 c 1,103,-1
 343 171 l 1,104,105
 338 174 338 174 332 180 c 0,106,107
 320 194 320 194 320 212 c 256,108,109
 320 230 320 230 332 244 c 0,110,111
 337 250 337 250 343 254 c 1,112,-1
 343 254 l 1,113,114
 338 257 338 257 332 263 c 0,115,116
 320 278 320 278 320 296 c 0,117,118
 320 316 320 316 332 328 c 0,119,120
 337 334 337 334 343 338 c 1,121,-1
 343 338 l 1,122,123
 338 340 338 340 332 346 c 0,124,125
 320 360 320 360 320 379 c 256,126,127
 320 398 320 398 332 411 c 0,128,129
 337 417 337 417 343 421 c 1,130,-1
 343 421 l 1,131,132
 338 424 338 424 332 430 c 0,133,134
 320 444 320 444 320 462 c 0,135,136
 320 481 320 481 332 495 c 256,137,138
 344 508 344 508 360 508 c 128,-1,139
 376 508 376 508 388 495 c 256,140,141
 400 481 400 481 400 462 c 128,-1,142
 400 443 400 443 388 430 c 0,143,144
 382 424 382 424 376 421 c 1,145,-1
 376 421 l 1,146,147
 382 418 382 418 388 411 c 0,148,149
 400 397 400 397 400 379 c 256,150,151
 400 360 400 360 388 346 c 0,152,153
 382 340 382 340 376 338 c 1,154,-1
 376 338 l 1,155,156
 382 334 382 334 388 328 c 0,157,158
 400 314 400 314 400 296 c 0,159,160
 400 277 400 277 388 263 c 0,161,162
 382 257 382 257 376 254 c 1,163,-1
 376 254 l 1,164,165
 382 250 382 250 388 244 c 0,166,167
 400 230 400 230 400 212 c 256,168,169
 400 193 400 193 388 180 c 0,170,171
 382 174 382 174 376 171 c 1,172,-1
 376 171 l 1,173,174
 382 168 382 168 388 161 c 0,175,176
 400 147 400 147 400 129 c 256,177,178
 400 110 400 110 388 97 c 0,179,180
 376 83 376 83 360 83 c 1,181,-1
 360 83 l 1,96,97
200 500 m 1,182,183
 184 500 184 500 172 513 c 0,184,185
 160 527 160 527 160 546 c 256,186,187
 160 565 160 565 172 578 c 0,188,189
 184 592 184 592 200 592 c 128,-1,190
 216 592 216 592 228 578 c 128,-1,191
 240 564 240 564 240 546 c 256,192,193
 240 527 240 527 228 513 c 0,194,195
 216.8 499.933333333 216.8 499.933333333 202.115555556 499.933333333 c 0,196,197
 201.066666667 499.933333333 201.066666667 499.933333333 200 500 c 1,198,-1
 200 500 l 1,182,183
280 416 m 1,199,200
 264 416 264 416 251 430 c 256,201,202
 239.923076923 442.923076923 239.923076923 442.923076923 239.923076923 459.25443787 c 0,203,204
 239.923076923 480.902097902 239.923076923 480.902097902 251 495 c 0,205,206
 256 501 256 501 263 504 c 1,207,-1
 263 504 l 1,208,209
 257 507 257 507 251 513 c 0,210,211
 239.923076923 525.923076923 239.923076923 525.923076923 239.923076923 543.106508876 c 0,212,213
 239.923076923 564.909090909 239.923076923 564.909090909 251 578 c 0,214,215
 263 592 263 592 280 592 c 256,216,217
 296 592 296 592 308 578 c 128,-1,218
 320 564 320 564 320 546 c 256,219,220
 320 527 320 527 308 513 c 0,221,222
 303 507 303 507 297 504 c 1,223,-1
 297 504 l 1,224,225
 303 501 303 501 308 495 c 0,226,227
 320 481 320 481 320 462 c 128,-1,228
 320 443 320 443 308 430 c 256,229,230
 296 416 296 416 280 416 c 1,231,-1
 280 416 l 1,199,200
EndSplineSet
EndChar

StartChar: asterisk
Encoding: 42 42 10
Width: 720
VWidth: 750
Flags: W
LayerCount: 2
Fore
SplineSet
40 83 m 1,0,1
 24 83 24 83 11 97 c 0,2,3
 0 111 0 111 0 129 c 256,4,5
 0 148 0 148 11 161 c 0,6,7
 23 175 23 175 40 175 c 256,8,9
 56 175 56 175 68 161 c 128,-1,10
 80 147 80 147 80 129 c 256,11,12
 80 110 80 110 68 97 c 0,13,14
 56 83 56 83 40 83 c 1,15,-1
 40 83 l 1,0,1
600 83 m 1,16,17
 584 83 584 83 572 97 c 128,-1,18
 560 111 560 111 560 129 c 256,19,20
 560 148 560 148 572 161 c 0,21,22
 584 175 584 175 600 175 c 256,23,24
 616 175 616 175 628 161 c 128,-1,25
 640 147 640 147 640 129 c 256,26,27
 640 110 640 110 628 97 c 0,28,29
 616 83 616 83 600 83 c 1,30,-1
 600 83 l 1,16,17
120 83 m 1,31,32
 104 83 104 83 92 97 c 128,-1,33
 80 111 80 111 80 129 c 256,34,35
 80 148 80 148 92 161 c 0,36,37
 97 167 97 167 103 171 c 1,38,-1
 103 171 l 1,39,40
 98 174 98 174 92 180 c 0,41,42
 80 194 80 194 80 212 c 256,43,44
 80 230 80 230 92 244 c 128,-1,45
 104 258 104 258 120 258 c 256,46,47
 136 258 136 258 148 244 c 0,48,49
 159 230 159 230 160 212 c 256,50,51
 160 193 160 193 148 180 c 0,52,53
 143 174 143 174 137 171 c 1,54,-1
 137 171 l 1,55,56
 142 168 142 168 148 161 c 0,57,58
 159 147 159 147 160 129 c 256,59,60
 160 110 160 110 148 97 c 0,61,62
 136 83 136 83 120 83 c 1,63,-1
 120 83 l 1,31,32
520 83 m 1,64,65
 504 83 504 83 491 97 c 0,66,67
 479.923076923 109.923076923 479.923076923 109.923076923 479.923076923 126.25443787 c 0,68,69
 479.923076923 147.909090909 479.923076923 147.909090909 491 161 c 0,70,71
 496 167 496 167 502 171 c 1,72,-1
 502 171 l 1,73,74
 496 174 496 174 491 180 c 0,75,76
 479.923076923 192.923076923 479.923076923 192.923076923 479.923076923 209.25443787 c 0,77,78
 479.923076923 229.902097902 479.923076923 229.902097902 491 244 c 0,79,80
 503 258 503 258 520 258 c 0,81,82
 536 258 536 258 548 244 c 128,-1,83
 560 230 560 230 560 212 c 256,84,85
 560 193 560 193 548 180 c 0,86,87
 543 174 543 174 537 171 c 1,88,-1
 537 171 l 1,89,90
 543 168 543 168 548 161 c 0,91,92
 560 147 560 147 560 129 c 256,93,94
 560 110 560 110 548 97 c 0,95,96
 536 83 536 83 520 83 c 1,97,-1
 520 83 l 1,64,65
200 166 m 1,98,99
 184 166 184 166 172 180 c 128,-1,100
 160 194 160 194 160 212 c 256,101,102
 160 230 160 230 172 244 c 0,103,104
 177 250 177 250 183 254 c 1,105,-1
 183 254 l 1,106,107
 177 257 177 257 172 263 c 0,108,109
 160 278 160 278 160 296 c 0,110,111
 160 316 160 316 172 328 c 0,112,113
 177 334 177 334 183 338 c 1,114,-1
 183 338 l 1,115,116
 177 340 177 340 172 346 c 0,117,118
 160 360 160 360 160 379 c 256,119,120
 160 398 160 398 172 411 c 128,-1,121
 184 424 184 424 200 424 c 128,-1,122
 216 424 216 424 228 411 c 0,123,124
 240 397 240 397 240 379 c 256,125,126
 240 360 240 360 228 346 c 0,127,128
 223 340 223 340 217 338 c 1,129,-1
 217 338 l 1,130,131
 223 334 223 334 228 328 c 0,132,133
 240 314 240 314 240 296 c 0,134,135
 240 277 240 277 228 263 c 0,136,137
 223 257 223 257 217 254 c 1,138,-1
 217 254 l 1,139,140
 223 250 223 250 228 244 c 0,141,142
 240 230 240 230 240 212 c 256,143,144
 240 193 240 193 228 180 c 0,145,146
 216 166 216 166 200 166 c 1,147,-1
 200 166 l 1,98,99
440 166 m 1,148,149
 424 166 424 166 412 180 c 128,-1,150
 400 194 400 194 400 212 c 256,151,152
 400 230 400 230 412 244 c 0,153,154
 417 250 417 250 423 254 c 1,155,-1
 423 254 l 1,156,157
 417 257 417 257 412 263 c 0,158,159
 400 278 400 278 400 296 c 0,160,161
 400 316 400 316 412 328 c 0,162,163
 417 334 417 334 423 338 c 1,164,-1
 423 338 l 1,165,166
 417 340 417 340 412 346 c 0,167,168
 400 360 400 360 400 379 c 256,169,170
 400 398 400 398 412 411 c 128,-1,171
 424 424 424 424 440 424 c 256,172,173
 456 424 456 424 468 411 c 0,174,175
 480 397 480 397 480 379 c 256,176,177
 480 360 480 360 468 346 c 0,178,179
 463 340 463 340 457 338 c 1,180,-1
 457 338 l 1,181,182
 463 334 463 334 468 328 c 0,183,184
 480 314 480 314 480 296 c 0,185,186
 480 277 480 277 468 263 c 0,187,188
 463 257 463 257 457 254 c 1,189,-1
 457 254 l 1,190,191
 463 250 463 250 468 244 c 0,192,193
 480 230 480 230 480 212 c 256,194,195
 480 193 480 193 468 180 c 0,196,197
 456 166 456 166 440 166 c 1,198,-1
 440 166 l 1,148,149
40 416 m 1,199,200
 24 416 24 416 11 430 c 0,201,202
 0 444 0 444 0 462 c 0,203,204
 0 481 0 481 11 495 c 0,205,206
 23 508 23 508 40 508 c 256,207,208
 56 508 56 508 68 495 c 256,209,210
 80 481 80 481 80 462 c 128,-1,211
 80 443 80 443 68 430 c 256,212,213
 56 416 56 416 40 416 c 1,214,-1
 40 416 l 1,199,200
120 333 m 1,215,216
 118.933333333 332.933333333 118.933333333 332.933333333 117.884444444 332.933333333 c 0,217,218
 103.2 332.933333333 103.2 332.933333333 92 346 c 0,219,220
 80 360 80 360 80 379 c 256,221,222
 80 398 80 398 92 411 c 0,223,224
 97 417 97 417 103 421 c 1,225,-1
 103 421 l 1,226,227
 98 424 98 424 92 430 c 0,228,229
 80 444 80 444 80 462 c 0,230,231
 80 481 80 481 92 495 c 256,232,233
 104 508 104 508 120 508 c 256,234,235
 136 508 136 508 148 495 c 0,236,237
 159 481 159 481 160 462 c 0,238,239
 160 443 160 443 148 430 c 0,240,241
 143 424 143 424 137 421 c 1,242,-1
 137 421 l 1,243,244
 142 418 142 418 148 411 c 0,245,246
 159 397 159 397 160 379 c 256,247,248
 160 360 160 360 148 346 c 0,249,250
 136.8 332.933333333 136.8 332.933333333 122.115555556 332.933333333 c 0,251,252
 121.066666667 332.933333333 121.066666667 332.933333333 120 333 c 1,253,-1
 120 333 l 1,215,216
280 83 m 1,254,255
 264 83 264 83 251 97 c 0,256,257
 239.923076923 109.923076923 239.923076923 109.923076923 239.923076923 126.25443787 c 0,258,259
 239.923076923 147.909090909 239.923076923 147.909090909 251 161 c 0,260,261
 256 167 256 167 263 171 c 1,262,-1
 263 171 l 1,263,264
 257 174 257 174 251 180 c 0,265,266
 239.923076923 192.923076923 239.923076923 192.923076923 239.923076923 209.25443787 c 0,267,268
 239.923076923 229.902097902 239.923076923 229.902097902 251 244 c 0,269,270
 256 250 256 250 263 254 c 1,271,-1
 263 254 l 1,272,273
 257 257 257 257 251 263 c 0,274,275
 239.923076923 276.846153846 239.923076923 276.846153846 239.923076923 293.24852071 c 0,276,277
 239.923076923 315.916083916 239.923076923 315.916083916 251 328 c 0,278,279
 256 334 256 334 263 338 c 1,280,-1
 263 338 l 1,281,282
 257 340 257 340 251 346 c 0,283,284
 239.923076923 358.923076923 239.923076923 358.923076923 239.923076923 376.106508876 c 0,285,286
 239.923076923 397.909090909 239.923076923 397.909090909 251 411 c 0,287,288
 256 417 256 417 263 421 c 1,289,-1
 263 421 l 1,290,291
 257 424 257 424 251 430 c 0,292,293
 239.923076923 442.923076923 239.923076923 442.923076923 239.923076923 459.25443787 c 0,294,295
 239.923076923 480.902097902 239.923076923 480.902097902 251 495 c 256,296,297
 263 508 263 508 280 508 c 256,298,299
 296 508 296 508 308 495 c 256,300,301
 320 481 320 481 320 462 c 128,-1,302
 320 443 320 443 308 430 c 0,303,304
 303 424 303 424 297 421 c 1,305,-1
 297 421 l 1,306,307
 303 418 303 418 308 411 c 0,308,309
 320 397 320 397 320 379 c 256,310,311
 320 360 320 360 308 346 c 0,312,313
 303 340 303 340 297 338 c 1,314,-1
 297 338 l 1,315,316
 303 334 303 334 308 328 c 0,317,318
 320 314 320 314 320 296 c 0,319,320
 320 277 320 277 308 263 c 0,321,322
 303 257 303 257 297 254 c 1,323,-1
 297 254 l 1,324,325
 303 250 303 250 308 244 c 0,326,327
 320 230 320 230 320 212 c 256,328,329
 320 193 320 193 308 180 c 0,330,331
 303 174 303 174 297 171 c 1,332,-1
 297 171 l 1,333,334
 303 168 303 168 308 161 c 0,335,336
 320 147 320 147 320 129 c 256,337,338
 320 110 320 110 308 97 c 0,339,340
 296 83 296 83 280 83 c 1,341,-1
 280 83 l 1,254,255
360 83 m 1,342,343
 344 83 344 83 332 97 c 128,-1,344
 320 111 320 111 320 129 c 256,345,346
 320 148 320 148 332 161 c 0,347,348
 337 167 337 167 343 171 c 1,349,-1
 343 171 l 1,350,351
 338 174 338 174 332 180 c 0,352,353
 320 194 320 194 320 212 c 256,354,355
 320 230 320 230 332 244 c 0,356,357
 337 250 337 250 343 254 c 1,358,-1
 343 254 l 1,359,360
 338 257 338 257 332 263 c 0,361,362
 320 278 320 278 320 296 c 0,363,364
 320 316 320 316 332 328 c 0,365,366
 337 334 337 334 343 338 c 1,367,-1
 343 338 l 1,368,369
 338 340 338 340 332 346 c 0,370,371
 320 360 320 360 320 379 c 256,372,373
 320 398 320 398 332 411 c 0,374,375
 337 417 337 417 343 421 c 1,376,-1
 343 421 l 1,377,378
 338 424 338 424 332 430 c 0,379,380
 320 444 320 444 320 462 c 0,381,382
 320 481 320 481 332 495 c 256,383,384
 344 508 344 508 360 508 c 128,-1,385
 376 508 376 508 388 495 c 256,386,387
 400 481 400 481 400 462 c 128,-1,388
 400 443 400 443 388 430 c 0,389,390
 382 424 382 424 376 421 c 1,391,-1
 376 421 l 1,392,393
 382 418 382 418 388 411 c 0,394,395
 400 397 400 397 400 379 c 256,396,397
 400 360 400 360 388 346 c 0,398,399
 382 340 382 340 376 338 c 1,400,-1
 376 338 l 1,401,402
 382 334 382 334 388 328 c 0,403,404
 400 314 400 314 400 296 c 0,405,406
 400 277 400 277 388 263 c 0,407,408
 382 257 382 257 376 254 c 1,409,-1
 376 254 l 1,410,411
 382 250 382 250 388 244 c 0,412,413
 400 230 400 230 400 212 c 256,414,415
 400 193 400 193 388 180 c 0,416,417
 382 174 382 174 376 171 c 1,418,-1
 376 171 l 1,419,420
 382 168 382 168 388 161 c 0,421,422
 400 147 400 147 400 129 c 256,423,424
 400 110 400 110 388 97 c 0,425,426
 376 83 376 83 360 83 c 1,427,-1
 360 83 l 1,342,343
520 333 m 1,428,429
 518.933333333 332.933333333 518.933333333 332.933333333 517.88 332.933333333 c 0,430,431
 503.133333333 332.933333333 503.133333333 332.933333333 491 346 c 0,432,433
 479.923076923 358.923076923 479.923076923 358.923076923 479.923076923 376.106508876 c 0,434,435
 479.923076923 397.909090909 479.923076923 397.909090909 491 411 c 0,436,437
 496 417 496 417 502 421 c 1,438,-1
 502 421 l 1,439,440
 496 424 496 424 491 430 c 0,441,442
 479.923076923 442.923076923 479.923076923 442.923076923 479.923076923 459.25443787 c 0,443,444
 479.923076923 480.902097902 479.923076923 480.902097902 491 495 c 256,445,446
 503 508 503 508 520 508 c 0,447,448
 536 508 536 508 548 495 c 256,449,450
 560 481 560 481 560 462 c 128,-1,451
 560 443 560 443 548 430 c 0,452,453
 543 424 543 424 537 421 c 1,454,-1
 537 421 l 1,455,456
 543 418 543 418 548 411 c 0,457,458
 560 397 560 397 560 379 c 256,459,460
 560 360 560 360 548 346 c 0,461,462
 536.8 332.933333333 536.8 332.933333333 522.115555556 332.933333333 c 0,463,464
 521.066666667 332.933333333 521.066666667 332.933333333 520 333 c 1,465,-1
 520 333 l 1,428,429
600 416 m 1,466,467
 584 416 584 416 572 430 c 256,468,469
 560 444 560 444 560 462 c 0,470,471
 560 481 560 481 572 495 c 256,472,473
 584 508 584 508 600 508 c 256,474,475
 616 508 616 508 628 495 c 256,476,477
 640 481 640 481 640 462 c 128,-1,478
 640 443 640 443 628 430 c 256,479,480
 616 416 616 416 600 416 c 1,481,-1
 600 416 l 1,466,467
EndSplineSet
EndChar

StartChar: plus
Encoding: 43 43 11
Width: 720
VWidth: 750
Flags: W
LayerCount: 2
Fore
SplineSet
40 250 m 1,0,1
 24 250 24 250 11 263 c 0,2,3
 0 278 0 278 0 296 c 0,4,5
 0 316 0 316 11 328 c 0,6,7
 22.2 341.066666667 22.2 341.066666667 37.7555555556 341.066666667 c 0,8,9
 38.8666666667 341.066666667 38.8666666667 341.066666667 40 341 c 256,10,11
 41.0666666667 341.066666667 41.0666666667 341.066666667 42.1155555556 341.066666667 c 0,12,13
 56.8 341.066666667 56.8 341.066666667 68 328 c 0,14,15
 80 314 80 314 80 296 c 0,16,17
 80 277 80 277 68 263 c 256,18,19
 56.8 249.933333333 56.8 249.933333333 42.1155555556 249.933333333 c 0,20,21
 41.0666666667 249.933333333 41.0666666667 249.933333333 40 250 c 1,22,-1
 40 250 l 1,0,1
120 250 m 1,23,24
 104 250 104 250 92 263 c 256,25,26
 80 278 80 278 80 296 c 0,27,28
 80 316 80 316 92 328 c 0,29,30
 103.2 341.066666667 103.2 341.066666667 117.884444444 341.066666667 c 0,31,32
 118.933333333 341.066666667 118.933333333 341.066666667 120 341 c 256,33,34
 121.066666667 341.066666667 121.066666667 341.066666667 122.115555556 341.066666667 c 0,35,36
 136.8 341.066666667 136.8 341.066666667 148 328 c 0,37,38
 159 314 159 314 160 296 c 0,39,40
 160 277 160 277 148 263 c 0,41,42
 136.8 249.933333333 136.8 249.933333333 122.115555556 249.933333333 c 0,43,44
 121.066666667 249.933333333 121.066666667 249.933333333 120 250 c 1,45,-1
 120 250 l 1,23,24
200 250 m 1,46,47
 184 250 184 250 172 263 c 256,48,49
 160 278 160 278 160 296 c 0,50,51
 160 316 160 316 172 328 c 0,52,53
 183.2 341.066666667 183.2 341.066666667 197.884444444 341.066666667 c 0,54,55
 198.933333333 341.066666667 198.933333333 341.066666667 200 341 c 128,-1,56
 201.066666667 341.066666667 201.066666667 341.066666667 202.115555556 341.066666667 c 0,57,58
 216.8 341.066666667 216.8 341.066666667 228 328 c 0,59,60
 240 314 240 314 240 296 c 0,61,62
 240 277 240 277 228 263 c 256,63,64
 216.8 249.933333333 216.8 249.933333333 202.115555556 249.933333333 c 0,65,66
 201.066666667 249.933333333 201.066666667 249.933333333 200 250 c 1,67,-1
 200 250 l 1,46,47
440 250 m 1,68,69
 424 250 424 250 412 263 c 256,70,71
 400 278 400 278 400 296 c 0,72,73
 400 316 400 316 412 328 c 0,74,75
 423.2 341.066666667 423.2 341.066666667 437.884444444 341.066666667 c 0,76,77
 438.933333333 341.066666667 438.933333333 341.066666667 440 341 c 256,78,79
 441.066666667 341.066666667 441.066666667 341.066666667 442.115555556 341.066666667 c 0,80,81
 456.8 341.066666667 456.8 341.066666667 468 328 c 0,82,83
 480 314 480 314 480 296 c 0,84,85
 480 277 480 277 468 263 c 256,86,87
 456.8 249.933333333 456.8 249.933333333 442.115555556 249.933333333 c 0,88,89
 441.066666667 249.933333333 441.066666667 249.933333333 440 250 c 1,90,-1
 440 250 l 1,68,69
520 250 m 1,91,92
 504 250 504 250 491 263 c 256,93,94
 479.923076923 276.846153846 479.923076923 276.846153846 479.923076923 293.24852071 c 0,95,96
 479.923076923 315.916083916 479.923076923 315.916083916 491 328 c 0,97,98
 502.2 341.066666667 502.2 341.066666667 517.755555556 341.066666667 c 0,99,100
 518.866666667 341.066666667 518.866666667 341.066666667 520 341 c 128,-1,101
 521.066666667 341.066666667 521.066666667 341.066666667 522.115555556 341.066666667 c 0,102,103
 536.8 341.066666667 536.8 341.066666667 548 328 c 0,104,105
 560 314 560 314 560 296 c 0,106,107
 560 277 560 277 548 263 c 256,108,109
 536.8 249.933333333 536.8 249.933333333 522.115555556 249.933333333 c 0,110,111
 521.066666667 249.933333333 521.066666667 249.933333333 520 250 c 1,112,-1
 520 250 l 1,91,92
600 250 m 1,113,114
 584 250 584 250 572 263 c 256,115,116
 560 278 560 278 560 296 c 0,117,118
 560 316 560 316 572 328 c 0,119,120
 583.2 341.066666667 583.2 341.066666667 597.884444444 341.066666667 c 0,121,122
 598.933333333 341.066666667 598.933333333 341.066666667 600 341 c 256,123,124
 601.066666667 341.066666667 601.066666667 341.066666667 602.115555556 341.066666667 c 0,125,126
 616.8 341.066666667 616.8 341.066666667 628 328 c 0,127,128
 640 314 640 314 640 296 c 0,129,130
 640 277 640 277 628 263 c 256,131,132
 616.8 249.933333333 616.8 249.933333333 602.115555556 249.933333333 c 0,133,134
 601.066666667 249.933333333 601.066666667 249.933333333 600 250 c 1,135,-1
 600 250 l 1,113,114
280 83 m 1,136,137
 264 83 264 83 251 97 c 0,138,139
 239.923076923 109.923076923 239.923076923 109.923076923 239.923076923 126.25443787 c 0,140,141
 239.923076923 147.909090909 239.923076923 147.909090909 251 161 c 0,142,143
 256 167 256 167 263 171 c 1,144,-1
 263 171 l 1,145,146
 257 174 257 174 251 180 c 0,147,148
 239.923076923 192.923076923 239.923076923 192.923076923 239.923076923 209.25443787 c 0,149,150
 239.923076923 229.902097902 239.923076923 229.902097902 251 244 c 0,151,152
 256 250 256 250 263 254 c 1,153,-1
 263 254 l 1,154,155
 257 257 257 257 251 263 c 0,156,157
 239.923076923 276.846153846 239.923076923 276.846153846 239.923076923 293.24852071 c 0,158,159
 239.923076923 315.916083916 239.923076923 315.916083916 251 328 c 0,160,161
 256 334 256 334 263 338 c 1,162,-1
 263 338 l 1,163,164
 257 340 257 340 251 346 c 0,165,166
 239.923076923 358.923076923 239.923076923 358.923076923 239.923076923 376.106508876 c 0,167,168
 239.923076923 397.909090909 239.923076923 397.909090909 251 411 c 0,169,170
 256 417 256 417 263 421 c 1,171,-1
 263 421 l 1,172,173
 257 424 257 424 251 430 c 0,174,175
 239.923076923 442.923076923 239.923076923 442.923076923 239.923076923 459.25443787 c 0,176,177
 239.923076923 480.902097902 239.923076923 480.902097902 251 495 c 256,178,179
 263 508 263 508 280 508 c 256,180,181
 296 508 296 508 308 495 c 256,182,183
 320 481 320 481 320 462 c 128,-1,184
 320 443 320 443 308 430 c 0,185,186
 303 424 303 424 297 421 c 1,187,-1
 297 421 l 1,188,189
 303 418 303 418 308 411 c 0,190,191
 320 397 320 397 320 379 c 256,192,193
 320 360 320 360 308 346 c 0,194,195
 303 340 303 340 297 338 c 1,196,-1
 297 338 l 1,197,198
 303 334 303 334 308 328 c 0,199,200
 320 314 320 314 320 296 c 0,201,202
 320 277 320 277 308 263 c 0,203,204
 303 257 303 257 297 254 c 1,205,-1
 297 254 l 1,206,207
 303 250 303 250 308 244 c 0,208,209
 320 230 320 230 320 212 c 256,210,211
 320 193 320 193 308 180 c 0,212,213
 303 174 303 174 297 171 c 1,214,-1
 297 171 l 1,215,216
 303 168 303 168 308 161 c 0,217,218
 320 147 320 147 320 129 c 256,219,220
 320 110 320 110 308 97 c 0,221,222
 296 83 296 83 280 83 c 1,223,-1
 280 83 l 1,136,137
360 83 m 1,224,225
 344 83 344 83 332 97 c 128,-1,226
 320 111 320 111 320 129 c 256,227,228
 320 148 320 148 332 161 c 0,229,230
 337 167 337 167 343 171 c 1,231,-1
 343 171 l 1,232,233
 338 174 338 174 332 180 c 0,234,235
 320 194 320 194 320 212 c 256,236,237
 320 230 320 230 332 244 c 0,238,239
 337 250 337 250 343 254 c 1,240,-1
 343 254 l 1,241,242
 338 257 338 257 332 263 c 0,243,244
 320 278 320 278 320 296 c 0,245,246
 320 316 320 316 332 328 c 0,247,248
 337 334 337 334 343 338 c 1,249,-1
 343 338 l 1,250,251
 338 340 338 340 332 346 c 0,252,253
 320 360 320 360 320 379 c 256,254,255
 320 398 320 398 332 411 c 0,256,257
 337 417 337 417 343 421 c 1,258,-1
 343 421 l 1,259,260
 338 424 338 424 332 430 c 0,261,262
 320 444 320 444 320 462 c 0,263,264
 320 481 320 481 332 495 c 256,265,266
 344 508 344 508 360 508 c 128,-1,267
 376 508 376 508 388 495 c 256,268,269
 400 481 400 481 400 462 c 128,-1,270
 400 443 400 443 388 430 c 0,271,272
 382 424 382 424 376 421 c 1,273,-1
 376 421 l 1,274,275
 382 418 382 418 388 411 c 0,276,277
 400 397 400 397 400 379 c 256,278,279
 400 360 400 360 388 346 c 0,280,281
 382 340 382 340 376 338 c 1,282,-1
 376 338 l 1,283,284
 382 334 382 334 388 328 c 0,285,286
 400 314 400 314 400 296 c 0,287,288
 400 277 400 277 388 263 c 0,289,290
 382 257 382 257 376 254 c 1,291,-1
 376 254 l 1,292,293
 382 250 382 250 388 244 c 0,294,295
 400 230 400 230 400 212 c 256,296,297
 400 193 400 193 388 180 c 0,298,299
 382 174 382 174 376 171 c 1,300,-1
 376 171 l 1,301,302
 382 168 382 168 388 161 c 0,303,304
 400 147 400 147 400 129 c 256,305,306
 400 110 400 110 388 97 c 0,307,308
 376 83 376 83 360 83 c 1,309,-1
 360 83 l 1,224,225
EndSplineSet
EndChar

StartChar: comma
Encoding: 44 44 12
Width: 720
VWidth: 750
Flags: W
LayerCount: 2
Fore
SplineSet
200 -83 m 1,0,1
 184 -83 184 -83 172 -70 c 0,2,3
 160 -56 160 -56 160 -38 c 256,4,5
 160 -18 160 -18 172 -4 c 0,6,7
 183.142857143 8.07142857143 183.142857143 8.07142857143 197.734693878 8.07142857143 c 0,8,9
 198.857142857 8.07142857143 198.857142857 8.07142857143 200 8 c 0,10,11
 216 8 216 8 228 -4 c 0,12,13
 240 -18 240 -18 240 -38 c 256,14,15
 240 -57 240 -57 228 -70 c 0,16,17
 216.8 -83.0666666667 216.8 -83.0666666667 202.115555556 -83.0666666667 c 0,18,19
 201.066666667 -83.0666666667 201.066666667 -83.0666666667 200 -83 c 1,20,-1
 200 -83 l 1,0,1
200 83 m 1,21,22
 184 83 184 83 172 97 c 128,-1,23
 160 111 160 111 160 129 c 256,24,25
 160 148 160 148 172 161 c 0,26,27
 184 175 184 175 200 175 c 128,-1,28
 216 175 216 175 228 161 c 128,-1,29
 240 147 240 147 240 129 c 256,30,31
 240 110 240 110 228 97 c 0,32,33
 216 83 216 83 200 83 c 1,34,-1
 200 83 l 1,21,22
440 83 m 1,35,36
 424 83 424 83 412 97 c 128,-1,37
 400 111 400 111 400 129 c 256,38,39
 400 148 400 148 412 161 c 0,40,41
 424 175 424 175 440 175 c 256,42,43
 456 175 456 175 468 161 c 128,-1,44
 480 147 480 147 480 129 c 256,45,46
 480 110 480 110 468 97 c 0,47,48
 456 83 456 83 440 83 c 1,49,-1
 440 83 l 1,35,36
280 -83 m 1,50,51
 264 -83 264 -83 251 -70 c 0,52,53
 239.923076923 -57.0769230769 239.923076923 -57.0769230769 239.923076923 -40.7455621302 c 0,54,55
 239.923076923 -18.0979020979 239.923076923 -18.0979020979 251 -4 c 0,56,57
 256 1 256 1 263 4 c 1,58,-1
 263 4 l 1,59,60
 257 8 257 8 251 14 c 0,61,62
 239.923076923 26.9230769231 239.923076923 26.9230769231 239.923076923 43.2544378698 c 0,63,64
 239.923076923 64.9090909091 239.923076923 64.9090909091 251 78 c 0,65,66
 256 84 256 84 263 87 c 1,67,-1
 263 87 l 1,68,69
 257 90 257 90 251 97 c 0,70,71
 239.923076923 109.923076923 239.923076923 109.923076923 239.923076923 126.25443787 c 0,72,73
 239.923076923 147.909090909 239.923076923 147.909090909 251 161 c 0,74,75
 256 167 256 167 263 171 c 1,76,-1
 263 171 l 1,77,78
 257 174 257 174 251 180 c 0,79,80
 239.923076923 192.923076923 239.923076923 192.923076923 239.923076923 209.25443787 c 0,81,82
 239.923076923 229.902097902 239.923076923 229.902097902 251 244 c 0,83,84
 263 258 263 258 280 258 c 256,85,86
 296 258 296 258 308 244 c 128,-1,87
 320 230 320 230 320 212 c 256,88,89
 320 193 320 193 308 180 c 0,90,91
 303 174 303 174 297 171 c 1,92,-1
 297 171 l 1,93,94
 303 168 303 168 308 161 c 0,95,96
 320 147 320 147 320 129 c 256,97,98
 320 110 320 110 308 97 c 0,99,100
 303 91 303 91 297 87 c 1,101,-1
 297 87 l 1,102,103
 303 84 303 84 308 78 c 0,104,105
 320 64 320 64 320 46 c 128,-1,106
 320 28 320 28 308 14 c 0,107,108
 303 8 303 8 297 4 c 1,109,-1
 297 4 l 1,110,111
 303 2 303 2 308 -4 c 0,112,113
 320 -18 320 -18 320 -38 c 256,114,115
 320 -57 320 -57 308 -70 c 0,116,117
 296.8 -83.0666666667 296.8 -83.0666666667 282.115555556 -83.0666666667 c 0,118,119
 281.066666667 -83.0666666667 281.066666667 -83.0666666667 280 -83 c 1,120,-1
 280 -83 l 1,50,51
360 0 m 1,121,122
 344 0 344 0 332 14 c 128,-1,123
 320 28 320 28 320 46 c 0,124,125
 320 65 320 65 332 78 c 0,126,127
 337 84 337 84 343 87 c 1,128,-1
 343 87 l 1,129,130
 338 90 338 90 332 97 c 0,131,132
 320 111 320 111 320 129 c 256,133,134
 320 148 320 148 332 161 c 0,135,136
 337 167 337 167 343 171 c 1,137,-1
 343 171 l 1,138,139
 338 174 338 174 332 180 c 0,140,141
 320 194 320 194 320 212 c 256,142,143
 320 230 320 230 332 244 c 128,-1,144
 344 258 344 258 360 258 c 128,-1,145
 376 258 376 258 388 244 c 128,-1,146
 400 230 400 230 400 212 c 256,147,148
 400 193 400 193 388 180 c 0,149,150
 382 174 382 174 376 171 c 1,151,-1
 376 171 l 1,152,153
 382 168 382 168 388 161 c 0,154,155
 400 147 400 147 400 129 c 256,156,157
 400 110 400 110 388 97 c 0,158,159
 382 91 382 91 376 87 c 1,160,-1
 376 87 l 1,161,162
 382 84 382 84 388 78 c 0,163,164
 400 64 400 64 400 46 c 128,-1,165
 400 28 400 28 388 14 c 128,-1,166
 376 0 376 0 360 0 c 1,167,-1
 360 0 l 1,121,122
EndSplineSet
EndChar

StartChar: hyphen
Encoding: 45 45 13
Width: 720
VWidth: 750
Flags: W
LayerCount: 2
Fore
SplineSet
40 250 m 1,0,1
 24 250 24 250 11 263 c 0,2,3
 0 278 0 278 0 296 c 0,4,5
 0 316 0 316 11 328 c 0,6,7
 22.2 341.066666667 22.2 341.066666667 37.7555555556 341.066666667 c 0,8,9
 38.8666666667 341.066666667 38.8666666667 341.066666667 40 341 c 256,10,11
 41.0666666667 341.066666667 41.0666666667 341.066666667 42.1155555556 341.066666667 c 0,12,13
 56.8 341.066666667 56.8 341.066666667 68 328 c 0,14,15
 80 314 80 314 80 296 c 0,16,17
 80 277 80 277 68 263 c 256,18,19
 56.8 249.933333333 56.8 249.933333333 42.1155555556 249.933333333 c 0,20,21
 41.0666666667 249.933333333 41.0666666667 249.933333333 40 250 c 1,22,-1
 40 250 l 1,0,1
120 250 m 1,23,24
 104 250 104 250 92 263 c 256,25,26
 80 278 80 278 80 296 c 0,27,28
 80 316 80 316 92 328 c 0,29,30
 103.2 341.066666667 103.2 341.066666667 117.884444444 341.066666667 c 0,31,32
 118.933333333 341.066666667 118.933333333 341.066666667 120 341 c 256,33,34
 121.066666667 341.066666667 121.066666667 341.066666667 122.115555556 341.066666667 c 0,35,36
 136.8 341.066666667 136.8 341.066666667 148 328 c 0,37,38
 159 314 159 314 160 296 c 0,39,40
 160 277 160 277 148 263 c 0,41,42
 136.8 249.933333333 136.8 249.933333333 122.115555556 249.933333333 c 0,43,44
 121.066666667 249.933333333 121.066666667 249.933333333 120 250 c 1,45,-1
 120 250 l 1,23,24
200 250 m 1,46,47
 184 250 184 250 172 263 c 256,48,49
 160 278 160 278 160 296 c 0,50,51
 160 316 160 316 172 328 c 0,52,53
 183.2 341.066666667 183.2 341.066666667 197.884444444 341.066666667 c 0,54,55
 198.933333333 341.066666667 198.933333333 341.066666667 200 341 c 128,-1,56
 201.066666667 341.066666667 201.066666667 341.066666667 202.115555556 341.066666667 c 0,57,58
 216.8 341.066666667 216.8 341.066666667 228 328 c 0,59,60
 240 314 240 314 240 296 c 0,61,62
 240 277 240 277 228 263 c 256,63,64
 216.8 249.933333333 216.8 249.933333333 202.115555556 249.933333333 c 0,65,66
 201.066666667 249.933333333 201.066666667 249.933333333 200 250 c 1,67,-1
 200 250 l 1,46,47
280 250 m 1,68,69
 264 250 264 250 251 263 c 256,70,71
 239.923076923 276.846153846 239.923076923 276.846153846 239.923076923 293.24852071 c 0,72,73
 239.923076923 315.916083916 239.923076923 315.916083916 251 328 c 0,74,75
 262.2 341.066666667 262.2 341.066666667 277.755555556 341.066666667 c 0,76,77
 278.866666667 341.066666667 278.866666667 341.066666667 280 341 c 256,78,79
 281.066666667 341.066666667 281.066666667 341.066666667 282.115555556 341.066666667 c 0,80,81
 296.8 341.066666667 296.8 341.066666667 308 328 c 0,82,83
 320 314 320 314 320 296 c 0,84,85
 320 277 320 277 308 263 c 256,86,87
 296.8 249.933333333 296.8 249.933333333 282.115555556 249.933333333 c 0,88,89
 281.066666667 249.933333333 281.066666667 249.933333333 280 250 c 1,90,-1
 280 250 l 1,68,69
360 250 m 1,91,92
 344 250 344 250 332 263 c 256,93,94
 320 278 320 278 320 296 c 0,95,96
 320 316 320 316 332 328 c 0,97,98
 343.2 341.066666667 343.2 341.066666667 357.884444444 341.066666667 c 0,99,100
 358.933333333 341.066666667 358.933333333 341.066666667 360 341 c 128,-1,101
 361.066666667 341.066666667 361.066666667 341.066666667 362.115555556 341.066666667 c 0,102,103
 376.8 341.066666667 376.8 341.066666667 388 328 c 0,104,105
 400 314 400 314 400 296 c 0,106,107
 400 277 400 277 388 263 c 256,108,109
 376.8 249.933333333 376.8 249.933333333 362.115555556 249.933333333 c 0,110,111
 361.066666667 249.933333333 361.066666667 249.933333333 360 250 c 1,112,-1
 360 250 l 1,91,92
440 250 m 1,113,114
 424 250 424 250 412 263 c 256,115,116
 400 278 400 278 400 296 c 0,117,118
 400 316 400 316 412 328 c 0,119,120
 423.2 341.066666667 423.2 341.066666667 437.884444444 341.066666667 c 0,121,122
 438.933333333 341.066666667 438.933333333 341.066666667 440 341 c 256,123,124
 441.066666667 341.066666667 441.066666667 341.066666667 442.115555556 341.066666667 c 0,125,126
 456.8 341.066666667 456.8 341.066666667 468 328 c 0,127,128
 480 314 480 314 480 296 c 0,129,130
 480 277 480 277 468 263 c 256,131,132
 456.8 249.933333333 456.8 249.933333333 442.115555556 249.933333333 c 0,133,134
 441.066666667 249.933333333 441.066666667 249.933333333 440 250 c 1,135,-1
 440 250 l 1,113,114
520 250 m 1,136,137
 504 250 504 250 491 263 c 256,138,139
 479.923076923 276.846153846 479.923076923 276.846153846 479.923076923 293.24852071 c 0,140,141
 479.923076923 315.916083916 479.923076923 315.916083916 491 328 c 0,142,143
 502.2 341.066666667 502.2 341.066666667 517.755555556 341.066666667 c 0,144,145
 518.866666667 341.066666667 518.866666667 341.066666667 520 341 c 128,-1,146
 521.066666667 341.066666667 521.066666667 341.066666667 522.115555556 341.066666667 c 0,147,148
 536.8 341.066666667 536.8 341.066666667 548 328 c 0,149,150
 560 314 560 314 560 296 c 0,151,152
 560 277 560 277 548 263 c 256,153,154
 536.8 249.933333333 536.8 249.933333333 522.115555556 249.933333333 c 0,155,156
 521.066666667 249.933333333 521.066666667 249.933333333 520 250 c 1,157,-1
 520 250 l 1,136,137
600 250 m 1,158,159
 584 250 584 250 572 263 c 256,160,161
 560 278 560 278 560 296 c 0,162,163
 560 316 560 316 572 328 c 0,164,165
 583.2 341.066666667 583.2 341.066666667 597.884444444 341.066666667 c 0,166,167
 598.933333333 341.066666667 598.933333333 341.066666667 600 341 c 256,168,169
 601.066666667 341.066666667 601.066666667 341.066666667 602.115555556 341.066666667 c 0,170,171
 616.8 341.066666667 616.8 341.066666667 628 328 c 0,172,173
 640 314 640 314 640 296 c 0,174,175
 640 277 640 277 628 263 c 256,176,177
 616.8 249.933333333 616.8 249.933333333 602.115555556 249.933333333 c 0,178,179
 601.066666667 249.933333333 601.066666667 249.933333333 600 250 c 1,180,-1
 600 250 l 1,158,159
EndSplineSet
EndChar

StartChar: period
Encoding: 46 46 14
Width: 720
VWidth: 750
Flags: W
LayerCount: 2
Fore
SplineSet
200 83 m 1,0,1
 184 83 184 83 172 97 c 128,-1,2
 160 111 160 111 160 129 c 256,3,4
 160 148 160 148 172 161 c 0,5,6
 184 175 184 175 200 175 c 128,-1,7
 216 175 216 175 228 161 c 128,-1,8
 240 147 240 147 240 129 c 256,9,10
 240 110 240 110 228 97 c 0,11,12
 216 83 216 83 200 83 c 1,13,-1
 200 83 l 1,0,1
440 83 m 1,14,15
 424 83 424 83 412 97 c 128,-1,16
 400 111 400 111 400 129 c 256,17,18
 400 148 400 148 412 161 c 0,19,20
 424 175 424 175 440 175 c 256,21,22
 456 175 456 175 468 161 c 128,-1,23
 480 147 480 147 480 129 c 256,24,25
 480 110 480 110 468 97 c 0,26,27
 456 83 456 83 440 83 c 1,28,-1
 440 83 l 1,14,15
280 0 m 1,29,30
 264 0 264 0 251 14 c 0,31,32
 239.923076923 26.9230769231 239.923076923 26.9230769231 239.923076923 43.2544378698 c 0,33,34
 239.923076923 64.9090909091 239.923076923 64.9090909091 251 78 c 0,35,36
 256 84 256 84 263 87 c 1,37,-1
 263 87 l 1,38,39
 257 90 257 90 251 97 c 0,40,41
 239.923076923 109.923076923 239.923076923 109.923076923 239.923076923 126.25443787 c 0,42,43
 239.923076923 147.909090909 239.923076923 147.909090909 251 161 c 0,44,45
 256 167 256 167 263 171 c 1,46,-1
 263 171 l 1,47,48
 257 174 257 174 251 180 c 0,49,50
 239.923076923 192.923076923 239.923076923 192.923076923 239.923076923 209.25443787 c 0,51,52
 239.923076923 229.902097902 239.923076923 229.902097902 251 244 c 0,53,54
 263 258 263 258 280 258 c 256,55,56
 296 258 296 258 308 244 c 128,-1,57
 320 230 320 230 320 212 c 256,58,59
 320 193 320 193 308 180 c 0,60,61
 303 174 303 174 297 171 c 1,62,-1
 297 171 l 1,63,64
 303 168 303 168 308 161 c 0,65,66
 320 147 320 147 320 129 c 256,67,68
 320 110 320 110 308 97 c 0,69,70
 303 91 303 91 297 87 c 1,71,-1
 297 87 l 1,72,73
 303 84 303 84 308 78 c 0,74,75
 320 64 320 64 320 46 c 128,-1,76
 320 28 320 28 308 14 c 128,-1,77
 296 0 296 0 280 0 c 1,78,-1
 280 0 l 1,29,30
360 0 m 1,79,80
 344 0 344 0 332 14 c 128,-1,81
 320 28 320 28 320 46 c 0,82,83
 320 65 320 65 332 78 c 0,84,85
 337 84 337 84 343 87 c 1,86,-1
 343 87 l 1,87,88
 338 90 338 90 332 97 c 0,89,90
 320 111 320 111 320 129 c 256,91,92
 320 148 320 148 332 161 c 0,93,94
 337 167 337 167 343 171 c 1,95,-1
 343 171 l 1,96,97
 338 174 338 174 332 180 c 0,98,99
 320 194 320 194 320 212 c 256,100,101
 320 230 320 230 332 244 c 128,-1,102
 344 258 344 258 360 258 c 128,-1,103
 376 258 376 258 388 244 c 128,-1,104
 400 230 400 230 400 212 c 256,105,106
 400 193 400 193 388 180 c 0,107,108
 382 174 382 174 376 171 c 1,109,-1
 376 171 l 1,110,111
 382 168 382 168 388 161 c 0,112,113
 400 147 400 147 400 129 c 256,114,115
 400 110 400 110 388 97 c 0,116,117
 382 91 382 91 376 87 c 1,118,-1
 376 87 l 1,119,120
 382 84 382 84 388 78 c 0,121,122
 400 64 400 64 400 46 c 128,-1,123
 400 28 400 28 388 14 c 128,-1,124
 376 0 376 0 360 0 c 1,125,-1
 360 0 l 1,79,80
EndSplineSet
EndChar

StartChar: slash
Encoding: 47 47 15
Width: 720
VWidth: 750
Flags: W
LayerCount: 2
Fore
SplineSet
40 0 m 1,0,1
 24 0 24 0 11 14 c 0,2,3
 0 28 0 28 0 46 c 0,4,5
 0 65 0 65 11 78 c 0,6,7
 23 92 23 92 40 92 c 256,8,9
 56 92 56 92 68 78 c 256,10,11
 80 64 80 64 80 46 c 128,-1,12
 80 28 80 28 68 14 c 128,-1,13
 56 0 56 0 40 0 c 1,14,-1
 40 0 l 1,0,1
120 0 m 1,15,16
 104 0 104 0 92 14 c 128,-1,17
 80 28 80 28 80 46 c 0,18,19
 80 65 80 65 92 78 c 0,20,21
 97 84 97 84 103 87 c 1,22,-1
 103 87 l 1,23,24
 98 90 98 90 92 97 c 0,25,26
 80 111 80 111 80 129 c 256,27,28
 80 148 80 148 92 161 c 0,29,30
 104 175 104 175 120 175 c 256,31,32
 136 175 136 175 148 161 c 0,33,34
 159 147 159 147 160 129 c 256,35,36
 160 110 160 110 148 97 c 0,37,38
 143 91 143 91 137 87 c 1,39,-1
 137 87 l 1,40,41
 142 84 142 84 148 78 c 0,42,43
 159 64 159 64 160 46 c 0,44,45
 160 28 160 28 148 14 c 128,-1,46
 136 0 136 0 120 0 c 1,47,-1
 120 0 l 1,15,16
200 83 m 1,48,49
 184 83 184 83 172 97 c 128,-1,50
 160 111 160 111 160 129 c 256,51,52
 160 148 160 148 172 161 c 0,53,54
 177 167 177 167 183 171 c 1,55,-1
 183 171 l 1,56,57
 177 174 177 174 172 180 c 0,58,59
 160 194 160 194 160 212 c 256,60,61
 160 230 160 230 172 244 c 128,-1,62
 184 258 184 258 200 258 c 128,-1,63
 216 258 216 258 228 244 c 128,-1,64
 240 230 240 230 240 212 c 256,65,66
 240 193 240 193 228 180 c 0,67,68
 223 174 223 174 217 171 c 1,69,-1
 217 171 l 1,70,71
 223 168 223 168 228 161 c 0,72,73
 240 147 240 147 240 129 c 256,74,75
 240 110 240 110 228 97 c 0,76,77
 216 83 216 83 200 83 c 1,78,-1
 200 83 l 1,48,49
280 166 m 1,79,80
 264 166 264 166 251 180 c 0,81,82
 239.923076923 192.923076923 239.923076923 192.923076923 239.923076923 209.25443787 c 0,83,84
 239.923076923 229.902097902 239.923076923 229.902097902 251 244 c 0,85,86
 256 250 256 250 263 254 c 1,87,-1
 263 254 l 1,88,89
 257 257 257 257 251 263 c 0,90,91
 239.923076923 276.846153846 239.923076923 276.846153846 239.923076923 293.24852071 c 0,92,93
 239.923076923 315.916083916 239.923076923 315.916083916 251 328 c 0,94,95
 262.2 341.066666667 262.2 341.066666667 277.755555556 341.066666667 c 0,96,97
 278.866666667 341.066666667 278.866666667 341.066666667 280 341 c 256,98,99
 281.066666667 341.066666667 281.066666667 341.066666667 282.115555556 341.066666667 c 0,100,101
 296.8 341.066666667 296.8 341.066666667 308 328 c 0,102,103
 320 314 320 314 320 296 c 0,104,105
 320 277 320 277 308 263 c 0,106,107
 303 257 303 257 297 254 c 1,108,-1
 297 254 l 1,109,110
 303 250 303 250 308 244 c 0,111,112
 320 230 320 230 320 212 c 256,113,114
 320 193 320 193 308 180 c 0,115,116
 296 166 296 166 280 166 c 1,117,-1
 280 166 l 1,79,80
360 250 m 1,118,119
 344 250 344 250 332 263 c 256,120,121
 320 278 320 278 320 296 c 0,122,123
 320 316 320 316 332 328 c 0,124,125
 337 334 337 334 343 338 c 1,126,-1
 343 338 l 1,127,128
 338 340 338 340 332 346 c 0,129,130
 320 360 320 360 320 379 c 256,131,132
 320 398 320 398 332 411 c 128,-1,133
 344 424 344 424 360 424 c 128,-1,134
 376 424 376 424 388 411 c 0,135,136
 400 397 400 397 400 379 c 256,137,138
 400 360 400 360 388 346 c 0,139,140
 382 340 382 340 376 338 c 1,141,-1
 376 338 l 1,142,143
 382 334 382 334 388 328 c 0,144,145
 400 314 400 314 400 296 c 0,146,147
 400 277 400 277 388 263 c 256,148,149
 376.8 249.933333333 376.8 249.933333333 362.115555556 249.933333333 c 0,150,151
 361.066666667 249.933333333 361.066666667 249.933333333 360 250 c 1,152,-1
 360 250 l 1,118,119
440 333 m 1,153,154
 438.933333333 332.933333333 438.933333333 332.933333333 437.884444444 332.933333333 c 0,155,156
 423.2 332.933333333 423.2 332.933333333 412 346 c 0,157,158
 400 360 400 360 400 379 c 256,159,160
 400 398 400 398 412 411 c 0,161,162
 417 417 417 417 423 421 c 1,163,-1
 423 421 l 1,164,165
 417 424 417 424 412 430 c 0,166,167
 400 444 400 444 400 462 c 0,168,169
 400 481 400 481 412 495 c 256,170,171
 424 508 424 508 440 508 c 256,172,173
 456 508 456 508 468 495 c 256,174,175
 480 481 480 481 480 462 c 128,-1,176
 480 443 480 443 468 430 c 0,177,178
 463 424 463 424 457 421 c 1,179,-1
 457 421 l 1,180,181
 463 418 463 418 468 411 c 0,182,183
 480 397 480 397 480 379 c 256,184,185
 480 360 480 360 468 346 c 0,186,187
 456.8 332.933333333 456.8 332.933333333 442.115555556 332.933333333 c 0,188,189
 441.066666667 332.933333333 441.066666667 332.933333333 440 333 c 1,190,-1
 440 333 l 1,153,154
520 416 m 1,191,192
 504 416 504 416 491 430 c 256,193,194
 479.923076923 442.923076923 479.923076923 442.923076923 479.923076923 459.25443787 c 0,195,196
 479.923076923 480.902097902 479.923076923 480.902097902 491 495 c 0,197,198
 496 501 496 501 502 504 c 1,199,-1
 502 504 l 1,200,201
 496 507 496 507 491 513 c 0,202,203
 479.923076923 525.923076923 479.923076923 525.923076923 479.923076923 543.106508876 c 0,204,205
 479.923076923 564.909090909 479.923076923 564.909090909 491 578 c 0,206,207
 503 592 503 592 520 592 c 0,208,209
 536 592 536 592 548 578 c 128,-1,210
 560 564 560 564 560 546 c 256,211,212
 560 527 560 527 548 513 c 0,213,214
 543 507 543 507 537 504 c 1,215,-1
 537 504 l 1,216,217
 543 501 543 501 548 495 c 0,218,219
 560 481 560 481 560 462 c 128,-1,220
 560 443 560 443 548 430 c 256,221,222
 536 416 536 416 520 416 c 1,223,-1
 520 416 l 1,191,192
600 500 m 1,224,225
 584 500 584 500 572 513 c 0,226,227
 560 527 560 527 560 546 c 256,228,229
 560 565 560 565 572 578 c 0,230,231
 584 592 584 592 600 592 c 256,232,233
 616 592 616 592 628 578 c 128,-1,234
 640 564 640 564 640 546 c 256,235,236
 640 527 640 527 628 513 c 0,237,238
 616.8 499.933333333 616.8 499.933333333 602.115555556 499.933333333 c 0,239,240
 601.066666667 499.933333333 601.066666667 499.933333333 600 500 c 1,241,-1
 600 500 l 1,224,225
EndSplineSet
EndChar

StartChar: zero
Encoding: 48 48 16
Width: 720
VWidth: 750
Flags: W
LayerCount: 2
Fore
SplineSet
280 0 m 1,0,1
 264 0 264 0 251 14 c 0,2,3
 239.923076923 26.9230769231 239.923076923 26.9230769231 239.923076923 43.2544378698 c 0,4,5
 239.923076923 64.9090909091 239.923076923 64.9090909091 251 78 c 256,6,7
 263 92 263 92 280 92 c 256,8,9
 296 92 296 92 308 78 c 256,10,11
 320 64 320 64 320 46 c 128,-1,12
 320 28 320 28 308 14 c 128,-1,13
 296 0 296 0 280 0 c 1,14,-1
 280 0 l 1,0,1
360 0 m 1,15,16
 344 0 344 0 332 14 c 128,-1,17
 320 28 320 28 320 46 c 0,18,19
 320 65 320 65 332 78 c 256,20,21
 344 92 344 92 360 92 c 128,-1,22
 376 92 376 92 388 78 c 256,23,24
 400 64 400 64 400 46 c 128,-1,25
 400 28 400 28 388 14 c 128,-1,26
 376 0 376 0 360 0 c 1,27,-1
 360 0 l 1,15,16
120 83 m 1,28,29
 104 83 104 83 92 97 c 128,-1,30
 80 111 80 111 80 129 c 256,31,32
 80 148 80 148 92 161 c 0,33,34
 97 167 97 167 103 171 c 1,35,-1
 103 171 l 1,36,37
 98 174 98 174 92 180 c 0,38,39
 80 194 80 194 80 212 c 256,40,41
 80 230 80 230 92 244 c 0,42,43
 97 250 97 250 103 254 c 1,44,-1
 103 254 l 1,45,46
 98 257 98 257 92 263 c 0,47,48
 80 278 80 278 80 296 c 0,49,50
 80 316 80 316 92 328 c 0,51,52
 97 334 97 334 103 338 c 1,53,-1
 103 338 l 1,54,55
 98 340 98 340 92 346 c 0,56,57
 80 360 80 360 80 379 c 256,58,59
 80 398 80 398 92 411 c 0,60,61
 97 417 97 417 103 421 c 1,62,-1
 103 421 l 1,63,64
 98 424 98 424 92 430 c 0,65,66
 80 444 80 444 80 462 c 0,67,68
 80 481 80 481 92 495 c 256,69,70
 104 508 104 508 120 508 c 256,71,72
 136 508 136 508 148 495 c 0,73,74
 159 481 159 481 160 462 c 0,75,76
 160 443 160 443 148 430 c 0,77,78
 143 424 143 424 137 421 c 1,79,-1
 137 421 l 1,80,81
 142 418 142 418 148 411 c 0,82,83
 159 397 159 397 160 379 c 256,84,85
 160 360 160 360 148 346 c 0,86,87
 143 340 143 340 137 338 c 1,88,-1
 137 338 l 1,89,90
 142 334 142 334 148 328 c 0,91,92
 159 314 159 314 160 296 c 0,93,94
 160 277 160 277 148 263 c 0,95,96
 143 257 143 257 137 254 c 1,97,-1
 137 254 l 1,98,99
 142 250 142 250 148 244 c 0,100,101
 159 230 159 230 160 212 c 256,102,103
 160 193 160 193 148 180 c 0,104,105
 143 174 143 174 137 171 c 1,106,-1
 137 171 l 1,107,108
 142 168 142 168 148 161 c 0,109,110
 159 147 159 147 160 129 c 256,111,112
 160 110 160 110 148 97 c 0,113,114
 136 83 136 83 120 83 c 1,115,-1
 120 83 l 1,28,29
520 83 m 1,116,117
 504 83 504 83 491 97 c 0,118,119
 479.923076923 109.923076923 479.923076923 109.923076923 479.923076923 126.25443787 c 0,120,121
 479.923076923 147.909090909 479.923076923 147.909090909 491 161 c 0,122,123
 496 167 496 167 502 171 c 1,124,-1
 502 171 l 1,125,126
 496 174 496 174 491 180 c 0,127,128
 479.923076923 192.923076923 479.923076923 192.923076923 479.923076923 209.25443787 c 0,129,130
 479.923076923 229.902097902 479.923076923 229.902097902 491 244 c 0,131,132
 496 250 496 250 502 254 c 1,133,-1
 502 254 l 1,134,135
 496 257 496 257 491 263 c 0,136,137
 479.923076923 276.846153846 479.923076923 276.846153846 479.923076923 293.24852071 c 0,138,139
 479.923076923 315.916083916 479.923076923 315.916083916 491 328 c 0,140,141
 496 334 496 334 502 338 c 1,142,-1
 502 338 l 1,143,144
 496 340 496 340 491 346 c 0,145,146
 479.923076923 358.923076923 479.923076923 358.923076923 479.923076923 376.106508876 c 0,147,148
 479.923076923 397.909090909 479.923076923 397.909090909 491 411 c 0,149,150
 496 417 496 417 502 421 c 1,151,-1
 502 421 l 1,152,153
 496 424 496 424 491 430 c 0,154,155
 479.923076923 442.923076923 479.923076923 442.923076923 479.923076923 459.25443787 c 0,156,157
 479.923076923 480.902097902 479.923076923 480.902097902 491 495 c 256,158,159
 503 508 503 508 520 508 c 0,160,161
 536 508 536 508 548 495 c 256,162,163
 560 481 560 481 560 462 c 128,-1,164
 560 443 560 443 548 430 c 0,165,166
 543 424 543 424 537 421 c 1,167,-1
 537 421 l 1,168,169
 543 418 543 418 548 411 c 0,170,171
 560 397 560 397 560 379 c 256,172,173
 560 360 560 360 548 346 c 0,174,175
 543 340 543 340 537 338 c 1,176,-1
 537 338 l 1,177,178
 543 334 543 334 548 328 c 0,179,180
 560 314 560 314 560 296 c 0,181,182
 560 277 560 277 548 263 c 0,183,184
 543 257 543 257 537 254 c 1,185,-1
 537 254 l 1,186,187
 543 250 543 250 548 244 c 0,188,189
 560 230 560 230 560 212 c 256,190,191
 560 193 560 193 548 180 c 0,192,193
 543 174 543 174 537 171 c 1,194,-1
 537 171 l 1,195,196
 543 168 543 168 548 161 c 0,197,198
 560 147 560 147 560 129 c 256,199,200
 560 110 560 110 548 97 c 0,201,202
 536 83 536 83 520 83 c 1,203,-1
 520 83 l 1,116,117
200 0 m 1,204,205
 184 0 184 0 172 14 c 128,-1,206
 160 28 160 28 160 46 c 0,207,208
 160 65 160 65 172 78 c 0,209,210
 177 84 177 84 183 87 c 1,211,-1
 183 87 l 1,212,213
 177 90 177 90 172 97 c 0,214,215
 160 111 160 111 160 129 c 256,216,217
 160 148 160 148 172 161 c 0,218,219
 177 167 177 167 183 171 c 1,220,-1
 183 171 l 1,221,222
 177 174 177 174 172 180 c 0,223,224
 160 194 160 194 160 212 c 256,225,226
 160 230 160 230 172 244 c 0,227,228
 177 250 177 250 183 254 c 1,229,-1
 183 254 l 1,230,231
 177 257 177 257 172 263 c 0,232,233
 160 278 160 278 160 296 c 0,234,235
 160 316 160 316 172 328 c 0,236,237
 177 334 177 334 183 338 c 1,238,-1
 183 338 l 1,239,240
 177 340 177 340 172 346 c 0,241,242
 160 360 160 360 160 379 c 256,243,244
 160 398 160 398 172 411 c 0,245,246
 177 417 177 417 183 421 c 1,247,-1
 183 421 l 1,248,249
 177 424 177 424 172 430 c 0,250,251
 160 444 160 444 160 462 c 0,252,253
 160 481 160 481 172 495 c 0,254,255
 177 501 177 501 183 504 c 1,256,-1
 183 504 l 1,257,258
 177 507 177 507 172 513 c 0,259,260
 160 527 160 527 160 546 c 256,261,262
 160 565 160 565 172 578 c 0,263,264
 184 592 184 592 200 592 c 128,-1,265
 216 592 216 592 228 578 c 128,-1,266
 240 564 240 564 240 546 c 256,267,268
 240 527 240 527 228 513 c 0,269,270
 223 507 223 507 217 504 c 1,271,-1
 217 504 l 1,272,273
 223 501 223 501 228 495 c 0,274,275
 240 481 240 481 240 462 c 128,-1,276
 240 443 240 443 228 430 c 0,277,278
 223 424 223 424 217 421 c 1,279,-1
 217 421 l 1,280,281
 223 418 223 418 228 411 c 0,282,283
 240 397 240 397 240 379 c 256,284,285
 240 360 240 360 228 346 c 0,286,287
 223 340 223 340 217 338 c 1,288,-1
 217 338 l 1,289,290
 223 334 223 334 228 328 c 0,291,292
 240 314 240 314 240 296 c 0,293,294
 240 277 240 277 228 263 c 0,295,296
 223 257 223 257 217 254 c 1,297,-1
 217 254 l 1,298,299
 223 250 223 250 228 244 c 0,300,301
 240 230 240 230 240 212 c 256,302,303
 240 193 240 193 228 180 c 0,304,305
 223 174 223 174 217 171 c 1,306,-1
 217 171 l 1,307,308
 223 168 223 168 228 161 c 0,309,310
 240 147 240 147 240 129 c 256,311,312
 240 110 240 110 228 97 c 0,313,314
 223 91 223 91 217 87 c 1,315,-1
 217 87 l 1,316,317
 223 84 223 84 228 78 c 0,318,319
 240 64 240 64 240 46 c 128,-1,320
 240 28 240 28 228 14 c 128,-1,321
 216 0 216 0 200 0 c 1,322,-1
 200 0 l 1,204,205
280 500 m 1,323,324
 264 500 264 500 251 513 c 0,325,326
 239.923076923 525.923076923 239.923076923 525.923076923 239.923076923 543.106508876 c 0,327,328
 239.923076923 564.909090909 239.923076923 564.909090909 251 578 c 0,329,330
 263 592 263 592 280 592 c 256,331,332
 296 592 296 592 308 578 c 128,-1,333
 320 564 320 564 320 546 c 256,334,335
 320 527 320 527 308 513 c 0,336,337
 296.8 499.933333333 296.8 499.933333333 282.115555556 499.933333333 c 0,338,339
 281.066666667 499.933333333 281.066666667 499.933333333 280 500 c 1,340,-1
 280 500 l 1,323,324
360 500 m 1,341,342
 344 500 344 500 332 513 c 0,343,344
 320 527 320 527 320 546 c 256,345,346
 320 565 320 565 332 578 c 0,347,348
 344 592 344 592 360 592 c 128,-1,349
 376 592 376 592 388 578 c 128,-1,350
 400 564 400 564 400 546 c 256,351,352
 400 527 400 527 388 513 c 0,353,354
 376.8 499.933333333 376.8 499.933333333 362.115555556 499.933333333 c 0,355,356
 361.066666667 499.933333333 361.066666667 499.933333333 360 500 c 1,357,-1
 360 500 l 1,341,342
440 0 m 1,358,359
 424 0 424 0 412 14 c 128,-1,360
 400 28 400 28 400 46 c 0,361,362
 400 65 400 65 412 78 c 0,363,364
 417 84 417 84 423 87 c 1,365,-1
 423 87 l 1,366,367
 417 90 417 90 412 97 c 0,368,369
 400 111 400 111 400 129 c 256,370,371
 400 148 400 148 412 161 c 0,372,373
 417 167 417 167 423 171 c 1,374,-1
 423 171 l 1,375,376
 417 174 417 174 412 180 c 0,377,378
 400 194 400 194 400 212 c 256,379,380
 400 230 400 230 412 244 c 0,381,382
 417 250 417 250 423 254 c 1,383,-1
 423 254 l 1,384,385
 417 257 417 257 412 263 c 0,386,387
 400 278 400 278 400 296 c 0,388,389
 400 316 400 316 412 328 c 0,390,391
 417 334 417 334 423 338 c 1,392,-1
 423 338 l 1,393,394
 417 340 417 340 412 346 c 0,395,396
 400 360 400 360 400 379 c 256,397,398
 400 398 400 398 412 411 c 0,399,400
 417 417 417 417 423 421 c 1,401,-1
 423 421 l 1,402,403
 417 424 417 424 412 430 c 0,404,405
 400 444 400 444 400 462 c 0,406,407
 400 481 400 481 412 495 c 0,408,409
 417 501 417 501 423 504 c 1,410,-1
 423 504 l 1,411,412
 417 507 417 507 412 513 c 0,413,414
 400 527 400 527 400 546 c 256,415,416
 400 565 400 565 412 578 c 0,417,418
 424 592 424 592 440 592 c 256,419,420
 456 592 456 592 468 578 c 128,-1,421
 480 564 480 564 480 546 c 256,422,423
 480 527 480 527 468 513 c 0,424,425
 463 507 463 507 457 504 c 1,426,-1
 457 504 l 1,427,428
 463 501 463 501 468 495 c 0,429,430
 480 481 480 481 480 462 c 128,-1,431
 480 443 480 443 468 430 c 0,432,433
 463 424 463 424 457 421 c 1,434,-1
 457 421 l 1,435,436
 463 418 463 418 468 411 c 0,437,438
 480 397 480 397 480 379 c 256,439,440
 480 360 480 360 468 346 c 0,441,442
 463 340 463 340 457 338 c 1,443,-1
 457 338 l 1,444,445
 463 334 463 334 468 328 c 0,446,447
 480 314 480 314 480 296 c 0,448,449
 480 277 480 277 468 263 c 0,450,451
 463 257 463 257 457 254 c 1,452,-1
 457 254 l 1,453,454
 463 250 463 250 468 244 c 0,455,456
 480 230 480 230 480 212 c 256,457,458
 480 193 480 193 468 180 c 0,459,460
 463 174 463 174 457 171 c 1,461,-1
 457 171 l 1,462,463
 463 168 463 168 468 161 c 0,464,465
 480 147 480 147 480 129 c 256,466,467
 480 110 480 110 468 97 c 0,468,469
 463 91 463 91 457 87 c 1,470,-1
 457 87 l 1,471,472
 463 84 463 84 468 78 c 0,473,474
 480 64 480 64 480 46 c 128,-1,475
 480 28 480 28 468 14 c 128,-1,476
 456 0 456 0 440 0 c 1,477,-1
 440 0 l 1,358,359
EndSplineSet
EndChar

StartChar: one
Encoding: 49 49 17
Width: 720
VWidth: 750
Flags: W
LayerCount: 2
Fore
SplineSet
120 0 m 1,0,1
 104 0 104 0 92 14 c 128,-1,2
 80 28 80 28 80 46 c 0,3,4
 80 65 80 65 92 78 c 256,5,6
 104 92 104 92 120 92 c 256,7,8
 136 92 136 92 148 78 c 0,9,10
 159 64 159 64 160 46 c 0,11,12
 160 28 160 28 148 14 c 128,-1,13
 136 0 136 0 120 0 c 1,14,-1
 120 0 l 1,0,1
200 0 m 1,15,16
 184 0 184 0 172 14 c 128,-1,17
 160 28 160 28 160 46 c 0,18,19
 160 65 160 65 172 78 c 256,20,21
 184 92 184 92 200 92 c 128,-1,22
 216 92 216 92 228 78 c 256,23,24
 240 64 240 64 240 46 c 128,-1,25
 240 28 240 28 228 14 c 128,-1,26
 216 0 216 0 200 0 c 1,27,-1
 200 0 l 1,15,16
440 0 m 1,28,29
 424 0 424 0 412 14 c 128,-1,30
 400 28 400 28 400 46 c 0,31,32
 400 65 400 65 412 78 c 256,33,34
 424 92 424 92 440 92 c 256,35,36
 456 92 456 92 468 78 c 256,37,38
 480 64 480 64 480 46 c 128,-1,39
 480 28 480 28 468 14 c 128,-1,40
 456 0 456 0 440 0 c 1,41,-1
 440 0 l 1,28,29
520 0 m 1,42,43
 504 0 504 0 491 14 c 0,44,45
 479.923076923 26.9230769231 479.923076923 26.9230769231 479.923076923 43.2544378698 c 0,46,47
 479.923076923 64.9090909091 479.923076923 64.9090909091 491 78 c 256,48,49
 503 92 503 92 520 92 c 0,50,51
 536 92 536 92 548 78 c 256,52,53
 560 64 560 64 560 46 c 128,-1,54
 560 28 560 28 548 14 c 128,-1,55
 536 0 536 0 520 0 c 1,56,-1
 520 0 l 1,42,43
120 416 m 1,57,58
 104 416 104 416 92 430 c 256,59,60
 80 444 80 444 80 462 c 0,61,62
 80 481 80 481 92 495 c 256,63,64
 104 508 104 508 120 508 c 256,65,66
 136 508 136 508 148 495 c 0,67,68
 159 481 159 481 160 462 c 0,69,70
 160 443 160 443 148 430 c 0,71,72
 136 416 136 416 120 416 c 1,73,-1
 120 416 l 1,57,58
200 416 m 1,74,75
 184 416 184 416 172 430 c 256,76,77
 160 444 160 444 160 462 c 0,78,79
 160 481 160 481 172 495 c 256,80,81
 184 508 184 508 200 508 c 128,-1,82
 216 508 216 508 228 495 c 256,83,84
 240 481 240 481 240 462 c 128,-1,85
 240 443 240 443 228 430 c 256,86,87
 216 416 216 416 200 416 c 1,88,-1
 200 416 l 1,74,75
280 0 m 1,89,90
 264 0 264 0 251 14 c 0,91,92
 239.923076923 26.9230769231 239.923076923 26.9230769231 239.923076923 43.2544378698 c 0,93,94
 239.923076923 64.9090909091 239.923076923 64.9090909091 251 78 c 0,95,96
 256 84 256 84 263 87 c 1,97,-1
 263 87 l 1,98,99
 257 90 257 90 251 97 c 0,100,101
 239.923076923 109.923076923 239.923076923 109.923076923 239.923076923 126.25443787 c 0,102,103
 239.923076923 147.909090909 239.923076923 147.909090909 251 161 c 0,104,105
 256 167 256 167 263 171 c 1,106,-1
 263 171 l 1,107,108
 257 174 257 174 251 180 c 0,109,110
 239.923076923 192.923076923 239.923076923 192.923076923 239.923076923 209.25443787 c 0,111,112
 239.923076923 229.902097902 239.923076923 229.902097902 251 244 c 0,113,114
 256 250 256 250 263 254 c 1,115,-1
 263 254 l 1,116,117
 257 257 257 257 251 263 c 0,118,119
 239.923076923 276.846153846 239.923076923 276.846153846 239.923076923 293.24852071 c 0,120,121
 239.923076923 315.916083916 239.923076923 315.916083916 251 328 c 0,122,123
 256 334 256 334 263 338 c 1,124,-1
 263 338 l 1,125,126
 257 340 257 340 251 346 c 0,127,128
 239.923076923 358.923076923 239.923076923 358.923076923 239.923076923 376.106508876 c 0,129,130
 239.923076923 397.909090909 239.923076923 397.909090909 251 411 c 0,131,132
 256 417 256 417 263 421 c 1,133,-1
 263 421 l 1,134,135
 257 424 257 424 251 430 c 0,136,137
 239.923076923 442.923076923 239.923076923 442.923076923 239.923076923 459.25443787 c 0,138,139
 239.923076923 480.902097902 239.923076923 480.902097902 251 495 c 0,140,141
 256 501 256 501 263 504 c 1,142,-1
 263 504 l 1,143,144
 257 507 257 507 251 513 c 0,145,146
 239.923076923 525.923076923 239.923076923 525.923076923 239.923076923 543.106508876 c 0,147,148
 239.923076923 564.909090909 239.923076923 564.909090909 251 578 c 0,149,150
 263 592 263 592 280 592 c 256,151,152
 296 592 296 592 308 578 c 128,-1,153
 320 564 320 564 320 546 c 256,154,155
 320 527 320 527 308 513 c 0,156,157
 303 507 303 507 297 504 c 1,158,-1
 297 504 l 1,159,160
 303 501 303 501 308 495 c 0,161,162
 320 481 320 481 320 462 c 128,-1,163
 320 443 320 443 308 430 c 0,164,165
 303 424 303 424 297 421 c 1,166,-1
 297 421 l 1,167,168
 303 418 303 418 308 411 c 0,169,170
 320 397 320 397 320 379 c 256,171,172
 320 360 320 360 308 346 c 0,173,174
 303 340 303 340 297 338 c 1,175,-1
 297 338 l 1,176,177
 303 334 303 334 308 328 c 0,178,179
 320 314 320 314 320 296 c 0,180,181
 320 277 320 277 308 263 c 0,182,183
 303 257 303 257 297 254 c 1,184,-1
 297 254 l 1,185,186
 303 250 303 250 308 244 c 0,187,188
 320 230 320 230 320 212 c 256,189,190
 320 193 320 193 308 180 c 0,191,192
 303 174 303 174 297 171 c 1,193,-1
 297 171 l 1,194,195
 303 168 303 168 308 161 c 0,196,197
 320 147 320 147 320 129 c 256,198,199
 320 110 320 110 308 97 c 0,200,201
 303 91 303 91 297 87 c 1,202,-1
 297 87 l 1,203,204
 303 84 303 84 308 78 c 0,205,206
 320 64 320 64 320 46 c 128,-1,207
 320 28 320 28 308 14 c 128,-1,208
 296 0 296 0 280 0 c 1,209,-1
 280 0 l 1,89,90
360 0 m 1,210,211
 344 0 344 0 332 14 c 128,-1,212
 320 28 320 28 320 46 c 0,213,214
 320 65 320 65 332 78 c 0,215,216
 337 84 337 84 343 87 c 1,217,-1
 343 87 l 1,218,219
 338 90 338 90 332 97 c 0,220,221
 320 111 320 111 320 129 c 256,222,223
 320 148 320 148 332 161 c 0,224,225
 337 167 337 167 343 171 c 1,226,-1
 343 171 l 1,227,228
 338 174 338 174 332 180 c 0,229,230
 320 194 320 194 320 212 c 256,231,232
 320 230 320 230 332 244 c 0,233,234
 337 250 337 250 343 254 c 1,235,-1
 343 254 l 1,236,237
 338 257 338 257 332 263 c 0,238,239
 320 278 320 278 320 296 c 0,240,241
 320 316 320 316 332 328 c 0,242,243
 337 334 337 334 343 338 c 1,244,-1
 343 338 l 1,245,246
 338 340 338 340 332 346 c 0,247,248
 320 360 320 360 320 379 c 256,249,250
 320 398 320 398 332 411 c 0,251,252
 337 417 337 417 343 421 c 1,253,-1
 343 421 l 1,254,255
 338 424 338 424 332 430 c 0,256,257
 320 444 320 444 320 462 c 0,258,259
 320 481 320 481 332 495 c 0,260,261
 337 501 337 501 343 504 c 1,262,-1
 343 504 l 1,263,264
 338 507 338 507 332 513 c 0,265,266
 320 527 320 527 320 546 c 256,267,268
 320 565 320 565 332 578 c 0,269,270
 344 592 344 592 360 592 c 128,-1,271
 376 592 376 592 388 578 c 128,-1,272
 400 564 400 564 400 546 c 256,273,274
 400 527 400 527 388 513 c 0,275,276
 382 507 382 507 376 504 c 1,277,-1
 376 504 l 1,278,279
 382 501 382 501 388 495 c 0,280,281
 400 481 400 481 400 462 c 128,-1,282
 400 443 400 443 388 430 c 0,283,284
 382 424 382 424 376 421 c 1,285,-1
 376 421 l 1,286,287
 382 418 382 418 388 411 c 0,288,289
 400 397 400 397 400 379 c 256,290,291
 400 360 400 360 388 346 c 0,292,293
 382 340 382 340 376 338 c 1,294,-1
 376 338 l 1,295,296
 382 334 382 334 388 328 c 0,297,298
 400 314 400 314 400 296 c 0,299,300
 400 277 400 277 388 263 c 0,301,302
 382 257 382 257 376 254 c 1,303,-1
 376 254 l 1,304,305
 382 250 382 250 388 244 c 0,306,307
 400 230 400 230 400 212 c 256,308,309
 400 193 400 193 388 180 c 0,310,311
 382 174 382 174 376 171 c 1,312,-1
 376 171 l 1,313,314
 382 168 382 168 388 161 c 0,315,316
 400 147 400 147 400 129 c 256,317,318
 400 110 400 110 388 97 c 0,319,320
 382 91 382 91 376 87 c 1,321,-1
 376 87 l 1,322,323
 382 84 382 84 388 78 c 0,324,325
 400 64 400 64 400 46 c 128,-1,326
 400 28 400 28 388 14 c 128,-1,327
 376 0 376 0 360 0 c 1,328,-1
 360 0 l 1,210,211
EndSplineSet
EndChar

StartChar: two
Encoding: 50 50 18
Width: 720
VWidth: 750
Flags: W
LayerCount: 2
Fore
SplineSet
40 0 m 1,0,1
 24 0 24 0 11 14 c 0,2,3
 0 28 0 28 0 46 c 0,4,5
 0 65 0 65 11 78 c 0,6,7
 23 92 23 92 40 92 c 256,8,9
 56 92 56 92 68 78 c 256,10,11
 80 64 80 64 80 46 c 128,-1,12
 80 28 80 28 68 14 c 128,-1,13
 56 0 56 0 40 0 c 1,14,-1
 40 0 l 1,0,1
280 0 m 1,15,16
 264 0 264 0 251 14 c 0,17,18
 239.923076923 26.9230769231 239.923076923 26.9230769231 239.923076923 43.2544378698 c 0,19,20
 239.923076923 64.9090909091 239.923076923 64.9090909091 251 78 c 256,21,22
 263 92 263 92 280 92 c 256,23,24
 296 92 296 92 308 78 c 256,25,26
 320 64 320 64 320 46 c 128,-1,27
 320 28 320 28 308 14 c 128,-1,28
 296 0 296 0 280 0 c 1,29,-1
 280 0 l 1,15,16
360 0 m 1,30,31
 344 0 344 0 332 14 c 128,-1,32
 320 28 320 28 320 46 c 0,33,34
 320 65 320 65 332 78 c 256,35,36
 344 92 344 92 360 92 c 128,-1,37
 376 92 376 92 388 78 c 256,38,39
 400 64 400 64 400 46 c 128,-1,40
 400 28 400 28 388 14 c 128,-1,41
 376 0 376 0 360 0 c 1,42,-1
 360 0 l 1,30,31
440 0 m 1,43,44
 424 0 424 0 412 14 c 128,-1,45
 400 28 400 28 400 46 c 0,46,47
 400 65 400 65 412 78 c 256,48,49
 424 92 424 92 440 92 c 256,50,51
 456 92 456 92 468 78 c 256,52,53
 480 64 480 64 480 46 c 128,-1,54
 480 28 480 28 468 14 c 128,-1,55
 456 0 456 0 440 0 c 1,56,-1
 440 0 l 1,43,44
520 0 m 1,57,58
 504 0 504 0 491 14 c 0,59,60
 479.923076923 26.9230769231 479.923076923 26.9230769231 479.923076923 43.2544378698 c 0,61,62
 479.923076923 64.9090909091 479.923076923 64.9090909091 491 78 c 256,63,64
 503 92 503 92 520 92 c 0,65,66
 536 92 536 92 548 78 c 256,67,68
 560 64 560 64 560 46 c 128,-1,69
 560 28 560 28 548 14 c 128,-1,70
 536 0 536 0 520 0 c 1,71,-1
 520 0 l 1,57,58
600 0 m 1,72,73
 584 0 584 0 572 14 c 128,-1,74
 560 28 560 28 560 46 c 0,75,76
 560 65 560 65 572 78 c 256,77,78
 584 92 584 92 600 92 c 256,79,80
 616 92 616 92 628 78 c 256,81,82
 640 64 640 64 640 46 c 128,-1,83
 640 28 640 28 628 14 c 128,-1,84
 616 0 616 0 600 0 c 1,85,-1
 600 0 l 1,72,73
120 0 m 1,86,87
 104 0 104 0 92 14 c 128,-1,88
 80 28 80 28 80 46 c 0,89,90
 80 65 80 65 92 78 c 0,91,92
 97 84 97 84 103 87 c 1,93,-1
 103 87 l 1,94,95
 98 90 98 90 92 97 c 0,96,97
 80 111 80 111 80 129 c 256,98,99
 80 148 80 148 92 161 c 0,100,101
 104 175 104 175 120 175 c 256,102,103
 136 175 136 175 148 161 c 0,104,105
 159 147 159 147 160 129 c 256,106,107
 160 110 160 110 148 97 c 0,108,109
 143 91 143 91 137 87 c 1,110,-1
 137 87 l 1,111,112
 142 84 142 84 148 78 c 0,113,114
 159 64 159 64 160 46 c 0,115,116
 160 28 160 28 148 14 c 128,-1,117
 136 0 136 0 120 0 c 1,118,-1
 120 0 l 1,86,87
200 0 m 1,119,120
 184 0 184 0 172 14 c 128,-1,121
 160 28 160 28 160 46 c 0,122,123
 160 65 160 65 172 78 c 0,124,125
 177 84 177 84 183 87 c 1,126,-1
 183 87 l 1,127,128
 177 90 177 90 172 97 c 0,129,130
 160 111 160 111 160 129 c 256,131,132
 160 148 160 148 172 161 c 0,133,134
 177 167 177 167 183 171 c 1,135,-1
 183 171 l 1,136,137
 177 174 177 174 172 180 c 0,138,139
 160 194 160 194 160 212 c 256,140,141
 160 230 160 230 172 244 c 128,-1,142
 184 258 184 258 200 258 c 128,-1,143
 216 258 216 258 228 244 c 128,-1,144
 240 230 240 230 240 212 c 256,145,146
 240 193 240 193 228 180 c 0,147,148
 223 174 223 174 217 171 c 1,149,-1
 217 171 l 1,150,151
 223 168 223 168 228 161 c 0,152,153
 240 147 240 147 240 129 c 256,154,155
 240 110 240 110 228 97 c 0,156,157
 223 91 223 91 217 87 c 1,158,-1
 217 87 l 1,159,160
 223 84 223 84 228 78 c 0,161,162
 240 64 240 64 240 46 c 128,-1,163
 240 28 240 28 228 14 c 128,-1,164
 216 0 216 0 200 0 c 1,165,-1
 200 0 l 1,119,120
280 166 m 1,166,167
 264 166 264 166 251 180 c 0,168,169
 239.923076923 192.923076923 239.923076923 192.923076923 239.923076923 209.25443787 c 0,170,171
 239.923076923 229.902097902 239.923076923 229.902097902 251 244 c 0,172,173
 263 258 263 258 280 258 c 256,174,175
 296 258 296 258 308 244 c 128,-1,176
 320 230 320 230 320 212 c 256,177,178
 320 193 320 193 308 180 c 0,179,180
 296 166 296 166 280 166 c 1,181,-1
 280 166 l 1,166,167
360 250 m 1,182,183
 344 250 344 250 332 263 c 256,184,185
 320 278 320 278 320 296 c 0,186,187
 320 316 320 316 332 328 c 0,188,189
 343.2 341.066666667 343.2 341.066666667 357.884444444 341.066666667 c 0,190,191
 358.933333333 341.066666667 358.933333333 341.066666667 360 341 c 128,-1,192
 361.066666667 341.066666667 361.066666667 341.066666667 362.115555556 341.066666667 c 0,193,194
 376.8 341.066666667 376.8 341.066666667 388 328 c 0,195,196
 400 314 400 314 400 296 c 0,197,198
 400 277 400 277 388 263 c 256,199,200
 376.8 249.933333333 376.8 249.933333333 362.115555556 249.933333333 c 0,201,202
 361.066666667 249.933333333 361.066666667 249.933333333 360 250 c 1,203,-1
 360 250 l 1,182,183
440 250 m 1,204,205
 424 250 424 250 412 263 c 256,206,207
 400 278 400 278 400 296 c 0,208,209
 400 316 400 316 412 328 c 0,210,211
 417 334 417 334 423 338 c 1,212,-1
 423 338 l 1,213,214
 417 340 417 340 412 346 c 0,215,216
 400 360 400 360 400 379 c 256,217,218
 400 398 400 398 412 411 c 128,-1,219
 424 424 424 424 440 424 c 256,220,221
 456 424 456 424 468 411 c 0,222,223
 480 397 480 397 480 379 c 256,224,225
 480 360 480 360 468 346 c 0,226,227
 463 340 463 340 457 338 c 1,228,-1
 457 338 l 1,229,230
 463 334 463 334 468 328 c 0,231,232
 480 314 480 314 480 296 c 0,233,234
 480 277 480 277 468 263 c 256,235,236
 456.8 249.933333333 456.8 249.933333333 442.115555556 249.933333333 c 0,237,238
 441.066666667 249.933333333 441.066666667 249.933333333 440 250 c 1,239,-1
 440 250 l 1,204,205
40 416 m 1,240,241
 24 416 24 416 11 430 c 0,242,243
 0 444 0 444 0 462 c 0,244,245
 0 481 0 481 11 495 c 0,246,247
 23 508 23 508 40 508 c 256,248,249
 56 508 56 508 68 495 c 256,250,251
 80 481 80 481 80 462 c 128,-1,252
 80 443 80 443 68 430 c 256,253,254
 56 416 56 416 40 416 c 1,255,-1
 40 416 l 1,240,241
600 416 m 1,256,257
 584 416 584 416 572 430 c 256,258,259
 560 444 560 444 560 462 c 0,260,261
 560 481 560 481 572 495 c 256,262,263
 584 508 584 508 600 508 c 256,264,265
 616 508 616 508 628 495 c 256,266,267
 640 481 640 481 640 462 c 128,-1,268
 640 443 640 443 628 430 c 256,269,270
 616 416 616 416 600 416 c 1,271,-1
 600 416 l 1,256,257
120 416 m 1,272,273
 104 416 104 416 92 430 c 256,274,275
 80 444 80 444 80 462 c 0,276,277
 80 481 80 481 92 495 c 0,278,279
 97 501 97 501 103 504 c 1,280,-1
 103 504 l 1,281,282
 98 507 98 507 92 513 c 0,283,284
 80 527 80 527 80 546 c 256,285,286
 80 565 80 565 92 578 c 0,287,288
 104 592 104 592 120 592 c 256,289,290
 136 592 136 592 148 578 c 0,291,292
 159 564 159 564 160 546 c 256,293,294
 160 527 160 527 148 513 c 0,295,296
 143 507 143 507 137 504 c 1,297,-1
 137 504 l 1,298,299
 142 501 142 501 148 495 c 0,300,301
 159 481 159 481 160 462 c 0,302,303
 160 443 160 443 148 430 c 0,304,305
 136 416 136 416 120 416 c 1,306,-1
 120 416 l 1,272,273
200 500 m 1,307,308
 184 500 184 500 172 513 c 0,309,310
 160 527 160 527 160 546 c 256,311,312
 160 565 160 565 172 578 c 0,313,314
 184 592 184 592 200 592 c 128,-1,315
 216 592 216 592 228 578 c 128,-1,316
 240 564 240 564 240 546 c 256,317,318
 240 527 240 527 228 513 c 0,319,320
 216.8 499.933333333 216.8 499.933333333 202.115555556 499.933333333 c 0,321,322
 201.066666667 499.933333333 201.066666667 499.933333333 200 500 c 1,323,-1
 200 500 l 1,307,308
280 500 m 1,324,325
 264 500 264 500 251 513 c 0,326,327
 239.923076923 525.923076923 239.923076923 525.923076923 239.923076923 543.106508876 c 0,328,329
 239.923076923 564.909090909 239.923076923 564.909090909 251 578 c 0,330,331
 263 592 263 592 280 592 c 256,332,333
 296 592 296 592 308 578 c 128,-1,334
 320 564 320 564 320 546 c 256,335,336
 320 527 320 527 308 513 c 0,337,338
 296.8 499.933333333 296.8 499.933333333 282.115555556 499.933333333 c 0,339,340
 281.066666667 499.933333333 281.066666667 499.933333333 280 500 c 1,341,-1
 280 500 l 1,324,325
360 500 m 1,342,343
 344 500 344 500 332 513 c 0,344,345
 320 527 320 527 320 546 c 256,346,347
 320 565 320 565 332 578 c 0,348,349
 344 592 344 592 360 592 c 128,-1,350
 376 592 376 592 388 578 c 128,-1,351
 400 564 400 564 400 546 c 256,352,353
 400 527 400 527 388 513 c 0,354,355
 376.8 499.933333333 376.8 499.933333333 362.115555556 499.933333333 c 0,356,357
 361.066666667 499.933333333 361.066666667 499.933333333 360 500 c 1,358,-1
 360 500 l 1,342,343
440 500 m 1,359,360
 424 500 424 500 412 513 c 0,361,362
 400 527 400 527 400 546 c 256,363,364
 400 565 400 565 412 578 c 0,365,366
 424 592 424 592 440 592 c 256,367,368
 456 592 456 592 468 578 c 128,-1,369
 480 564 480 564 480 546 c 256,370,371
 480 527 480 527 468 513 c 0,372,373
 456.8 499.933333333 456.8 499.933333333 442.115555556 499.933333333 c 0,374,375
 441.066666667 499.933333333 441.066666667 499.933333333 440 500 c 1,376,-1
 440 500 l 1,359,360
520 333 m 1,377,378
 518.933333333 332.933333333 518.933333333 332.933333333 517.88 332.933333333 c 0,379,380
 503.133333333 332.933333333 503.133333333 332.933333333 491 346 c 0,381,382
 479.923076923 358.923076923 479.923076923 358.923076923 479.923076923 376.106508876 c 0,383,384
 479.923076923 397.909090909 479.923076923 397.909090909 491 411 c 0,385,386
 496 417 496 417 502 421 c 1,387,-1
 502 421 l 1,388,389
 496 424 496 424 491 430 c 0,390,391
 479.923076923 442.923076923 479.923076923 442.923076923 479.923076923 459.25443787 c 0,392,393
 479.923076923 480.902097902 479.923076923 480.902097902 491 495 c 0,394,395
 496 501 496 501 502 504 c 1,396,-1
 502 504 l 1,397,398
 496 507 496 507 491 513 c 0,399,400
 479.923076923 525.923076923 479.923076923 525.923076923 479.923076923 543.106508876 c 0,401,402
 479.923076923 564.909090909 479.923076923 564.909090909 491 578 c 0,403,404
 503 592 503 592 520 592 c 0,405,406
 536 592 536 592 548 578 c 128,-1,407
 560 564 560 564 560 546 c 256,408,409
 560 527 560 527 548 513 c 0,410,411
 543 507 543 507 537 504 c 1,412,-1
 537 504 l 1,413,414
 543 501 543 501 548 495 c 0,415,416
 560 481 560 481 560 462 c 128,-1,417
 560 443 560 443 548 430 c 0,418,419
 543 424 543 424 537 421 c 1,420,-1
 537 421 l 1,421,422
 543 418 543 418 548 411 c 0,423,424
 560 397 560 397 560 379 c 256,425,426
 560 360 560 360 548 346 c 0,427,428
 536.8 332.933333333 536.8 332.933333333 522.115555556 332.933333333 c 0,429,430
 521.066666667 332.933333333 521.066666667 332.933333333 520 333 c 1,431,-1
 520 333 l 1,377,378
EndSplineSet
EndChar

StartChar: three
Encoding: 51 51 19
Width: 720
VWidth: 750
Flags: W
LayerCount: 2
Fore
SplineSet
200 0 m 1,0,1
 184 0 184 0 172 14 c 128,-1,2
 160 28 160 28 160 46 c 0,3,4
 160 65 160 65 172 78 c 256,5,6
 184 92 184 92 200 92 c 128,-1,7
 216 92 216 92 228 78 c 256,8,9
 240 64 240 64 240 46 c 128,-1,10
 240 28 240 28 228 14 c 128,-1,11
 216 0 216 0 200 0 c 1,12,-1
 200 0 l 1,0,1
280 0 m 1,13,14
 264 0 264 0 251 14 c 0,15,16
 239.923076923 26.9230769231 239.923076923 26.9230769231 239.923076923 43.2544378698 c 0,17,18
 239.923076923 64.9090909091 239.923076923 64.9090909091 251 78 c 256,19,20
 263 92 263 92 280 92 c 256,21,22
 296 92 296 92 308 78 c 256,23,24
 320 64 320 64 320 46 c 128,-1,25
 320 28 320 28 308 14 c 128,-1,26
 296 0 296 0 280 0 c 1,27,-1
 280 0 l 1,13,14
360 0 m 1,28,29
 344 0 344 0 332 14 c 128,-1,30
 320 28 320 28 320 46 c 0,31,32
 320 65 320 65 332 78 c 256,33,34
 344 92 344 92 360 92 c 128,-1,35
 376 92 376 92 388 78 c 256,36,37
 400 64 400 64 400 46 c 128,-1,38
 400 28 400 28 388 14 c 128,-1,39
 376 0 376 0 360 0 c 1,40,-1
 360 0 l 1,28,29
440 0 m 1,41,42
 424 0 424 0 412 14 c 128,-1,43
 400 28 400 28 400 46 c 0,44,45
 400 65 400 65 412 78 c 256,46,47
 424 92 424 92 440 92 c 256,48,49
 456 92 456 92 468 78 c 256,50,51
 480 64 480 64 480 46 c 128,-1,52
 480 28 480 28 468 14 c 128,-1,53
 456 0 456 0 440 0 c 1,54,-1
 440 0 l 1,41,42
40 83 m 1,55,56
 24 83 24 83 11 97 c 0,57,58
 0 111 0 111 0 129 c 256,59,60
 0 148 0 148 11 161 c 0,61,62
 23 175 23 175 40 175 c 256,63,64
 56 175 56 175 68 161 c 128,-1,65
 80 147 80 147 80 129 c 256,66,67
 80 110 80 110 68 97 c 0,68,69
 56 83 56 83 40 83 c 1,70,-1
 40 83 l 1,55,56
120 0 m 1,71,72
 104 0 104 0 92 14 c 128,-1,73
 80 28 80 28 80 46 c 0,74,75
 80 65 80 65 92 78 c 0,76,77
 97 84 97 84 103 87 c 1,78,-1
 103 87 l 1,79,80
 98 90 98 90 92 97 c 0,81,82
 80 111 80 111 80 129 c 256,83,84
 80 148 80 148 92 161 c 0,85,86
 104 175 104 175 120 175 c 256,87,88
 136 175 136 175 148 161 c 0,89,90
 159 147 159 147 160 129 c 256,91,92
 160 110 160 110 148 97 c 0,93,94
 143 91 143 91 137 87 c 1,95,-1
 137 87 l 1,96,97
 142 84 142 84 148 78 c 0,98,99
 159 64 159 64 160 46 c 0,100,101
 160 28 160 28 148 14 c 128,-1,102
 136 0 136 0 120 0 c 1,103,-1
 120 0 l 1,71,72
600 83 m 1,104,105
 584 83 584 83 572 97 c 128,-1,106
 560 111 560 111 560 129 c 256,107,108
 560 148 560 148 572 161 c 0,109,110
 577 167 577 167 583 171 c 1,111,-1
 583 171 l 1,112,113
 578 174 578 174 572 180 c 0,114,115
 560 194 560 194 560 212 c 256,116,117
 560 230 560 230 572 244 c 128,-1,118
 584 258 584 258 600 258 c 256,119,120
 616 258 616 258 628 244 c 128,-1,121
 640 230 640 230 640 212 c 256,122,123
 640 193 640 193 628 180 c 0,124,125
 622 174 622 174 616 171 c 1,126,-1
 616 171 l 1,127,128
 622 168 622 168 628 161 c 0,129,130
 640 147 640 147 640 129 c 256,131,132
 640 110 640 110 628 97 c 0,133,134
 616 83 616 83 600 83 c 1,135,-1
 600 83 l 1,104,105
280 250 m 1,136,137
 264 250 264 250 251 263 c 256,138,139
 239.923076923 276.846153846 239.923076923 276.846153846 239.923076923 293.24852071 c 0,140,141
 239.923076923 315.916083916 239.923076923 315.916083916 251 328 c 0,142,143
 262.2 341.066666667 262.2 341.066666667 277.755555556 341.066666667 c 0,144,145
 278.866666667 341.066666667 278.866666667 341.066666667 280 341 c 256,146,147
 281.066666667 341.066666667 281.066666667 341.066666667 282.115555556 341.066666667 c 0,148,149
 296.8 341.066666667 296.8 341.066666667 308 328 c 0,150,151
 320 314 320 314 320 296 c 0,152,153
 320 277 320 277 308 263 c 256,154,155
 296.8 249.933333333 296.8 249.933333333 282.115555556 249.933333333 c 0,156,157
 281.066666667 249.933333333 281.066666667 249.933333333 280 250 c 1,158,-1
 280 250 l 1,136,137
360 250 m 1,159,160
 344 250 344 250 332 263 c 256,161,162
 320 278 320 278 320 296 c 0,163,164
 320 316 320 316 332 328 c 0,165,166
 343.2 341.066666667 343.2 341.066666667 357.884444444 341.066666667 c 0,167,168
 358.933333333 341.066666667 358.933333333 341.066666667 360 341 c 128,-1,169
 361.066666667 341.066666667 361.066666667 341.066666667 362.115555556 341.066666667 c 0,170,171
 376.8 341.066666667 376.8 341.066666667 388 328 c 0,172,173
 400 314 400 314 400 296 c 0,174,175
 400 277 400 277 388 263 c 256,176,177
 376.8 249.933333333 376.8 249.933333333 362.115555556 249.933333333 c 0,178,179
 361.066666667 249.933333333 361.066666667 249.933333333 360 250 c 1,180,-1
 360 250 l 1,159,160
440 250 m 1,181,182
 424 250 424 250 412 263 c 256,183,184
 400 278 400 278 400 296 c 0,185,186
 400 316 400 316 412 328 c 0,187,188
 423.2 341.066666667 423.2 341.066666667 437.884444444 341.066666667 c 0,189,190
 438.933333333 341.066666667 438.933333333 341.066666667 440 341 c 256,191,192
 441.066666667 341.066666667 441.066666667 341.066666667 442.115555556 341.066666667 c 0,193,194
 456.8 341.066666667 456.8 341.066666667 468 328 c 0,195,196
 480 314 480 314 480 296 c 0,197,198
 480 277 480 277 468 263 c 256,199,200
 456.8 249.933333333 456.8 249.933333333 442.115555556 249.933333333 c 0,201,202
 441.066666667 249.933333333 441.066666667 249.933333333 440 250 c 1,203,-1
 440 250 l 1,181,182
40 416 m 1,204,205
 24 416 24 416 11 430 c 0,206,207
 0 444 0 444 0 462 c 0,208,209
 0 481 0 481 11 495 c 0,210,211
 23 508 23 508 40 508 c 256,212,213
 56 508 56 508 68 495 c 256,214,215
 80 481 80 481 80 462 c 128,-1,216
 80 443 80 443 68 430 c 256,217,218
 56 416 56 416 40 416 c 1,219,-1
 40 416 l 1,204,205
600 333 m 1,220,221
 598.933333333 332.933333333 598.933333333 332.933333333 597.884444444 332.933333333 c 0,222,223
 583.2 332.933333333 583.2 332.933333333 572 346 c 0,224,225
 560 360 560 360 560 379 c 256,226,227
 560 398 560 398 572 411 c 0,228,229
 577 417 577 417 583 421 c 1,230,-1
 583 421 l 1,231,232
 578 424 578 424 572 430 c 0,233,234
 560 444 560 444 560 462 c 0,235,236
 560 481 560 481 572 495 c 256,237,238
 584 508 584 508 600 508 c 256,239,240
 616 508 616 508 628 495 c 256,241,242
 640 481 640 481 640 462 c 128,-1,243
 640 443 640 443 628 430 c 0,244,245
 622 424 622 424 616 421 c 1,246,-1
 616 421 l 1,247,248
 622 418 622 418 628 411 c 0,249,250
 640 397 640 397 640 379 c 256,251,252
 640 360 640 360 628 346 c 0,253,254
 616.8 332.933333333 616.8 332.933333333 602.115555556 332.933333333 c 0,255,256
 601.066666667 332.933333333 601.066666667 332.933333333 600 333 c 1,257,-1
 600 333 l 1,220,221
120 416 m 1,258,259
 104 416 104 416 92 430 c 256,260,261
 80 444 80 444 80 462 c 0,262,263
 80 481 80 481 92 495 c 0,264,265
 97 501 97 501 103 504 c 1,266,-1
 103 504 l 1,267,268
 98 507 98 507 92 513 c 0,269,270
 80 527 80 527 80 546 c 256,271,272
 80 565 80 565 92 578 c 0,273,274
 104 592 104 592 120 592 c 256,275,276
 136 592 136 592 148 578 c 0,277,278
 159 564 159 564 160 546 c 256,279,280
 160 527 160 527 148 513 c 0,281,282
 143 507 143 507 137 504 c 1,283,-1
 137 504 l 1,284,285
 142 501 142 501 148 495 c 0,286,287
 159 481 159 481 160 462 c 0,288,289
 160 443 160 443 148 430 c 0,290,291
 136 416 136 416 120 416 c 1,292,-1
 120 416 l 1,258,259
200 500 m 1,293,294
 184 500 184 500 172 513 c 0,295,296
 160 527 160 527 160 546 c 256,297,298
 160 565 160 565 172 578 c 0,299,300
 184 592 184 592 200 592 c 128,-1,301
 216 592 216 592 228 578 c 128,-1,302
 240 564 240 564 240 546 c 256,303,304
 240 527 240 527 228 513 c 0,305,306
 216.8 499.933333333 216.8 499.933333333 202.115555556 499.933333333 c 0,307,308
 201.066666667 499.933333333 201.066666667 499.933333333 200 500 c 1,309,-1
 200 500 l 1,293,294
280 500 m 1,310,311
 264 500 264 500 251 513 c 0,312,313
 239.923076923 525.923076923 239.923076923 525.923076923 239.923076923 543.106508876 c 0,314,315
 239.923076923 564.909090909 239.923076923 564.909090909 251 578 c 0,316,317
 263 592 263 592 280 592 c 256,318,319
 296 592 296 592 308 578 c 128,-1,320
 320 564 320 564 320 546 c 256,321,322
 320 527 320 527 308 513 c 0,323,324
 296.8 499.933333333 296.8 499.933333333 282.115555556 499.933333333 c 0,325,326
 281.066666667 499.933333333 281.066666667 499.933333333 280 500 c 1,327,-1
 280 500 l 1,310,311
360 500 m 1,328,329
 344 500 344 500 332 513 c 0,330,331
 320 527 320 527 320 546 c 256,332,333
 320 565 320 565 332 578 c 0,334,335
 344 592 344 592 360 592 c 128,-1,336
 376 592 376 592 388 578 c 128,-1,337
 400 564 400 564 400 546 c 256,338,339
 400 527 400 527 388 513 c 0,340,341
 376.8 499.933333333 376.8 499.933333333 362.115555556 499.933333333 c 0,342,343
 361.066666667 499.933333333 361.066666667 499.933333333 360 500 c 1,344,-1
 360 500 l 1,328,329
440 500 m 1,345,346
 424 500 424 500 412 513 c 0,347,348
 400 527 400 527 400 546 c 256,349,350
 400 565 400 565 412 578 c 0,351,352
 424 592 424 592 440 592 c 256,353,354
 456 592 456 592 468 578 c 128,-1,355
 480 564 480 564 480 546 c 256,356,357
 480 527 480 527 468 513 c 0,358,359
 456.8 499.933333333 456.8 499.933333333 442.115555556 499.933333333 c 0,360,361
 441.066666667 499.933333333 441.066666667 499.933333333 440 500 c 1,362,-1
 440 500 l 1,345,346
520 0 m 1,363,364
 504 0 504 0 491 14 c 0,365,366
 479.923076923 26.9230769231 479.923076923 26.9230769231 479.923076923 43.2544378698 c 0,367,368
 479.923076923 64.9090909091 479.923076923 64.9090909091 491 78 c 0,369,370
 496 84 496 84 502 87 c 1,371,-1
 502 87 l 1,372,373
 496 90 496 90 491 97 c 0,374,375
 479.923076923 109.923076923 479.923076923 109.923076923 479.923076923 126.25443787 c 0,376,377
 479.923076923 147.909090909 479.923076923 147.909090909 491 161 c 0,378,379
 496 167 496 167 502 171 c 1,380,-1
 502 171 l 1,381,382
 496 174 496 174 491 180 c 0,383,384
 479.923076923 192.923076923 479.923076923 192.923076923 479.923076923 209.25443787 c 0,385,386
 479.923076923 229.902097902 479.923076923 229.902097902 491 244 c 0,387,388
 496 250 496 250 502 254 c 1,389,-1
 502 254 l 1,390,391
 496 257 496 257 491 263 c 0,392,393
 479.923076923 276.846153846 479.923076923 276.846153846 479.923076923 293.24852071 c 0,394,395
 479.923076923 315.916083916 479.923076923 315.916083916 491 328 c 0,396,397
 496 334 496 334 502 338 c 1,398,-1
 502 338 l 1,399,400
 496 340 496 340 491 346 c 0,401,402
 479.923076923 358.923076923 479.923076923 358.923076923 479.923076923 376.106508876 c 0,403,404
 479.923076923 397.909090909 479.923076923 397.909090909 491 411 c 0,405,406
 496 417 496 417 502 421 c 1,407,-1
 502 421 l 1,408,409
 496 424 496 424 491 430 c 0,410,411
 479.923076923 442.923076923 479.923076923 442.923076923 479.923076923 459.25443787 c 0,412,413
 479.923076923 480.902097902 479.923076923 480.902097902 491 495 c 0,414,415
 496 501 496 501 502 504 c 1,416,-1
 502 504 l 1,417,418
 496 507 496 507 491 513 c 0,419,420
 479.923076923 525.923076923 479.923076923 525.923076923 479.923076923 543.106508876 c 0,421,422
 479.923076923 564.909090909 479.923076923 564.909090909 491 578 c 0,423,424
 503 592 503 592 520 592 c 0,425,426
 536 592 536 592 548 578 c 128,-1,427
 560 564 560 564 560 546 c 256,428,429
 560 527 560 527 548 513 c 0,430,431
 543 507 543 507 537 504 c 1,432,-1
 537 504 l 1,433,434
 543 501 543 501 548 495 c 0,435,436
 560 481 560 481 560 462 c 128,-1,437
 560 443 560 443 548 430 c 0,438,439
 543 424 543 424 537 421 c 1,440,-1
 537 421 l 1,441,442
 543 418 543 418 548 411 c 0,443,444
 560 397 560 397 560 379 c 256,445,446
 560 360 560 360 548 346 c 0,447,448
 543 340 543 340 537 338 c 1,449,-1
 537 338 l 1,450,451
 543 334 543 334 548 328 c 0,452,453
 560 314 560 314 560 296 c 0,454,455
 560 277 560 277 548 263 c 0,456,457
 543 257 543 257 537 254 c 1,458,-1
 537 254 l 1,459,460
 543 250 543 250 548 244 c 0,461,462
 560 230 560 230 560 212 c 256,463,464
 560 193 560 193 548 180 c 0,465,466
 543 174 543 174 537 171 c 1,467,-1
 537 171 l 1,468,469
 543 168 543 168 548 161 c 0,470,471
 560 147 560 147 560 129 c 256,472,473
 560 110 560 110 548 97 c 0,474,475
 543 91 543 91 537 87 c 1,476,-1
 537 87 l 1,477,478
 543 84 543 84 548 78 c 0,479,480
 560 64 560 64 560 46 c 128,-1,481
 560 28 560 28 548 14 c 128,-1,482
 536 0 536 0 520 0 c 1,483,-1
 520 0 l 1,363,364
EndSplineSet
EndChar

StartChar: four
Encoding: 52 52 20
Width: 720
VWidth: 750
Flags: W
LayerCount: 2
Fore
SplineSet
40 250 m 1,0,1
 24 250 24 250 11 263 c 0,2,3
 0 278 0 278 0 296 c 0,4,5
 0 316 0 316 11 328 c 0,6,7
 22.2 341.066666667 22.2 341.066666667 37.7555555556 341.066666667 c 0,8,9
 38.8666666667 341.066666667 38.8666666667 341.066666667 40 341 c 256,10,11
 41.0666666667 341.066666667 41.0666666667 341.066666667 42.1155555556 341.066666667 c 0,12,13
 56.8 341.066666667 56.8 341.066666667 68 328 c 0,14,15
 80 314 80 314 80 296 c 0,16,17
 80 277 80 277 68 263 c 256,18,19
 56.8 249.933333333 56.8 249.933333333 42.1155555556 249.933333333 c 0,20,21
 41.0666666667 249.933333333 41.0666666667 249.933333333 40 250 c 1,22,-1
 40 250 l 1,0,1
280 250 m 1,23,24
 264 250 264 250 251 263 c 256,25,26
 239.923076923 276.846153846 239.923076923 276.846153846 239.923076923 293.24852071 c 0,27,28
 239.923076923 315.916083916 239.923076923 315.916083916 251 328 c 0,29,30
 262.2 341.066666667 262.2 341.066666667 277.755555556 341.066666667 c 0,31,32
 278.866666667 341.066666667 278.866666667 341.066666667 280 341 c 256,33,34
 281.066666667 341.066666667 281.066666667 341.066666667 282.115555556 341.066666667 c 0,35,36
 296.8 341.066666667 296.8 341.066666667 308 328 c 0,37,38
 320 314 320 314 320 296 c 0,39,40
 320 277 320 277 308 263 c 256,41,42
 296.8 249.933333333 296.8 249.933333333 282.115555556 249.933333333 c 0,43,44
 281.066666667 249.933333333 281.066666667 249.933333333 280 250 c 1,45,-1
 280 250 l 1,23,24
360 250 m 1,46,47
 344 250 344 250 332 263 c 256,48,49
 320 278 320 278 320 296 c 0,50,51
 320 316 320 316 332 328 c 0,52,53
 343.2 341.066666667 343.2 341.066666667 357.884444444 341.066666667 c 0,54,55
 358.933333333 341.066666667 358.933333333 341.066666667 360 341 c 128,-1,56
 361.066666667 341.066666667 361.066666667 341.066666667 362.115555556 341.066666667 c 0,57,58
 376.8 341.066666667 376.8 341.066666667 388 328 c 0,59,60
 400 314 400 314 400 296 c 0,61,62
 400 277 400 277 388 263 c 256,63,64
 376.8 249.933333333 376.8 249.933333333 362.115555556 249.933333333 c 0,65,66
 361.066666667 249.933333333 361.066666667 249.933333333 360 250 c 1,67,-1
 360 250 l 1,46,47
600 250 m 1,68,69
 584 250 584 250 572 263 c 256,70,71
 560 278 560 278 560 296 c 0,72,73
 560 316 560 316 572 328 c 0,74,75
 583.2 341.066666667 583.2 341.066666667 597.884444444 341.066666667 c 0,76,77
 598.933333333 341.066666667 598.933333333 341.066666667 600 341 c 256,78,79
 601.066666667 341.066666667 601.066666667 341.066666667 602.115555556 341.066666667 c 0,80,81
 616.8 341.066666667 616.8 341.066666667 628 328 c 0,82,83
 640 314 640 314 640 296 c 0,84,85
 640 277 640 277 628 263 c 256,86,87
 616.8 249.933333333 616.8 249.933333333 602.115555556 249.933333333 c 0,88,89
 601.066666667 249.933333333 601.066666667 249.933333333 600 250 c 1,90,-1
 600 250 l 1,68,69
120 250 m 1,91,92
 104 250 104 250 92 263 c 256,93,94
 80 278 80 278 80 296 c 0,95,96
 80 316 80 316 92 328 c 0,97,98
 97 334 97 334 103 338 c 1,99,-1
 103 338 l 1,100,101
 98 340 98 340 92 346 c 0,102,103
 80 360 80 360 80 379 c 256,104,105
 80 398 80 398 92 411 c 128,-1,106
 104 424 104 424 120 424 c 256,107,108
 136 424 136 424 148 411 c 0,109,110
 159 397 159 397 160 379 c 256,111,112
 160 360 160 360 148 346 c 0,113,114
 143 340 143 340 137 338 c 1,115,-1
 137 338 l 1,116,117
 142 334 142 334 148 328 c 0,118,119
 159 314 159 314 160 296 c 0,120,121
 160 277 160 277 148 263 c 0,122,123
 136.8 249.933333333 136.8 249.933333333 122.115555556 249.933333333 c 0,124,125
 121.066666667 249.933333333 121.066666667 249.933333333 120 250 c 1,126,-1
 120 250 l 1,91,92
200 250 m 1,127,128
 184 250 184 250 172 263 c 256,129,130
 160 278 160 278 160 296 c 0,131,132
 160 316 160 316 172 328 c 0,133,134
 177 334 177 334 183 338 c 1,135,-1
 183 338 l 1,136,137
 177 340 177 340 172 346 c 0,138,139
 160 360 160 360 160 379 c 256,140,141
 160 398 160 398 172 411 c 0,142,143
 177 417 177 417 183 421 c 1,144,-1
 183 421 l 1,145,146
 177 424 177 424 172 430 c 0,147,148
 160 444 160 444 160 462 c 0,149,150
 160 481 160 481 172 495 c 256,151,152
 184 508 184 508 200 508 c 128,-1,153
 216 508 216 508 228 495 c 256,154,155
 240 481 240 481 240 462 c 128,-1,156
 240 443 240 443 228 430 c 0,157,158
 223 424 223 424 217 421 c 1,159,-1
 217 421 l 1,160,161
 223 418 223 418 228 411 c 0,162,163
 240 397 240 397 240 379 c 256,164,165
 240 360 240 360 228 346 c 0,166,167
 223 340 223 340 217 338 c 1,168,-1
 217 338 l 1,169,170
 223 334 223 334 228 328 c 0,171,172
 240 314 240 314 240 296 c 0,173,174
 240 277 240 277 228 263 c 256,175,176
 216.8 249.933333333 216.8 249.933333333 202.115555556 249.933333333 c 0,177,178
 201.066666667 249.933333333 201.066666667 249.933333333 200 250 c 1,179,-1
 200 250 l 1,127,128
280 416 m 1,180,181
 264 416 264 416 251 430 c 256,182,183
 239.923076923 442.923076923 239.923076923 442.923076923 239.923076923 459.25443787 c 0,184,185
 239.923076923 480.902097902 239.923076923 480.902097902 251 495 c 0,186,187
 256 501 256 501 263 504 c 1,188,-1
 263 504 l 1,189,190
 257 507 257 507 251 513 c 0,191,192
 239.923076923 525.923076923 239.923076923 525.923076923 239.923076923 543.106508876 c 0,193,194
 239.923076923 564.909090909 239.923076923 564.909090909 251 578 c 0,195,196
 263 592 263 592 280 592 c 256,197,198
 296 592 296 592 308 578 c 128,-1,199
 320 564 320 564 320 546 c 256,200,201
 320 527 320 527 308 513 c 0,202,203
 303 507 303 507 297 504 c 1,204,-1
 297 504 l 1,205,206
 303 501 303 501 308 495 c 0,207,208
 320 481 320 481 320 462 c 128,-1,209
 320 443 320 443 308 430 c 256,210,211
 296 416 296 416 280 416 c 1,212,-1
 280 416 l 1,180,181
360 500 m 1,213,214
 344 500 344 500 332 513 c 0,215,216
 320 527 320 527 320 546 c 256,217,218
 320 565 320 565 332 578 c 0,219,220
 344 592 344 592 360 592 c 128,-1,221
 376 592 376 592 388 578 c 128,-1,222
 400 564 400 564 400 546 c 256,223,224
 400 527 400 527 388 513 c 0,225,226
 376.8 499.933333333 376.8 499.933333333 362.115555556 499.933333333 c 0,227,228
 361.066666667 499.933333333 361.066666667 499.933333333 360 500 c 1,229,-1
 360 500 l 1,213,214
440 0 m 1,230,231
 424 0 424 0 412 14 c 128,-1,232
 400 28 400 28 400 46 c 0,233,234
 400 65 400 65 412 78 c 0,235,236
 417 84 417 84 423 87 c 1,237,-1
 423 87 l 1,238,239
 417 90 417 90 412 97 c 0,240,241
 400 111 400 111 400 129 c 256,242,243
 400 148 400 148 412 161 c 0,244,245
 417 167 417 167 423 171 c 1,246,-1
 423 171 l 1,247,248
 417 174 417 174 412 180 c 0,249,250
 400 194 400 194 400 212 c 256,251,252
 400 230 400 230 412 244 c 0,253,254
 417 250 417 250 423 254 c 1,255,-1
 423 254 l 1,256,257
 417 257 417 257 412 263 c 0,258,259
 400 278 400 278 400 296 c 0,260,261
 400 316 400 316 412 328 c 0,262,263
 417 334 417 334 423 338 c 1,264,-1
 423 338 l 1,265,266
 417 340 417 340 412 346 c 0,267,268
 400 360 400 360 400 379 c 256,269,270
 400 398 400 398 412 411 c 0,271,272
 417 417 417 417 423 421 c 1,273,-1
 423 421 l 1,274,275
 417 424 417 424 412 430 c 0,276,277
 400 444 400 444 400 462 c 0,278,279
 400 481 400 481 412 495 c 0,280,281
 417 501 417 501 423 504 c 1,282,-1
 423 504 l 1,283,284
 417 507 417 507 412 513 c 0,285,286
 400 527 400 527 400 546 c 256,287,288
 400 565 400 565 412 578 c 0,289,290
 424 592 424 592 440 592 c 256,291,292
 456 592 456 592 468 578 c 128,-1,293
 480 564 480 564 480 546 c 256,294,295
 480 527 480 527 468 513 c 0,296,297
 463 507 463 507 457 504 c 1,298,-1
 457 504 l 1,299,300
 463 501 463 501 468 495 c 0,301,302
 480 481 480 481 480 462 c 128,-1,303
 480 443 480 443 468 430 c 0,304,305
 463 424 463 424 457 421 c 1,306,-1
 457 421 l 1,307,308
 463 418 463 418 468 411 c 0,309,310
 480 397 480 397 480 379 c 256,311,312
 480 360 480 360 468 346 c 0,313,314
 463 340 463 340 457 338 c 1,315,-1
 457 338 l 1,316,317
 463 334 463 334 468 328 c 0,318,319
 480 314 480 314 480 296 c 0,320,321
 480 277 480 277 468 263 c 0,322,323
 463 257 463 257 457 254 c 1,324,-1
 457 254 l 1,325,326
 463 250 463 250 468 244 c 0,327,328
 480 230 480 230 480 212 c 256,329,330
 480 193 480 193 468 180 c 0,331,332
 463 174 463 174 457 171 c 1,333,-1
 457 171 l 1,334,335
 463 168 463 168 468 161 c 0,336,337
 480 147 480 147 480 129 c 256,338,339
 480 110 480 110 468 97 c 0,340,341
 463 91 463 91 457 87 c 1,342,-1
 457 87 l 1,343,344
 463 84 463 84 468 78 c 0,345,346
 480 64 480 64 480 46 c 128,-1,347
 480 28 480 28 468 14 c 128,-1,348
 456 0 456 0 440 0 c 1,349,-1
 440 0 l 1,230,231
520 0 m 1,350,351
 504 0 504 0 491 14 c 0,352,353
 479.923076923 26.9230769231 479.923076923 26.9230769231 479.923076923 43.2544378698 c 0,354,355
 479.923076923 64.9090909091 479.923076923 64.9090909091 491 78 c 0,356,357
 496 84 496 84 502 87 c 1,358,-1
 502 87 l 1,359,360
 496 90 496 90 491 97 c 0,361,362
 479.923076923 109.923076923 479.923076923 109.923076923 479.923076923 126.25443787 c 0,363,364
 479.923076923 147.909090909 479.923076923 147.909090909 491 161 c 0,365,366
 496 167 496 167 502 171 c 1,367,-1
 502 171 l 1,368,369
 496 174 496 174 491 180 c 0,370,371
 479.923076923 192.923076923 479.923076923 192.923076923 479.923076923 209.25443787 c 0,372,373
 479.923076923 229.902097902 479.923076923 229.902097902 491 244 c 0,374,375
 496 250 496 250 502 254 c 1,376,-1
 502 254 l 1,377,378
 496 257 496 257 491 263 c 0,379,380
 479.923076923 276.846153846 479.923076923 276.846153846 479.923076923 293.24852071 c 0,381,382
 479.923076923 315.916083916 479.923076923 315.916083916 491 328 c 0,383,384
 496 334 496 334 502 338 c 1,385,-1
 502 338 l 1,386,387
 496 340 496 340 491 346 c 0,388,389
 479.923076923 358.923076923 479.923076923 358.923076923 479.923076923 376.106508876 c 0,390,391
 479.923076923 397.909090909 479.923076923 397.909090909 491 411 c 0,392,393
 496 417 496 417 502 421 c 1,394,-1
 502 421 l 1,395,396
 496 424 496 424 491 430 c 0,397,398
 479.923076923 442.923076923 479.923076923 442.923076923 479.923076923 459.25443787 c 0,399,400
 479.923076923 480.902097902 479.923076923 480.902097902 491 495 c 0,401,402
 496 501 496 501 502 504 c 1,403,-1
 502 504 l 1,404,405
 496 507 496 507 491 513 c 0,406,407
 479.923076923 525.923076923 479.923076923 525.923076923 479.923076923 543.106508876 c 0,408,409
 479.923076923 564.909090909 479.923076923 564.909090909 491 578 c 0,410,411
 503 592 503 592 520 592 c 0,412,413
 536 592 536 592 548 578 c 128,-1,414
 560 564 560 564 560 546 c 256,415,416
 560 527 560 527 548 513 c 0,417,418
 543 507 543 507 537 504 c 1,419,-1
 537 504 l 1,420,421
 543 501 543 501 548 495 c 0,422,423
 560 481 560 481 560 462 c 128,-1,424
 560 443 560 443 548 430 c 0,425,426
 543 424 543 424 537 421 c 1,427,-1
 537 421 l 1,428,429
 543 418 543 418 548 411 c 0,430,431
 560 397 560 397 560 379 c 256,432,433
 560 360 560 360 548 346 c 0,434,435
 543 340 543 340 537 338 c 1,436,-1
 537 338 l 1,437,438
 543 334 543 334 548 328 c 0,439,440
 560 314 560 314 560 296 c 0,441,442
 560 277 560 277 548 263 c 0,443,444
 543 257 543 257 537 254 c 1,445,-1
 537 254 l 1,446,447
 543 250 543 250 548 244 c 0,448,449
 560 230 560 230 560 212 c 256,450,451
 560 193 560 193 548 180 c 0,452,453
 543 174 543 174 537 171 c 1,454,-1
 537 171 l 1,455,456
 543 168 543 168 548 161 c 0,457,458
 560 147 560 147 560 129 c 256,459,460
 560 110 560 110 548 97 c 0,461,462
 543 91 543 91 537 87 c 1,463,-1
 537 87 l 1,464,465
 543 84 543 84 548 78 c 0,466,467
 560 64 560 64 560 46 c 128,-1,468
 560 28 560 28 548 14 c 128,-1,469
 536 0 536 0 520 0 c 1,470,-1
 520 0 l 1,350,351
EndSplineSet
EndChar

StartChar: five
Encoding: 53 53 21
Width: 720
VWidth: 750
Flags: W
LayerCount: 2
Fore
SplineSet
200 0 m 1,0,1
 184 0 184 0 172 14 c 128,-1,2
 160 28 160 28 160 46 c 0,3,4
 160 65 160 65 172 78 c 256,5,6
 184 92 184 92 200 92 c 128,-1,7
 216 92 216 92 228 78 c 256,8,9
 240 64 240 64 240 46 c 128,-1,10
 240 28 240 28 228 14 c 128,-1,11
 216 0 216 0 200 0 c 1,12,-1
 200 0 l 1,0,1
280 0 m 1,13,14
 264 0 264 0 251 14 c 0,15,16
 239.923076923 26.9230769231 239.923076923 26.9230769231 239.923076923 43.2544378698 c 0,17,18
 239.923076923 64.9090909091 239.923076923 64.9090909091 251 78 c 256,19,20
 263 92 263 92 280 92 c 256,21,22
 296 92 296 92 308 78 c 256,23,24
 320 64 320 64 320 46 c 128,-1,25
 320 28 320 28 308 14 c 128,-1,26
 296 0 296 0 280 0 c 1,27,-1
 280 0 l 1,13,14
360 0 m 1,28,29
 344 0 344 0 332 14 c 128,-1,30
 320 28 320 28 320 46 c 0,31,32
 320 65 320 65 332 78 c 256,33,34
 344 92 344 92 360 92 c 128,-1,35
 376 92 376 92 388 78 c 256,36,37
 400 64 400 64 400 46 c 128,-1,38
 400 28 400 28 388 14 c 128,-1,39
 376 0 376 0 360 0 c 1,40,-1
 360 0 l 1,28,29
440 0 m 1,41,42
 424 0 424 0 412 14 c 128,-1,43
 400 28 400 28 400 46 c 0,44,45
 400 65 400 65 412 78 c 256,46,47
 424 92 424 92 440 92 c 256,48,49
 456 92 456 92 468 78 c 256,50,51
 480 64 480 64 480 46 c 128,-1,52
 480 28 480 28 468 14 c 128,-1,53
 456 0 456 0 440 0 c 1,54,-1
 440 0 l 1,41,42
40 83 m 1,55,56
 24 83 24 83 11 97 c 0,57,58
 0 111 0 111 0 129 c 256,59,60
 0 148 0 148 11 161 c 0,61,62
 23 175 23 175 40 175 c 256,63,64
 56 175 56 175 68 161 c 128,-1,65
 80 147 80 147 80 129 c 256,66,67
 80 110 80 110 68 97 c 0,68,69
 56 83 56 83 40 83 c 1,70,-1
 40 83 l 1,55,56
120 0 m 1,71,72
 104 0 104 0 92 14 c 128,-1,73
 80 28 80 28 80 46 c 0,74,75
 80 65 80 65 92 78 c 0,76,77
 97 84 97 84 103 87 c 1,78,-1
 103 87 l 1,79,80
 98 90 98 90 92 97 c 0,81,82
 80 111 80 111 80 129 c 256,83,84
 80 148 80 148 92 161 c 0,85,86
 104 175 104 175 120 175 c 256,87,88
 136 175 136 175 148 161 c 0,89,90
 159 147 159 147 160 129 c 256,91,92
 160 110 160 110 148 97 c 0,93,94
 143 91 143 91 137 87 c 1,95,-1
 137 87 l 1,96,97
 142 84 142 84 148 78 c 0,98,99
 159 64 159 64 160 46 c 0,100,101
 160 28 160 28 148 14 c 128,-1,102
 136 0 136 0 120 0 c 1,103,-1
 120 0 l 1,71,72
520 0 m 1,104,105
 504 0 504 0 491 14 c 0,106,107
 479.923076923 26.9230769231 479.923076923 26.9230769231 479.923076923 43.2544378698 c 0,108,109
 479.923076923 64.9090909091 479.923076923 64.9090909091 491 78 c 0,110,111
 496 84 496 84 502 87 c 1,112,-1
 502 87 l 1,113,114
 496 90 496 90 491 97 c 0,115,116
 479.923076923 109.923076923 479.923076923 109.923076923 479.923076923 126.25443787 c 0,117,118
 479.923076923 147.909090909 479.923076923 147.909090909 491 161 c 0,119,120
 496 167 496 167 502 171 c 1,121,-1
 502 171 l 1,122,123
 496 174 496 174 491 180 c 0,124,125
 479.923076923 192.923076923 479.923076923 192.923076923 479.923076923 209.25443787 c 0,126,127
 479.923076923 229.902097902 479.923076923 229.902097902 491 244 c 0,128,129
 496 250 496 250 502 254 c 1,130,-1
 502 254 l 1,131,132
 496 257 496 257 491 263 c 0,133,134
 479.923076923 276.846153846 479.923076923 276.846153846 479.923076923 293.24852071 c 0,135,136
 479.923076923 315.916083916 479.923076923 315.916083916 491 328 c 0,137,138
 502.2 341.066666667 502.2 341.066666667 517.755555556 341.066666667 c 0,139,140
 518.866666667 341.066666667 518.866666667 341.066666667 520 341 c 128,-1,141
 521.066666667 341.066666667 521.066666667 341.066666667 522.115555556 341.066666667 c 0,142,143
 536.8 341.066666667 536.8 341.066666667 548 328 c 0,144,145
 560 314 560 314 560 296 c 0,146,147
 560 277 560 277 548 263 c 0,148,149
 543 257 543 257 537 254 c 1,150,-1
 537 254 l 1,151,152
 543 250 543 250 548 244 c 0,153,154
 560 230 560 230 560 212 c 256,155,156
 560 193 560 193 548 180 c 0,157,158
 543 174 543 174 537 171 c 1,159,-1
 537 171 l 1,160,161
 543 168 543 168 548 161 c 0,162,163
 560 147 560 147 560 129 c 256,164,165
 560 110 560 110 548 97 c 0,166,167
 543 91 543 91 537 87 c 1,168,-1
 537 87 l 1,169,170
 543 84 543 84 548 78 c 0,171,172
 560 64 560 64 560 46 c 128,-1,173
 560 28 560 28 548 14 c 128,-1,174
 536 0 536 0 520 0 c 1,175,-1
 520 0 l 1,104,105
600 83 m 1,176,177
 584 83 584 83 572 97 c 128,-1,178
 560 111 560 111 560 129 c 256,179,180
 560 148 560 148 572 161 c 0,181,182
 577 167 577 167 583 171 c 1,183,-1
 583 171 l 1,184,185
 578 174 578 174 572 180 c 0,186,187
 560 194 560 194 560 212 c 256,188,189
 560 230 560 230 572 244 c 0,190,191
 577 250 577 250 583 254 c 1,192,-1
 583 254 l 1,193,194
 578 257 578 257 572 263 c 0,195,196
 560 278 560 278 560 296 c 0,197,198
 560 316 560 316 572 328 c 0,199,200
 583.2 341.066666667 583.2 341.066666667 597.884444444 341.066666667 c 0,201,202
 598.933333333 341.066666667 598.933333333 341.066666667 600 341 c 256,203,204
 601.066666667 341.066666667 601.066666667 341.066666667 602.115555556 341.066666667 c 0,205,206
 616.8 341.066666667 616.8 341.066666667 628 328 c 0,207,208
 640 314 640 314 640 296 c 0,209,210
 640 277 640 277 628 263 c 0,211,212
 622 257 622 257 616 254 c 1,213,-1
 616 254 l 1,214,215
 622 250 622 250 628 244 c 0,216,217
 640 230 640 230 640 212 c 256,218,219
 640 193 640 193 628 180 c 0,220,221
 622 174 622 174 616 171 c 1,222,-1
 616 171 l 1,223,224
 622 168 622 168 628 161 c 0,225,226
 640 147 640 147 640 129 c 256,227,228
 640 110 640 110 628 97 c 0,229,230
 616 83 616 83 600 83 c 1,231,-1
 600 83 l 1,176,177
200 333 m 1,232,233
 198.933333333 332.933333333 198.933333333 332.933333333 197.884444444 332.933333333 c 0,234,235
 183.2 332.933333333 183.2 332.933333333 172 346 c 0,236,237
 160 360 160 360 160 379 c 256,238,239
 160 398 160 398 172 411 c 128,-1,240
 184 424 184 424 200 424 c 128,-1,241
 216 424 216 424 228 411 c 0,242,243
 240 397 240 397 240 379 c 256,244,245
 240 360 240 360 228 346 c 0,246,247
 216.8 332.933333333 216.8 332.933333333 202.115555556 332.933333333 c 0,248,249
 201.066666667 332.933333333 201.066666667 332.933333333 200 333 c 1,250,-1
 200 333 l 1,232,233
280 333 m 1,251,252
 278.933333333 332.933333333 278.933333333 332.933333333 277.88 332.933333333 c 0,253,254
 263.133333333 332.933333333 263.133333333 332.933333333 251 346 c 0,255,256
 239.923076923 358.923076923 239.923076923 358.923076923 239.923076923 376.106508876 c 0,257,258
 239.923076923 397.909090909 239.923076923 397.909090909 251 411 c 0,259,260
 263 424 263 424 280 424 c 256,261,262
 296 424 296 424 308 411 c 0,263,264
 320 397 320 397 320 379 c 256,265,266
 320 360 320 360 308 346 c 0,267,268
 296.8 332.933333333 296.8 332.933333333 282.115555556 332.933333333 c 0,269,270
 281.066666667 332.933333333 281.066666667 332.933333333 280 333 c 1,271,-1
 280 333 l 1,251,252
360 333 m 1,272,273
 358.933333333 332.933333333 358.933333333 332.933333333 357.884444444 332.933333333 c 0,274,275
 343.2 332.933333333 343.2 332.933333333 332 346 c 0,276,277
 320 360 320 360 320 379 c 256,278,279
 320 398 320 398 332 411 c 128,-1,280
 344 424 344 424 360 424 c 128,-1,281
 376 424 376 424 388 411 c 0,282,283
 400 397 400 397 400 379 c 256,284,285
 400 360 400 360 388 346 c 0,286,287
 376.8 332.933333333 376.8 332.933333333 362.115555556 332.933333333 c 0,288,289
 361.066666667 332.933333333 361.066666667 332.933333333 360 333 c 1,290,-1
 360 333 l 1,272,273
440 333 m 1,291,292
 438.933333333 332.933333333 438.933333333 332.933333333 437.884444444 332.933333333 c 0,293,294
 423.2 332.933333333 423.2 332.933333333 412 346 c 0,295,296
 400 360 400 360 400 379 c 256,297,298
 400 398 400 398 412 411 c 128,-1,299
 424 424 424 424 440 424 c 256,300,301
 456 424 456 424 468 411 c 0,302,303
 480 397 480 397 480 379 c 256,304,305
 480 360 480 360 468 346 c 0,306,307
 456.8 332.933333333 456.8 332.933333333 442.115555556 332.933333333 c 0,308,309
 441.066666667 332.933333333 441.066666667 332.933333333 440 333 c 1,310,-1
 440 333 l 1,291,292
40 333 m 1,311,312
 38.9333333333 332.933333333 38.9333333333 332.933333333 37.88 332.933333333 c 0,313,314
 23.1333333333 332.933333333 23.1333333333 332.933333333 11 346 c 0,315,316
 0 360 0 360 0 379 c 256,317,318
 0 398 0 398 11 411 c 0,319,320
 16 417 16 417 22 421 c 1,321,-1
 22 421 l 1,322,323
 16 424 16 424 11 430 c 0,324,325
 0 444 0 444 0 462 c 0,326,327
 0 481 0 481 11 495 c 0,328,329
 16 501 16 501 22 504 c 1,330,-1
 22 504 l 1,331,332
 16 507 16 507 11 513 c 0,333,334
 0 527 0 527 0 546 c 256,335,336
 0 565 0 565 11 578 c 0,337,338
 23 592 23 592 40 592 c 256,339,340
 56 592 56 592 68 578 c 128,-1,341
 80 564 80 564 80 546 c 256,342,343
 80 527 80 527 68 513 c 0,344,345
 63 507 63 507 57 504 c 1,346,-1
 57 504 l 1,347,348
 63 501 63 501 68 495 c 0,349,350
 80 481 80 481 80 462 c 128,-1,351
 80 443 80 443 68 430 c 0,352,353
 63 424 63 424 57 421 c 1,354,-1
 57 421 l 1,355,356
 63 418 63 418 68 411 c 0,357,358
 80 397 80 397 80 379 c 256,359,360
 80 360 80 360 68 346 c 0,361,362
 56.8 332.933333333 56.8 332.933333333 42.1155555556 332.933333333 c 0,363,364
 41.0666666667 332.933333333 41.0666666667 332.933333333 40 333 c 1,365,-1
 40 333 l 1,311,312
120 333 m 1,366,367
 118.933333333 332.933333333 118.933333333 332.933333333 117.884444444 332.933333333 c 0,368,369
 103.2 332.933333333 103.2 332.933333333 92 346 c 0,370,371
 80 360 80 360 80 379 c 256,372,373
 80 398 80 398 92 411 c 0,374,375
 97 417 97 417 103 421 c 1,376,-1
 103 421 l 1,377,378
 98 424 98 424 92 430 c 0,379,380
 80 444 80 444 80 462 c 0,381,382
 80 481 80 481 92 495 c 0,383,384
 97 501 97 501 103 504 c 1,385,-1
 103 504 l 1,386,387
 98 507 98 507 92 513 c 0,388,389
 80 527 80 527 80 546 c 256,390,391
 80 565 80 565 92 578 c 0,392,393
 104 592 104 592 120 592 c 256,394,395
 136 592 136 592 148 578 c 0,396,397
 159 564 159 564 160 546 c 256,398,399
 160 527 160 527 148 513 c 0,400,401
 143 507 143 507 137 504 c 1,402,-1
 137 504 l 1,403,404
 142 501 142 501 148 495 c 0,405,406
 159 481 159 481 160 462 c 0,407,408
 160 443 160 443 148 430 c 0,409,410
 143 424 143 424 137 421 c 1,411,-1
 137 421 l 1,412,413
 142 418 142 418 148 411 c 0,414,415
 159 397 159 397 160 379 c 256,416,417
 160 360 160 360 148 346 c 0,418,419
 136.8 332.933333333 136.8 332.933333333 122.115555556 332.933333333 c 0,420,421
 121.066666667 332.933333333 121.066666667 332.933333333 120 333 c 1,422,-1
 120 333 l 1,366,367
200 500 m 1,423,424
 184 500 184 500 172 513 c 0,425,426
 160 527 160 527 160 546 c 256,427,428
 160 565 160 565 172 578 c 0,429,430
 184 592 184 592 200 592 c 128,-1,431
 216 592 216 592 228 578 c 128,-1,432
 240 564 240 564 240 546 c 256,433,434
 240 527 240 527 228 513 c 0,435,436
 216.8 499.933333333 216.8 499.933333333 202.115555556 499.933333333 c 0,437,438
 201.066666667 499.933333333 201.066666667 499.933333333 200 500 c 1,439,-1
 200 500 l 1,423,424
280 500 m 1,440,441
 264 500 264 500 251 513 c 0,442,443
 239.923076923 525.923076923 239.923076923 525.923076923 239.923076923 543.106508876 c 0,444,445
 239.923076923 564.909090909 239.923076923 564.909090909 251 578 c 0,446,447
 263 592 263 592 280 592 c 256,448,449
 296 592 296 592 308 578 c 128,-1,450
 320 564 320 564 320 546 c 256,451,452
 320 527 320 527 308 513 c 0,453,454
 296.8 499.933333333 296.8 499.933333333 282.115555556 499.933333333 c 0,455,456
 281.066666667 499.933333333 281.066666667 499.933333333 280 500 c 1,457,-1
 280 500 l 1,440,441
360 500 m 1,458,459
 344 500 344 500 332 513 c 0,460,461
 320 527 320 527 320 546 c 256,462,463
 320 565 320 565 332 578 c 0,464,465
 344 592 344 592 360 592 c 128,-1,466
 376 592 376 592 388 578 c 128,-1,467
 400 564 400 564 400 546 c 256,468,469
 400 527 400 527 388 513 c 0,470,471
 376.8 499.933333333 376.8 499.933333333 362.115555556 499.933333333 c 0,472,473
 361.066666667 499.933333333 361.066666667 499.933333333 360 500 c 1,474,-1
 360 500 l 1,458,459
440 500 m 1,475,476
 424 500 424 500 412 513 c 0,477,478
 400 527 400 527 400 546 c 256,479,480
 400 565 400 565 412 578 c 0,481,482
 424 592 424 592 440 592 c 256,483,484
 456 592 456 592 468 578 c 128,-1,485
 480 564 480 564 480 546 c 256,486,487
 480 527 480 527 468 513 c 0,488,489
 456.8 499.933333333 456.8 499.933333333 442.115555556 499.933333333 c 0,490,491
 441.066666667 499.933333333 441.066666667 499.933333333 440 500 c 1,492,-1
 440 500 l 1,475,476
520 500 m 1,493,494
 504 500 504 500 491 513 c 0,495,496
 479.923076923 525.923076923 479.923076923 525.923076923 479.923076923 543.106508876 c 0,497,498
 479.923076923 564.909090909 479.923076923 564.909090909 491 578 c 0,499,500
 503 592 503 592 520 592 c 0,501,502
 536 592 536 592 548 578 c 128,-1,503
 560 564 560 564 560 546 c 256,504,505
 560 527 560 527 548 513 c 0,506,507
 536.8 499.933333333 536.8 499.933333333 522.115555556 499.933333333 c 0,508,509
 521.066666667 499.933333333 521.066666667 499.933333333 520 500 c 1,510,-1
 520 500 l 1,493,494
600 500 m 1,511,512
 584 500 584 500 572 513 c 0,513,514
 560 527 560 527 560 546 c 256,515,516
 560 565 560 565 572 578 c 0,517,518
 584 592 584 592 600 592 c 256,519,520
 616 592 616 592 628 578 c 128,-1,521
 640 564 640 564 640 546 c 256,522,523
 640 527 640 527 628 513 c 0,524,525
 616.8 499.933333333 616.8 499.933333333 602.115555556 499.933333333 c 0,526,527
 601.066666667 499.933333333 601.066666667 499.933333333 600 500 c 1,528,-1
 600 500 l 1,511,512
EndSplineSet
EndChar

StartChar: six
Encoding: 54 54 22
Width: 720
VWidth: 750
Flags: W
LayerCount: 2
Fore
SplineSet
200 0 m 1,0,1
 184 0 184 0 172 14 c 128,-1,2
 160 28 160 28 160 46 c 0,3,4
 160 65 160 65 172 78 c 256,5,6
 184 92 184 92 200 92 c 128,-1,7
 216 92 216 92 228 78 c 256,8,9
 240 64 240 64 240 46 c 128,-1,10
 240 28 240 28 228 14 c 128,-1,11
 216 0 216 0 200 0 c 1,12,-1
 200 0 l 1,0,1
280 0 m 1,13,14
 264 0 264 0 251 14 c 0,15,16
 239.923076923 26.9230769231 239.923076923 26.9230769231 239.923076923 43.2544378698 c 0,17,18
 239.923076923 64.9090909091 239.923076923 64.9090909091 251 78 c 256,19,20
 263 92 263 92 280 92 c 256,21,22
 296 92 296 92 308 78 c 256,23,24
 320 64 320 64 320 46 c 128,-1,25
 320 28 320 28 308 14 c 128,-1,26
 296 0 296 0 280 0 c 1,27,-1
 280 0 l 1,13,14
360 0 m 1,28,29
 344 0 344 0 332 14 c 128,-1,30
 320 28 320 28 320 46 c 0,31,32
 320 65 320 65 332 78 c 256,33,34
 344 92 344 92 360 92 c 128,-1,35
 376 92 376 92 388 78 c 256,36,37
 400 64 400 64 400 46 c 128,-1,38
 400 28 400 28 388 14 c 128,-1,39
 376 0 376 0 360 0 c 1,40,-1
 360 0 l 1,28,29
440 0 m 1,41,42
 424 0 424 0 412 14 c 128,-1,43
 400 28 400 28 400 46 c 0,44,45
 400 65 400 65 412 78 c 256,46,47
 424 92 424 92 440 92 c 256,48,49
 456 92 456 92 468 78 c 256,50,51
 480 64 480 64 480 46 c 128,-1,52
 480 28 480 28 468 14 c 128,-1,53
 456 0 456 0 440 0 c 1,54,-1
 440 0 l 1,41,42
40 83 m 1,55,56
 24 83 24 83 11 97 c 0,57,58
 0 111 0 111 0 129 c 256,59,60
 0 148 0 148 11 161 c 0,61,62
 16 167 16 167 22 171 c 1,63,-1
 22 171 l 1,64,65
 16 174 16 174 11 180 c 0,66,67
 0 194 0 194 0 212 c 256,68,69
 0 230 0 230 11 244 c 0,70,71
 23 258 23 258 40 258 c 256,72,73
 56 258 56 258 68 244 c 128,-1,74
 80 230 80 230 80 212 c 256,75,76
 80 193 80 193 68 180 c 0,77,78
 63 174 63 174 57 171 c 1,79,-1
 57 171 l 1,80,81
 63 168 63 168 68 161 c 0,82,83
 80 147 80 147 80 129 c 256,84,85
 80 110 80 110 68 97 c 0,86,87
 56 83 56 83 40 83 c 1,88,-1
 40 83 l 1,55,56
600 83 m 1,89,90
 584 83 584 83 572 97 c 128,-1,91
 560 111 560 111 560 129 c 256,92,93
 560 148 560 148 572 161 c 0,94,95
 577 167 577 167 583 171 c 1,96,-1
 583 171 l 1,97,98
 578 174 578 174 572 180 c 0,99,100
 560 194 560 194 560 212 c 256,101,102
 560 230 560 230 572 244 c 128,-1,103
 584 258 584 258 600 258 c 256,104,105
 616 258 616 258 628 244 c 128,-1,106
 640 230 640 230 640 212 c 256,107,108
 640 193 640 193 628 180 c 0,109,110
 622 174 622 174 616 171 c 1,111,-1
 616 171 l 1,112,113
 622 168 622 168 628 161 c 0,114,115
 640 147 640 147 640 129 c 256,116,117
 640 110 640 110 628 97 c 0,118,119
 616 83 616 83 600 83 c 1,120,-1
 600 83 l 1,89,90
120 0 m 1,121,122
 104 0 104 0 92 14 c 128,-1,123
 80 28 80 28 80 46 c 0,124,125
 80 65 80 65 92 78 c 0,126,127
 97 84 97 84 103 87 c 1,128,-1
 103 87 l 1,129,130
 98 90 98 90 92 97 c 0,131,132
 80 111 80 111 80 129 c 256,133,134
 80 148 80 148 92 161 c 0,135,136
 97 167 97 167 103 171 c 1,137,-1
 103 171 l 1,138,139
 98 174 98 174 92 180 c 0,140,141
 80 194 80 194 80 212 c 256,142,143
 80 230 80 230 92 244 c 0,144,145
 97 250 97 250 103 254 c 1,146,-1
 103 254 l 1,147,148
 98 257 98 257 92 263 c 0,149,150
 80 278 80 278 80 296 c 0,151,152
 80 316 80 316 92 328 c 0,153,154
 103.2 341.066666667 103.2 341.066666667 117.884444444 341.066666667 c 0,155,156
 118.933333333 341.066666667 118.933333333 341.066666667 120 341 c 256,157,158
 121.066666667 341.066666667 121.066666667 341.066666667 122.115555556 341.066666667 c 0,159,160
 136.8 341.066666667 136.8 341.066666667 148 328 c 0,161,162
 159 314 159 314 160 296 c 0,163,164
 160 277 160 277 148 263 c 0,165,166
 143 257 143 257 137 254 c 1,167,-1
 137 254 l 1,168,169
 142 250 142 250 148 244 c 0,170,171
 159 230 159 230 160 212 c 256,172,173
 160 193 160 193 148 180 c 0,174,175
 143 174 143 174 137 171 c 1,176,-1
 137 171 l 1,177,178
 142 168 142 168 148 161 c 0,179,180
 159 147 159 147 160 129 c 256,181,182
 160 110 160 110 148 97 c 0,183,184
 143 91 143 91 137 87 c 1,185,-1
 137 87 l 1,186,187
 142 84 142 84 148 78 c 0,188,189
 159 64 159 64 160 46 c 0,190,191
 160 28 160 28 148 14 c 128,-1,192
 136 0 136 0 120 0 c 1,193,-1
 120 0 l 1,121,122
360 250 m 1,194,195
 344 250 344 250 332 263 c 256,196,197
 320 278 320 278 320 296 c 0,198,199
 320 316 320 316 332 328 c 0,200,201
 343.2 341.066666667 343.2 341.066666667 357.884444444 341.066666667 c 0,202,203
 358.933333333 341.066666667 358.933333333 341.066666667 360 341 c 128,-1,204
 361.066666667 341.066666667 361.066666667 341.066666667 362.115555556 341.066666667 c 0,205,206
 376.8 341.066666667 376.8 341.066666667 388 328 c 0,207,208
 400 314 400 314 400 296 c 0,209,210
 400 277 400 277 388 263 c 256,211,212
 376.8 249.933333333 376.8 249.933333333 362.115555556 249.933333333 c 0,213,214
 361.066666667 249.933333333 361.066666667 249.933333333 360 250 c 1,215,-1
 360 250 l 1,194,195
440 250 m 1,216,217
 424 250 424 250 412 263 c 256,218,219
 400 278 400 278 400 296 c 0,220,221
 400 316 400 316 412 328 c 0,222,223
 423.2 341.066666667 423.2 341.066666667 437.884444444 341.066666667 c 0,224,225
 438.933333333 341.066666667 438.933333333 341.066666667 440 341 c 256,226,227
 441.066666667 341.066666667 441.066666667 341.066666667 442.115555556 341.066666667 c 0,228,229
 456.8 341.066666667 456.8 341.066666667 468 328 c 0,230,231
 480 314 480 314 480 296 c 0,232,233
 480 277 480 277 468 263 c 256,234,235
 456.8 249.933333333 456.8 249.933333333 442.115555556 249.933333333 c 0,236,237
 441.066666667 249.933333333 441.066666667 249.933333333 440 250 c 1,238,-1
 440 250 l 1,216,217
520 0 m 1,239,240
 504 0 504 0 491 14 c 0,241,242
 479.923076923 26.9230769231 479.923076923 26.9230769231 479.923076923 43.2544378698 c 0,243,244
 479.923076923 64.9090909091 479.923076923 64.9090909091 491 78 c 0,245,246
 496 84 496 84 502 87 c 1,247,-1
 502 87 l 1,248,249
 496 90 496 90 491 97 c 0,250,251
 479.923076923 109.923076923 479.923076923 109.923076923 479.923076923 126.25443787 c 0,252,253
 479.923076923 147.909090909 479.923076923 147.909090909 491 161 c 0,254,255
 496 167 496 167 502 171 c 1,256,-1
 502 171 l 1,257,258
 496 174 496 174 491 180 c 0,259,260
 479.923076923 192.923076923 479.923076923 192.923076923 479.923076923 209.25443787 c 0,261,262
 479.923076923 229.902097902 479.923076923 229.902097902 491 244 c 0,263,264
 496 250 496 250 502 254 c 1,265,-1
 502 254 l 1,266,267
 496 257 496 257 491 263 c 0,268,269
 479.923076923 276.846153846 479.923076923 276.846153846 479.923076923 293.24852071 c 0,270,271
 479.923076923 315.916083916 479.923076923 315.916083916 491 328 c 0,272,273
 502.2 341.066666667 502.2 341.066666667 517.755555556 341.066666667 c 0,274,275
 518.866666667 341.066666667 518.866666667 341.066666667 520 341 c 128,-1,276
 521.066666667 341.066666667 521.066666667 341.066666667 522.115555556 341.066666667 c 0,277,278
 536.8 341.066666667 536.8 341.066666667 548 328 c 0,279,280
 560 314 560 314 560 296 c 0,281,282
 560 277 560 277 548 263 c 0,283,284
 543 257 543 257 537 254 c 1,285,-1
 537 254 l 1,286,287
 543 250 543 250 548 244 c 0,288,289
 560 230 560 230 560 212 c 256,290,291
 560 193 560 193 548 180 c 0,292,293
 543 174 543 174 537 171 c 1,294,-1
 537 171 l 1,295,296
 543 168 543 168 548 161 c 0,297,298
 560 147 560 147 560 129 c 256,299,300
 560 110 560 110 548 97 c 0,301,302
 543 91 543 91 537 87 c 1,303,-1
 537 87 l 1,304,305
 543 84 543 84 548 78 c 0,306,307
 560 64 560 64 560 46 c 128,-1,308
 560 28 560 28 548 14 c 128,-1,309
 536 0 536 0 520 0 c 1,310,-1
 520 0 l 1,239,240
200 250 m 1,311,312
 184 250 184 250 172 263 c 256,313,314
 160 278 160 278 160 296 c 0,315,316
 160 316 160 316 172 328 c 0,317,318
 177 334 177 334 183 338 c 1,319,-1
 183 338 l 1,320,321
 177 340 177 340 172 346 c 0,322,323
 160 360 160 360 160 379 c 256,324,325
 160 398 160 398 172 411 c 128,-1,326
 184 424 184 424 200 424 c 128,-1,327
 216 424 216 424 228 411 c 0,328,329
 240 397 240 397 240 379 c 256,330,331
 240 360 240 360 228 346 c 0,332,333
 223 340 223 340 217 338 c 1,334,-1
 217 338 l 1,335,336
 223 334 223 334 228 328 c 0,337,338
 240 314 240 314 240 296 c 0,339,340
 240 277 240 277 228 263 c 256,341,342
 216.8 249.933333333 216.8 249.933333333 202.115555556 249.933333333 c 0,343,344
 201.066666667 249.933333333 201.066666667 249.933333333 200 250 c 1,345,-1
 200 250 l 1,311,312
280 250 m 1,346,347
 264 250 264 250 251 263 c 256,348,349
 239.923076923 276.846153846 239.923076923 276.846153846 239.923076923 293.24852071 c 0,350,351
 239.923076923 315.916083916 239.923076923 315.916083916 251 328 c 0,352,353
 256 334 256 334 263 338 c 1,354,-1
 263 338 l 1,355,356
 257 340 257 340 251 346 c 0,357,358
 239.923076923 358.923076923 239.923076923 358.923076923 239.923076923 376.106508876 c 0,359,360
 239.923076923 397.909090909 239.923076923 397.909090909 251 411 c 0,361,362
 256 417 256 417 263 421 c 1,363,-1
 263 421 l 1,364,365
 257 424 257 424 251 430 c 0,366,367
 239.923076923 442.923076923 239.923076923 442.923076923 239.923076923 459.25443787 c 0,368,369
 239.923076923 480.902097902 239.923076923 480.902097902 251 495 c 256,370,371
 263 508 263 508 280 508 c 256,372,373
 296 508 296 508 308 495 c 256,374,375
 320 481 320 481 320 462 c 128,-1,376
 320 443 320 443 308 430 c 0,377,378
 303 424 303 424 297 421 c 1,379,-1
 297 421 l 1,380,381
 303 418 303 418 308 411 c 0,382,383
 320 397 320 397 320 379 c 256,384,385
 320 360 320 360 308 346 c 0,386,387
 303 340 303 340 297 338 c 1,388,-1
 297 338 l 1,389,390
 303 334 303 334 308 328 c 0,391,392
 320 314 320 314 320 296 c 0,393,394
 320 277 320 277 308 263 c 256,395,396
 296.8 249.933333333 296.8 249.933333333 282.115555556 249.933333333 c 0,397,398
 281.066666667 249.933333333 281.066666667 249.933333333 280 250 c 1,399,-1
 280 250 l 1,346,347
360 416 m 1,400,401
 344 416 344 416 332 430 c 256,402,403
 320 444 320 444 320 462 c 0,404,405
 320 481 320 481 332 495 c 0,406,407
 337 501 337 501 343 504 c 1,408,-1
 343 504 l 1,409,410
 338 507 338 507 332 513 c 0,411,412
 320 527 320 527 320 546 c 256,413,414
 320 565 320 565 332 578 c 0,415,416
 344 592 344 592 360 592 c 128,-1,417
 376 592 376 592 388 578 c 128,-1,418
 400 564 400 564 400 546 c 256,419,420
 400 527 400 527 388 513 c 0,421,422
 382 507 382 507 376 504 c 1,423,-1
 376 504 l 1,424,425
 382 501 382 501 388 495 c 0,426,427
 400 481 400 481 400 462 c 128,-1,428
 400 443 400 443 388 430 c 256,429,430
 376 416 376 416 360 416 c 1,431,-1
 360 416 l 1,400,401
440 500 m 1,432,433
 424 500 424 500 412 513 c 0,434,435
 400 527 400 527 400 546 c 256,436,437
 400 565 400 565 412 578 c 0,438,439
 424 592 424 592 440 592 c 256,440,441
 456 592 456 592 468 578 c 128,-1,442
 480 564 480 564 480 546 c 256,443,444
 480 527 480 527 468 513 c 0,445,446
 456.8 499.933333333 456.8 499.933333333 442.115555556 499.933333333 c 0,447,448
 441.066666667 499.933333333 441.066666667 499.933333333 440 500 c 1,449,-1
 440 500 l 1,432,433
EndSplineSet
EndChar

StartChar: seven
Encoding: 55 55 23
Width: 720
VWidth: 750
Flags: W
LayerCount: 2
Fore
SplineSet
40 0 m 1,0,1
 24 0 24 0 11 14 c 0,2,3
 0 28 0 28 0 46 c 0,4,5
 0 65 0 65 11 78 c 0,6,7
 23 92 23 92 40 92 c 256,8,9
 56 92 56 92 68 78 c 256,10,11
 80 64 80 64 80 46 c 128,-1,12
 80 28 80 28 68 14 c 128,-1,13
 56 0 56 0 40 0 c 1,14,-1
 40 0 l 1,0,1
120 0 m 1,15,16
 104 0 104 0 92 14 c 128,-1,17
 80 28 80 28 80 46 c 0,18,19
 80 65 80 65 92 78 c 0,20,21
 97 84 97 84 103 87 c 1,22,-1
 103 87 l 1,23,24
 98 90 98 90 92 97 c 0,25,26
 80 111 80 111 80 129 c 256,27,28
 80 148 80 148 92 161 c 0,29,30
 104 175 104 175 120 175 c 256,31,32
 136 175 136 175 148 161 c 0,33,34
 159 147 159 147 160 129 c 256,35,36
 160 110 160 110 148 97 c 0,37,38
 143 91 143 91 137 87 c 1,39,-1
 137 87 l 1,40,41
 142 84 142 84 148 78 c 0,42,43
 159 64 159 64 160 46 c 0,44,45
 160 28 160 28 148 14 c 128,-1,46
 136 0 136 0 120 0 c 1,47,-1
 120 0 l 1,15,16
200 83 m 1,48,49
 184 83 184 83 172 97 c 128,-1,50
 160 111 160 111 160 129 c 256,51,52
 160 148 160 148 172 161 c 0,53,54
 177 167 177 167 183 171 c 1,55,-1
 183 171 l 1,56,57
 177 174 177 174 172 180 c 0,58,59
 160 194 160 194 160 212 c 256,60,61
 160 230 160 230 172 244 c 128,-1,62
 184 258 184 258 200 258 c 128,-1,63
 216 258 216 258 228 244 c 128,-1,64
 240 230 240 230 240 212 c 256,65,66
 240 193 240 193 228 180 c 0,67,68
 223 174 223 174 217 171 c 1,69,-1
 217 171 l 1,70,71
 223 168 223 168 228 161 c 0,72,73
 240 147 240 147 240 129 c 256,74,75
 240 110 240 110 228 97 c 0,76,77
 216 83 216 83 200 83 c 1,78,-1
 200 83 l 1,48,49
280 166 m 1,79,80
 264 166 264 166 251 180 c 0,81,82
 239.923076923 192.923076923 239.923076923 192.923076923 239.923076923 209.25443787 c 0,83,84
 239.923076923 229.902097902 239.923076923 229.902097902 251 244 c 0,85,86
 256 250 256 250 263 254 c 1,87,-1
 263 254 l 1,88,89
 257 257 257 257 251 263 c 0,90,91
 239.923076923 276.846153846 239.923076923 276.846153846 239.923076923 293.24852071 c 0,92,93
 239.923076923 315.916083916 239.923076923 315.916083916 251 328 c 0,94,95
 262.2 341.066666667 262.2 341.066666667 277.755555556 341.066666667 c 0,96,97
 278.866666667 341.066666667 278.866666667 341.066666667 280 341 c 256,98,99
 281.066666667 341.066666667 281.066666667 341.066666667 282.115555556 341.066666667 c 0,100,101
 296.8 341.066666667 296.8 341.066666667 308 328 c 0,102,103
 320 314 320 314 320 296 c 0,104,105
 320 277 320 277 308 263 c 0,106,107
 303 257 303 257 297 254 c 1,108,-1
 297 254 l 1,109,110
 303 250 303 250 308 244 c 0,111,112
 320 230 320 230 320 212 c 256,113,114
 320 193 320 193 308 180 c 0,115,116
 296 166 296 166 280 166 c 1,117,-1
 280 166 l 1,79,80
360 250 m 1,118,119
 344 250 344 250 332 263 c 256,120,121
 320 278 320 278 320 296 c 0,122,123
 320 316 320 316 332 328 c 0,124,125
 337 334 337 334 343 338 c 1,126,-1
 343 338 l 1,127,128
 338 340 338 340 332 346 c 0,129,130
 320 360 320 360 320 379 c 256,131,132
 320 398 320 398 332 411 c 128,-1,133
 344 424 344 424 360 424 c 128,-1,134
 376 424 376 424 388 411 c 0,135,136
 400 397 400 397 400 379 c 256,137,138
 400 360 400 360 388 346 c 0,139,140
 382 340 382 340 376 338 c 1,141,-1
 376 338 l 1,142,143
 382 334 382 334 388 328 c 0,144,145
 400 314 400 314 400 296 c 0,146,147
 400 277 400 277 388 263 c 256,148,149
 376.8 249.933333333 376.8 249.933333333 362.115555556 249.933333333 c 0,150,151
 361.066666667 249.933333333 361.066666667 249.933333333 360 250 c 1,152,-1
 360 250 l 1,118,119
40 500 m 1,153,154
 24 500 24 500 11 513 c 0,155,156
 0 527 0 527 0 546 c 256,157,158
 0 565 0 565 11 578 c 0,159,160
 23 592 23 592 40 592 c 256,161,162
 56 592 56 592 68 578 c 128,-1,163
 80 564 80 564 80 546 c 256,164,165
 80 527 80 527 68 513 c 0,166,167
 56.8 499.933333333 56.8 499.933333333 42.1155555556 499.933333333 c 0,168,169
 41.0666666667 499.933333333 41.0666666667 499.933333333 40 500 c 1,170,-1
 40 500 l 1,153,154
120 500 m 1,171,172
 104 500 104 500 92 513 c 0,173,174
 80 527 80 527 80 546 c 256,175,176
 80 565 80 565 92 578 c 0,177,178
 104 592 104 592 120 592 c 256,179,180
 136 592 136 592 148 578 c 0,181,182
 159 564 159 564 160 546 c 256,183,184
 160 527 160 527 148 513 c 0,185,186
 136.8 499.933333333 136.8 499.933333333 122.115555556 499.933333333 c 0,187,188
 121.066666667 499.933333333 121.066666667 499.933333333 120 500 c 1,189,-1
 120 500 l 1,171,172
200 500 m 1,190,191
 184 500 184 500 172 513 c 0,192,193
 160 527 160 527 160 546 c 256,194,195
 160 565 160 565 172 578 c 0,196,197
 184 592 184 592 200 592 c 128,-1,198
 216 592 216 592 228 578 c 128,-1,199
 240 564 240 564 240 546 c 256,200,201
 240 527 240 527 228 513 c 0,202,203
 216.8 499.933333333 216.8 499.933333333 202.115555556 499.933333333 c 0,204,205
 201.066666667 499.933333333 201.066666667 499.933333333 200 500 c 1,206,-1
 200 500 l 1,190,191
280 500 m 1,207,208
 264 500 264 500 251 513 c 0,209,210
 239.923076923 525.923076923 239.923076923 525.923076923 239.923076923 543.106508876 c 0,211,212
 239.923076923 564.909090909 239.923076923 564.909090909 251 578 c 0,213,214
 263 592 263 592 280 592 c 256,215,216
 296 592 296 592 308 578 c 128,-1,217
 320 564 320 564 320 546 c 256,218,219
 320 527 320 527 308 513 c 0,220,221
 296.8 499.933333333 296.8 499.933333333 282.115555556 499.933333333 c 0,222,223
 281.066666667 499.933333333 281.066666667 499.933333333 280 500 c 1,224,-1
 280 500 l 1,207,208
360 500 m 1,225,226
 344 500 344 500 332 513 c 0,227,228
 320 527 320 527 320 546 c 256,229,230
 320 565 320 565 332 578 c 0,231,232
 344 592 344 592 360 592 c 128,-1,233
 376 592 376 592 388 578 c 128,-1,234
 400 564 400 564 400 546 c 256,235,236
 400 527 400 527 388 513 c 0,237,238
 376.8 499.933333333 376.8 499.933333333 362.115555556 499.933333333 c 0,239,240
 361.066666667 499.933333333 361.066666667 499.933333333 360 500 c 1,241,-1
 360 500 l 1,225,226
440 333 m 1,242,243
 438.933333333 332.933333333 438.933333333 332.933333333 437.884444444 332.933333333 c 0,244,245
 423.2 332.933333333 423.2 332.933333333 412 346 c 0,246,247
 400 360 400 360 400 379 c 256,248,249
 400 398 400 398 412 411 c 0,250,251
 417 417 417 417 423 421 c 1,252,-1
 423 421 l 1,253,254
 417 424 417 424 412 430 c 0,255,256
 400 444 400 444 400 462 c 0,257,258
 400 481 400 481 412 495 c 0,259,260
 417 501 417 501 423 504 c 1,261,-1
 423 504 l 1,262,263
 417 507 417 507 412 513 c 0,264,265
 400 527 400 527 400 546 c 256,266,267
 400 565 400 565 412 578 c 0,268,269
 424 592 424 592 440 592 c 256,270,271
 456 592 456 592 468 578 c 128,-1,272
 480 564 480 564 480 546 c 256,273,274
 480 527 480 527 468 513 c 0,275,276
 463 507 463 507 457 504 c 1,277,-1
 457 504 l 1,278,279
 463 501 463 501 468 495 c 0,280,281
 480 481 480 481 480 462 c 128,-1,282
 480 443 480 443 468 430 c 0,283,284
 463 424 463 424 457 421 c 1,285,-1
 457 421 l 1,286,287
 463 418 463 418 468 411 c 0,288,289
 480 397 480 397 480 379 c 256,290,291
 480 360 480 360 468 346 c 0,292,293
 456.8 332.933333333 456.8 332.933333333 442.115555556 332.933333333 c 0,294,295
 441.066666667 332.933333333 441.066666667 332.933333333 440 333 c 1,296,-1
 440 333 l 1,242,243
520 416 m 1,297,298
 504 416 504 416 491 430 c 256,299,300
 479.923076923 442.923076923 479.923076923 442.923076923 479.923076923 459.25443787 c 0,301,302
 479.923076923 480.902097902 479.923076923 480.902097902 491 495 c 0,303,304
 496 501 496 501 502 504 c 1,305,-1
 502 504 l 1,306,307
 496 507 496 507 491 513 c 0,308,309
 479.923076923 525.923076923 479.923076923 525.923076923 479.923076923 543.106508876 c 0,310,311
 479.923076923 564.909090909 479.923076923 564.909090909 491 578 c 0,312,313
 503 592 503 592 520 592 c 0,314,315
 536 592 536 592 548 578 c 128,-1,316
 560 564 560 564 560 546 c 256,317,318
 560 527 560 527 548 513 c 0,319,320
 543 507 543 507 537 504 c 1,321,-1
 537 504 l 1,322,323
 543 501 543 501 548 495 c 0,324,325
 560 481 560 481 560 462 c 128,-1,326
 560 443 560 443 548 430 c 256,327,328
 536 416 536 416 520 416 c 1,329,-1
 520 416 l 1,297,298
600 500 m 1,330,331
 584 500 584 500 572 513 c 0,332,333
 560 527 560 527 560 546 c 256,334,335
 560 565 560 565 572 578 c 0,336,337
 584 592 584 592 600 592 c 256,338,339
 616 592 616 592 628 578 c 128,-1,340
 640 564 640 564 640 546 c 256,341,342
 640 527 640 527 628 513 c 0,343,344
 616.8 499.933333333 616.8 499.933333333 602.115555556 499.933333333 c 0,345,346
 601.066666667 499.933333333 601.066666667 499.933333333 600 500 c 1,347,-1
 600 500 l 1,330,331
EndSplineSet
EndChar

